{
.appVersion = "3134";
.formatVersion = 3;
classes = (
{
automatic = 1;

glyphs = (
{
glyphname = .notdef;
lastChange = "2024-09-15 16:42:30 +0000";
layers = (
{
layerId = m01;
shapes = (
{
closed = 1;
nodes = (
(65,504,l),
(251,264,l),
(436,504,l)
);
},
{
closed = 1;
nodes = (
(50,512,l),
(450,512,l),
(450,0,l),
(50,0,l)
);
},
{
closed = 1;
nodes = (
(256,257,l),
(442,16,l),
(442,497,l)
);
},
{
closed = 1;
nodes = (
(245,257,l),
(58,499,l),
(58,15,l)
);
},
{
closed = 1;
nodes = (
(438,8,l),
(251,250,l),
(63,8,l)
);
}
);
width = 550;
}
);
note = ".notdef";
},
{
glyphname = exclam;
lastChange = "2026-05-31 18:56:07 +0000";
layers = (
{
hints = (
{
horizontal = 1;
place = (40, 181);
place = (40, 181);
type = Stem;
},
{
horizontal = 1;
place = (730, 82);
place = (730, 82);
type = Stem;
},
{
place = (135, 181);
place = (135, 181);
type = Stem;
},
{
place = (104, 79);
place = (104, 79);
type = Stem;
}
);
layerId = m01;
shapes = (
{
closed = 1;
nodes = (
(131,678,l),
(182,195,l),
(214,195,l),
(268,707,l),
(104,698,l),
(105,677,l)
);
},
{
closed = 1;
nodes = (
(256,75,o),
(231,100,o),
(199,100,cs),
(169,100,o),
(143,73,o),
(143,43,cs),
(143,12,o),
(170,-14,o),
(199,-14,cs),
(231,-14,o),
(256,12,o),
(256,42,cs)
);
}
);
width = 372;
}
);
note = exclam;
unicode = 33;
},
{
glyphname = numbersign;
lastChange = "2024-09-08 20:42:52 +0000";
layers = (
{
hints = (
{
horizontal = 1;
place = (-21, 21);
target = up;
type = BottomGhost;
},
{
horizontal = 1;
place = (199, 14);
place = (199, 14);
type = Stem;
},
{
horizontal = 1;
place = (399, 14);
place = (399, 14);
type = Stem;
},
{
place = (-4, 487);
place = (-4, 487);
type = Stem;
}
);
layerId = m01;
shapes = (
{
closed = 1;
nodes = (
(504,455,l),
(383,455,l),
(433,675,l),
(399,675,l),
(348,455,l),
(205,455,l),
(256,675,l),
(221,675,l),
(169,455,l),
(43,455,l),
(41,420,l),
(162,420,l),
(123,255,l),
(-2,255,l),
(-4,220,l),
(116,220,l),
(61,0,l),
(96,0,l),
(152,220,l),
(294,220,l),
(239,0,l),
(274,0,l),
(329,220,l),
(456,220,l),
(458,255,l),
(336,255,l),
(376,420,l),
(501,420,l)
);
},
{
closed = 1;
nodes = (
(301,255,l),
(158,255,l),
(198,420,l),
(341,420,l)
);
}
);
width = 501;
}
);
note = numbersign;
unicode = 35;
},
{
glyphname = dollar;
lastChange = "2024-09-08 20:42:52 +0000";
layers = (
{
hints = (
{
horizontal = 1;
place = (13, 51);
place = (13, 51);
type = Stem;
},
{
horizontal = 1;
place = (515, 214);
place = (515, 214);
type = Stem;
},
{
place = (75, 51);
place = (75, 51);
type = Stem;
},
{
place = (242, 53);
place = (242, 53);
type = Stem;
},
{
place = (302, 53);
place = (302, 53);
type = Stem;
},
{
place = (427, 113);
place = (427, 113);
type = Stem;
},
{
place = (435, 51);
place = (435, 51);
type = Stem;
},
{
horizontal = 1;
place = (696, 50);
place = (696, 50);
type = Stem;
},
{
place = (78, 110);
place = (78, 110);
type = Stem;
},
{
horizontal = 1;
place = (17, 21);
target = up;
type = BottomGhost;
},
{
horizontal = 1;
place = (26, 21);
target = up;
type = BottomGhost;
}
);
layerId = m01;
shapes = (
{
closed = 1;
nodes = (
(242,-73,l),
(269,-73,l),
(269,-12,l),
(276,-13,o),
(284,-13,o),
(292,-13,cs),
(302,-13,l),
(302,-73,l),
(329,-73,l),
(329,-11,l),
(447,3,o),
(514,85,o),
(514,188,cs),
(514,298,o),
(434,334,o),
(329,376,c),
(329,665,l),
(396,648,o),
(427,591,o),
(435,489,c),
(460,489,l),
(460,677,l),
(435,677,l),
(428,662,o),
(424,657,o),
(412,657,cs),
(393,657,o),
(373,677,o),
(329,688,c),
(329,754,l),
(302,754,l),
(302,693,l),
(300,693,o),
(298,693,o),
(296,693,cs),
(284,694,ls),
(282,694,o),
(280,694,o),
(278,694,cs),
(269,694,l),
(269,754,l),
(242,754,l),
(242,691,l),
(147,679,o),
(78,618,o),
(78,520,cs),
(78,427,o),
(149,375,o),
(242,334,c),
(242,15,l),
(173,25,o),
(117,68,o),
(100,200,c),
(75,200,l),
(75,0,l),
(100,0,l),
(103,23,o),
(114,27,o),
(127,27,cs),
(146,27,o),
(179,0,o),
(242,-9,c)
);
},
{
closed = 1;
nodes = (
(291,670,o),
(296,670,o),
(302,669,c),
(302,387,l),
(298,389,ls),
(287,393,o),
(278,397,o),
(269,401,c),
(269,669,l),
(274,669,o),
(279,670,o),
(285,670,cs)
);
},
{
closed = 1;
nodes = (
(162,590,o),
(188,644,o),
(242,663,c),
(242,415,l),
(188,444,o),
(162,478,o),
(162,535,cs)
);
},
{
closed = 1;
nodes = (
(302,310,l),
(302,13,l),
(295,12,o),
(289,12,o),
(282,12,cs),
(269,12,l),
(269,323,l),
(276,320,o),
(283,317,o),
(290,315,cs)
);
},
{
closed = 1;
nodes = (
(425,96,o),
(391,38,o),
(329,19,c),
(329,298,l),
(401,263,o),
(427,221,o),
(427,161,cs)
);
}
);
width = 598;
}
);
note = dollar;
unicode = 36;
},
{
glyphname = ampersand;
lastChange = "2026-06-10 19:15:42 +0000";
layers = (
{
hints = (
{
horizontal = 1;
place = (25, 62);
place = (25, 62);
type = Stem;
},
{
horizontal = 1;
place = (380, 61);
place = (380, 61);
type = Stem;
},
{
horizontal = 1;
place = (724, 62);
place = (724, 62);
type = Stem;
},
{
place = (157, 103);
place = (157, 103);
type = Stem;
},
{
place = (416, 99);
place = (416, 99);
type = Stem;
},
{
place = (691, 93);
place = (691, 93);
type = Stem;
},
{
place = (75, 124);
place = (75, 124);
type = Stem;
},
{
horizontal = 1;
place = (24, 70);
place = (24, 70);
type = Stem;
},
{
place = (614, 169);
place = (614, 169);
type = Stem;
}
);
layerId = m01;
shapes = (
{
closed = 1;
nodes = (
(592,225,o),
(573,184,o),
(548,147,c),
(326,404,l),
(416,463,o),
(478,502,o),
(478,588,cs),
(478,658,o),
(412,712,o),
(326,712,cs),
(226,712,o),
(157,642,o),
(157,553,cs),
(157,491,o),
(188,440,o),
(236,383,c),
(126,323,o),
(75,262,o),
(75,174,cs),
(75,65,o),
(166,-12,o),
(295,-12,cs),
(376,-12,o),
(447,12,o),
(505,63,c),
(524,39,ls),
(552,4,o),
(595,-13,o),
(633,-13,cs),
(653,-13,o),
(671,-8,o),
(686,0,cs),
(726,19,o),
(762,76,o),
(742,118,cs),
(732,138,o),
(711,152,o),
(690,152,cs),
(672,152,o),
(654,142,o),
(642,117,c),
(705,85,o),
(693,33,o),
(681,24,cs),
(677,21,o),
(673,20,o),
(669,20,cs),
(652,20,o),
(634,42,o),
(606,77,cs),
(563,131,l),
(586,167,o),
(606,207,o),
(620,251,cs),
(647,335,o),
(661,343,o),
(746,343,c),
(746,367,l),
(528,367,l),
(528,343,l),
(613,343,o),
(622,331,o),
(605,270,cs)
);
},
{
closed = 1;
nodes = (
(416,507,o),
(379,464,o),
(309,425,c),
(266,480,o),
(223,534,o),
(223,583,cs),
(223,648,o),
(272,687,o),
(318,687,cs),
(394,687,o),
(416,637,o),
(416,580,cs)
);
},
{
closed = 1;
nodes = (
(489,79,l),
(449,43,o),
(387,13,o),
(330,13,cs),
(247,13,o),
(162,82,o),
(162,185,cs),
(162,279,o),
(193,321,o),
(253,361,c)
);
}
);
width = 827;
}
);
note = ampersand;
unicode = 38;
},
{
glyphname = quotesingle;
lastChange = "2024-09-15 12:58:14 +0000";
layers = (
{
hints = (
{
horizontal = 1;
place = (533, 266);
place = (533, 266);
type = Stem;
},
{
place = (134, 116);
place = (134, 116);
type = Stem;
}
);
layerId = m01;
shapes = (
{
closed = 1;
nodes = (
(122,520,l),
(143,520,l),
(158,704,l),
(160,728,o),
(155,730,o),
(139,730,c),
(114,730,l)
);
}
);
width = 272;
}
);
note = quotesingle;
unicode = 39;
},
{
glyphname = parenleft;
lastChange = "2024-09-08 20:42:52 +0000";
layers = (
{
hints = (
{
horizontal = 1;
place = (-131, 936);
place = (-131, 936);
type = Stem;
},
{
place = (79, 113);
place = (79, 113);
type = Stem;
}
);
layerId = m01;
shapes = (
{
closed = 1;
nodes = (
(342,-137,l),
(194,-43,o),
(170,92,o),
(170,314,cs),
(170,495,o),
(203,665,o),
(342,744,c),
(334,761,l),
(166,681,o),
(79,502,o),
(79,309,cs),
(79,111,o),
(162,-67,o),
(332,-153,c)
);
}
);
width = 369;
}
);
note = parenleft;
unicode = 40;
},
{
glyphname = parenright;
lastChange = "2024-09-08 20:42:52 +0000";
layers = (
{
hints = (
{
horizontal = 1;
place = (-149, 918);
place = (-149, 918);
type = Stem;
},
{
place = (199, 95);
place = (199, 95);
type = Stem;
}
);
layerId = m01;
shapes = (
{
closed = 1;
nodes = (
(37,-153,l),
(207,-67,o),
(290,111,o),
(290,309,cs),
(290,502,o),
(203,681,o),
(35,761,c),
(27,744,l),
(166,665,o),
(199,495,o),
(199,314,cs),
(199,92,o),
(175,-43,o),
(27,-137,c)
);
}
);
width = 369;
}
);
note = parenright;
unicode = 41;
},
{
glyphname = asterisk;
lastChange = "2024-09-09 18:42:50 +0000";
layers = (
{
hints = (
{
horizontal = 1;
place = (458, 127);
place = (458, 127);
type = Stem;
},
{
horizontal = 1;
place = (593, 127);
place = (593, 127);
type = Stem;
},
{
place = (43, 115);
place = (43, 115);
type = Stem;
},
{
place = (142, 127);
place = (142, 127);
type = Stem;
},
{
place = (277, 127);
place = (277, 127);
type = Stem;
},
{
place = (393, 115);
place = (393, 115);
type = Stem;
}
);
layerId = m01;
shapes = (
{
closed = 1;
nodes = (
(117,524,o),
(145,544,o),
(175,544,cs),
(194,544,o),
(213,536,o),
(228,521,c),
(173,489,o),
(142,432,o),
(142,384,cs),
(142,334,o),
(178,307,o),
(216,307,cs),
(257,307,o),
(278,337,o),
(285,373,c),
(210,386,o),
(204,456,o),
(246,495,c),
(278,440,o),
(335,409,o),
(382,409,cs),
(432,409,o),
(459,445,o),
(459,483,cs),
(459,524,o),
(429,545,o),
(393,552,c),
(385,507,o),
(357,487,o),
(327,487,cs),
(308,487,o),
(287,496,o),
(272,512,c),
(325,544,o),
(355,600,o),
(355,646,cs),
(355,696,o),
(319,723,o),
(281,723,cs),
(240,723,o),
(219,693,o),
(212,657,c),
(285,644,o),
(293,578,o),
(255,539,c),
(222,592,o),
(167,622,o),
(120,622,cs),
(70,622,o),
(43,586,o),
(43,548,cs),
(43,507,o),
(73,486,o),
(109,479,c)
);
}
);
width = 502;
}
);
note = asterisk;
unicode = 42;
},
{
glyphname = plus;
lastChange = "2024-09-08 20:42:52 +0000";
layers = (
{
hints = (
{
horizontal = 1;
place = (261, 52);
place = (261, 52);
type = Stem;
},
{
place = (271, 52);
place = (271, 52);
type = Stem;
}
);
layerId = m01;
shapes = (
{
closed = 1;
nodes = (
(537,311,l),
(322,311,l),
(322,527,l),
(271,527,l),
(271,311,l),
(56,311,l),
(56,260,l),
(271,260,l),
(271,43,l),
(322,43,l),
(322,260,l),
(537,260,l)
);
}
);
width = 594;
}
);
note = plus;
unicode = 43;
},
{
glyphname = comma;
lastChange = "2024-09-08 20:42:52 +0000";
layers = (
{
hints = (
{
horizontal = 1;
place = (-80, 264);
place = (-80, 264);
type = Stem;
},
{
place = (132, 114);
place = (132, 114);
type = Stem;
}
);
layerId = m01;
shapes = (
{
closed = 1;
nodes = (
(92,-116,l),
(167,-90,o),
(210,-21,o),
(210,35,cs),
(210,85,o),
(174,112,o),
(136,112,cs),
(95,112,o),
(74,82,o),
(67,46,c),
(154,31,o),
(148,-61,o),
(83,-91,c)
);
}
);
width = 277;
}
);
note = comma;
unicode = 44;
},
{
glyphname = period;
lastChange = "2026-05-31 18:56:17 +0000";
layers = (
{
hints = (
{
horizontal = 1;
place = (10, 151);
place = (10, 151);
type = Stem;
},
{
place = (86, 151);
place = (86, 151);
type = Stem;
}
);
layerId = m01;
shapes = (
{
closed = 1;
nodes = (
(207,75,o),
(182,100,o),
(150,100,cs),
(120,100,o),
(94,73,o),
(94,43,cs),
(94,12,o),
(121,-14,o),
(150,-14,cs),
(182,-14,o),
(207,12,o),
(207,42,cs)
);
}
);
width = 300;
}
);
note = period;
unicode = 46;
},
{
glyphname = slash;
lastChange = "2024-09-18 16:41:57 +0000";
layers = (
{
hints = (
{
horizontal = 1;
place = (717, -20);
target = down;
type = TopGhost;
},
{
place = (3, 334);
place = (3, 334);
type = Stem;
}
);
layerId = m01;
shapes = (
{
closed = 1;
nodes = (
(295,748,l),
(3,-48,l),
(42,-48,l),
(334,748,l)
);
}
);
width = 337;
}
);
note = slash;
unicode = 47;
},
{
glyphname = zero;
lastChange = "2025-07-26 13:20:41 +0000";
layers = (
{
hints = (
{
horizontal = 1;
place = (-26, 9);
place = (-26, 9);
type = Stem;
},
{
horizontal = 1;
place = (675, 8);
place = (675, 8);
type = Stem;
},
{
place = (26, 88);
place = (26, 88);
type = Stem;
},
{
place = (397, 90);
place = (397, 90);
type = Stem;
}
);
layerId = m01;
shapes = (
{
closed = 1;
nodes = (
(501,571,o),
(416,712,o),
(263,712,cs),
(118,712,o),
(26,557,o),
(26,349,cs),
(26,137,o),
(106,-12,o),
(267,-12,cs),
(415,-12,o),
(501,160,o),
(501,348,cs)
);
},
{
closed = 1;
nodes = (
(397,156,o),
(358,11,o),
(261,11,cs),
(167,11,o),
(128,148,o),
(128,334,cs),
(128,527,o),
(158,690,o),
(263,690,cs),
(360,690,o),
(397,565,o),
(397,344,cs)
);
}
);
width = 527;
}
);
note = zero;
unicode = 48;
},
{
glyphname = one;
lastChange = "2025-08-25 15:56:38 +0000";
layers = (
{
hints = (
{
horizontal = 1;
place = (-11, 12);
place = (-11, 12);
type = Stem;
},
{
horizontal = 1;
place = (699, -20);
target = down;
type = TopGhost;
},
{
place = (200, 83);
place = (200, 83);
type = Stem;
}
);
layerId = m01;
shapes = (
{
closed = 1;
nodes = (
(200,612,l),
(165,572,o),
(140,545,o),
(95,507,c),
(79,522,l),
(132,571,o),
(182,625,o),
(242,710,c),
(294,703,l),
(294,143,ls),
(294,54,o),
(312,23,o),
(383,23,c),
(383,0,l),
(110,0,l),
(110,23,l),
(181,23,o),
(200,54,o),
(200,143,cs)
);
}
);
width = 471;
}
);
note = one;
unicode = 49;
},
{
glyphname = two;
lastChange = "2024-09-08 20:42:52 +0000";
layers = (
{
hints = (
{
horizontal = 1;
place = (-49, 38);
place = (-49, 38);
type = Stem;
},
{
horizontal = 1;
place = (641, -27);
place = (641, -27);
type = Stem;
},
{
place = (17, 40);
place = (17, 40);
type = Stem;
},
{
place = (396, -24);
place = (396, -24);
type = Stem;
},
{
place = (315, 54);
place = (315, 54);
type = Stem;
}
);
layerId = m01;
shapes = (
{
closed = 1;
nodes = (
(288,690,o),
(315,617,o),
(315,520,cs),
(315,434,o),
(291,336,o),
(213,249,cs),
(180,212,ls),
(140,168,o),
(56,79,o),
(12,40,c),
(12,0,l),
(421,0,l),
(421,161,l),
(396,161,l),
(393,90,o),
(358,87,o),
(293,87,cs),
(106,87,l),
(250,233,ls),
(358,338,o),
(418,422,o),
(418,521,cs),
(418,637,o),
(331,712,o),
(203,712,cs),
(120,712,o),
(17,673,o),
(17,580,cs),
(17,534,o),
(54,507,o),
(89,507,cs),
(102,507,o),
(114,511,o),
(125,518,c),
(81,596,o),
(118,690,o),
(203,690,cs)
);
}
);
width = 472;
}
);
note = two;
unicode = 50;
},
{
glyphname = three;
lastChange = "2024-10-28 16:44:22 +0000";
layers = (
{
hints = (
{
horizontal = 1;
place = (-32, 2);
place = (-32, 2);
type = Stem;
},
{
horizontal = 1;
place = (360, 6);
place = (360, 6);
type = Stem;
},
{
horizontal = 1;
place = (593, 67);
place = (593, 67);
type = Stem;
},
{
place = (53, 5);
place = (53, 5);
type = Stem;
},
{
place = (363, 83);
place = (363, 83);
type = Stem;
},
{
place = (28, 71);
place = (28, 71);
type = Stem;
}
);
layerId = m01;
shapes = (
{
closed = 1;
nodes = (
(435,660,l),
(435,700,l),
(53,700,l),
(53,530,l),
(78,530,l),
(78,580,o),
(79,613,o),
(126,613,cs),
(362,613,l),
(163,384,l),
(181,365,l),
(195,373,o),
(207,380,o),
(238,380,cs),
(314,380,o),
(363,308,o),
(363,199,cs),
(363,84,o),
(314,10,o),
(215,10,cs),
(130,10,o),
(94,105,o),
(136,177,c),
(125,184,o),
(113,188,o),
(100,188,cs),
(65,188,o),
(28,161,o),
(28,115,cs),
(28,29,o),
(128,-12,o),
(219,-12,cs),
(357,-12,o),
(466,83,o),
(466,201,cs),
(466,322,o),
(382,406,o),
(279,406,cs),
(250,406,o),
(226,401,o),
(202,391,c)
);
}
);
width = 520;
}
);
note = three;
unicode = 51;
},
{
glyphname = four;
lastChange = "2026-04-25 15:57:59 +0000";
layers = (
{
hints = (
{
horizontal = 1;
place = (-11, 12);
place = (-11, 12);
type = Stem;
},
{
horizontal = 1;
place = (163, 19);
place = (163, 19);
type = Stem;
},
{
horizontal = 1;
place = (696, -20);
target = down;
type = TopGhost;
},
{
place = (264, 85);
place = (264, 85);
type = Stem;
}
);
layerId = m01;
shapes = (
{
closed = 1;
nodes = (
(264,174,l),
(31,174,l),
(289,707,l),
(379,707,l),
(71,204,l),
(264,204,l),
(264,329,l),
(282,329,o),
(309,358,o),
(309,412,c),
(360,412,l),
(360,204,l),
(454,204,l),
(454,174,l),
(360,174,l),
(360,123,ls),
(360,54,o),
(378,23,o),
(429,23,c),
(429,0,l),
(194,0,l),
(194,23,l),
(245,23,o),
(264,54,o),
(264,123,cs)
);
}
);
width = 483;
}
);
note = four;
unicode = 52;
},
{
glyphname = five;
lastChange = "2024-09-08 20:42:52 +0000";
layers = (
{
hints = (
{
horizontal = 1;
place = (-16, 18);
place = (-16, 18);
type = Stem;
},
{
horizontal = 1;
place = (411, 26);
place = (411, 26);
type = Stem;
},
{
horizontal = 1;
place = (707, -20);
target = down;
type = TopGhost;
},
{
place = (43, 87);
place = (43, 87);
type = Stem;
},
{
place = (370, 98);
place = (370, 98);
type = Stem;
},
{
horizontal = 1;
place = (597, 76);
place = (597, 76);
type = Stem;
},
{
horizontal = 1;
place = (705, -20);
target = down;
type = TopGhost;
}
);
layerId = m01;
shapes = (
{
closed = 1;
nodes = (
(374,-12,o),
(472,107,o),
(472,230,cs),
(472,356,o),
(392,445,o),
(259,445,cs),
(200,445,o),
(140,423,o),
(113,382,c),
(129,620,l),
(164,607,o),
(200,601,o),
(238,601,cs),
(311,601,o),
(380,627,o),
(435,670,c),
(426,709,l),
(386,690,o),
(341,681,o),
(292,681,cs),
(238,681,o),
(174,690,o),
(139,711,c),
(107,705,l),
(83,342,l),
(93,340,o),
(104,337,o),
(113,332,c),
(150,387,o),
(195,415,o),
(243,415,cs),
(325,415,o),
(370,347,o),
(370,220,cs),
(370,99,o),
(336,10,o),
(230,10,cs),
(145,10,o),
(109,105,o),
(151,177,c),
(140,184,o),
(128,188,o),
(115,188,cs),
(80,188,o),
(43,161,o),
(43,115,cs),
(43,29,o),
(143,-12,o),
(234,-12,cs)
);
}
);
width = 530;
}
);
note = five;
unicode = 53;
},
{
glyphname = six;
lastChange = "2024-09-08 20:42:52 +0000";
layers = (
{
hints = (
{
horizontal = 1;
place = (-35, 0);
place = (-35, 0);
type = Stem;
},
{
horizontal = 1;
place = (387, 0);
place = (387, 0);
type = Stem;
},
{
horizontal = 1;
place = (665, 3);
place = (665, 3);
type = Stem;
},
{
place = (32, 75);
place = (32, 75);
type = Stem;
},
{
place = (356, 68);
place = (356, 68);
type = Stem;
},
{
place = (387, 80);
place = (387, 80);
type = Stem;
}
);
layerId = m01;
shapes = (
{
closed = 1;
nodes = (
(339,687,o),
(378,615,o),
(342,551,c),
(354,543,o),
(368,538,o),
(382,538,cs),
(415,538,o),
(446,561,o),
(446,604,cs),
(446,685,o),
(348,712,o),
(285,712,cs),
(119,712,o),
(32,508,o),
(32,302,cs),
(32,121,o),
(109,-13,o),
(257,-13,cs),
(394,-13,o),
(489,89,o),
(489,224,cs),
(489,341,o),
(404,431,o),
(285,431,cs),
(217,431,o),
(154,392,o),
(129,329,c),
(129,539,o),
(169,687,o),
(271,687,cs)
);
},
{
closed = 1;
nodes = (
(137,312,o),
(183,409,o),
(266,409,cs),
(353,409,o),
(387,325,o),
(387,205,cs),
(387,63,o),
(344,9,o),
(260,9,cs),
(183,9,o),
(137,70,o),
(137,217,cs)
);
}
);
width = 521;
}
);
note = six;
unicode = 54;
},
{
glyphname = seven;
lastChange = "2024-09-08 20:42:52 +0000";
layers = (
{
hints = (
{
horizontal = 1;
place = (15, 21);
target = up;
type = BottomGhost;
},
{
horizontal = 1;
place = (628, 102);
place = (628, 102);
type = Stem;
},
{
place = (68, 40);
place = (68, 40);
type = Stem;
}
);
layerId = m01;
shapes = (
{
closed = 1;
nodes = (
(450,700,l),
(68,700,l),
(68,530,l),
(93,530,l),
(93,580,o),
(114,613,o),
(161,613,cs),
(404,613,l),
(137,0,l),
(217,0,l),
(450,660,l)
);
}
);
width = 513;
}
);
note = seven;
unicode = 55;
},
{
glyphname = eight;
lastChange = "2024-09-08 20:42:52 +0000";
layers = (
{
hints = (
{
horizontal = 1;
place = (-25, 12);
place = (-25, 12);
type = Stem;
},
{
horizontal = 1;
place = (674, 12);
place = (674, 12);
type = Stem;
},
{
place = (38, 53);
place = (38, 53);
type = Stem;
},
{
place = (393, 74);
place = (393, 74);
type = Stem;
},
{
place = (63, 70);
place = (63, 70);
type = Stem;
},
{
place = (384, 49);
place = (384, 49);
type = Stem;
}
);
layerId = m01;
shapes = (
{
closed = 1;
nodes = (
(480,281,o),
(421,349,o),
(309,390,c),
(397,418,o),
(446,477,o),
(446,551,cs),
(446,645,o),
(363,712,o),
(262,712,cs),
(152,712,o),
(63,637,o),
(63,528,cs),
(63,449,o),
(119,383,o),
(201,352,c),
(104,326,o),
(38,254,o),
(38,162,cs),
(38,59,o),
(118,-12,o),
(251,-12,cs),
(387,-12,o),
(480,66,o),
(480,191,cs)
);
},
{
closed = 1;
nodes = (
(384,472,o),
(349,424,o),
(283,399,c),
(170,448,o),
(146,477,o),
(146,554,cs),
(146,633,o),
(197,687,o),
(259,687,cs),
(337,687,o),
(384,637,o),
(384,550,cs)
);
},
{
closed = 1;
nodes = (
(393,93,o),
(340,13,o),
(256,13,cs),
(166,13,o),
(104,64,o),
(104,161,cs),
(104,250,o),
(152,318,o),
(230,343,c),
(304,316,o),
(393,288,o),
(393,165,cs)
);
}
);
width = 518;
}
);
note = eight;
unicode = 56;
},
{
glyphname = nine;
lastChange = "2024-09-30 15:44:20 +0000";
layers = (
{
hints = (
{
horizontal = 1;
place = (-33, 5);
place = (-33, 5);
type = Stem;
},
{
horizontal = 1;
place = (248, 2);
place = (248, 2);
type = Stem;
},
{
horizontal = 1;
place = (670, 2);
place = (670, 2);
type = Stem;
},
{
place = (67, 70);
place = (67, 70);
type = Stem;
},
{
place = (384, 77);
place = (384, 77);
type = Stem;
},
{
place = (24, 82);
place = (24, 82);
type = Stem;
}
);
layerId = m01;
shapes = (
{
closed = 1;
nodes = (
(174,12,o),
(135,84,o),
(171,148,c),
(159,156,o),
(145,161,o),
(131,161,cs),
(98,161,o),
(67,138,o),
(67,95,cs),
(67,14,o),
(165,-13,o),
(228,-13,cs),
(394,-13,o),
(481,191,o),
(481,397,cs),
(481,578,o),
(404,712,o),
(256,712,cs),
(119,712,o),
(24,610,o),
(24,475,cs),
(24,358,o),
(109,268,o),
(228,268,cs),
(296,268,o),
(359,307,o),
(384,370,c),
(384,160,o),
(344,12,o),
(242,12,cs)
);
},
{
closed = 1;
nodes = (
(376,387,o),
(330,290,o),
(247,290,cs),
(160,290,o),
(126,374,o),
(126,494,cs),
(126,636,o),
(169,690,o),
(253,690,cs),
(330,690,o),
(376,629,o),
(376,482,cs)
);
}
);
width = 522;
}
);
note = nine;
unicode = 57;
},
{
glyphname = colon;
lastChange = "2026-05-31 18:56:23 +0000";
layers = (
{
hints = (
{
horizontal = 1;
place = (9, 150);
place = (9, 150);
type = Stem;
},
{
horizontal = 1;
place = (356, 152);
place = (356, 152);
type = Stem;
},
{
place = (86, 151);
place = (86, 151);
type = Stem;
}
);
layerId = m01;
shapes = (
{
closed = 1;
nodes = (
(207,75,o),
(182,100,o),
(150,100,cs),
(120,100,o),
(94,73,o),
(94,43,cs),
(94,12,o),
(121,-14,o),
(150,-14,cs),
(182,-14,o),
(207,12,o),
(207,42,cs)
);
},
{
closed = 1;
nodes = (
(207,422,o),
(182,447,o),
(150,447,cs),
(120,447,o),
(94,420,o),
(94,390,cs),
(94,359,o),
(121,333,o),
(150,333,cs),
(182,333,o),
(207,359,o),
(207,389,cs)
);
}
);
width = 301;
}
);
note = colon;
unicode = 58;
},
{
glyphname = semicolon;
lastChange = "2026-05-31 18:55:26 +0000";
layers = (
{
hints = (
{
horizontal = 1;
place = (339, 135);
place = (339, 135);
type = Stem;
},
{
place = (132, 84);
place = (132, 84);
type = Stem;
},
{
place = (70, 133);
place = (70, 133);
type = Stem;
}
);
layerId = m01;
shapes = (
{
closed = 1;
nodes = (
(92,-116,l),
(167,-90,o),
(210,-21,o),
(210,35,cs),
(210,85,o),
(174,112,o),
(136,112,cs),
(95,112,o),
(74,82,o),
(67,46,c),
(154,31,o),
(148,-61,o),
(83,-91,c)
);
},
{
closed = 1;
nodes = (
(190,422,o),
(165,447,o),
(133,447,cs),
(103,447,o),
(77,420,o),
(77,390,cs),
(77,359,o),
(104,333,o),
(133,333,cs),
(165,333,o),
(190,359,o),
(190,389,cs)
);
}
);
width = 277;
}
);
note = semicolon;
unicode = 59;
},
{
glyphname = less;
lastChange = "2024-09-08 20:42:52 +0000";
layers = (
{
hints = (
{
horizontal = 1;
place = (-51, 630);
place = (-51, 630);
type = Stem;
},
{
place = (12, 449);
place = (12, 449);
type = Stem;
}
);
layerId = m01;
shapes = (
{
closed = 1;
nodes = (
(466,0,l),
(63,271,l),
(466,543,l),
(466,589,l),
(12,284,l),
(12,258,l),
(466,-46,l)
);
}
);
width = 479;
}
);
note = less;
unicode = 60;
},
{
glyphname = greater;
lastChange = "2024-09-08 20:42:52 +0000";
layers = (
{
hints = (
{
horizontal = 1;
place = (-70, 611);
place = (-70, 611);
type = Stem;
},
{
place = (12, 430);
place = (12, 430);
type = Stem;
}
);
layerId = m01;
shapes = (
{
closed = 1;
nodes = (
(12,-46,l),
(466,258,l),
(466,284,l),
(12,589,l),
(12,543,l),
(415,271,l),
(12,0,l)
);
}
);
width = 479;
}
);
note = greater;
unicode = 62;
},
{
glyphname = question;
lastChange = "2026-05-31 18:55:43 +0000";
layers = (
{
hints = (
{
horizontal = 1;
place = (36, 177);
place = (36, 177);
type = Stem;
},
{
horizontal = 1;
place = (738, 72);
place = (738, 72);
type = Stem;
},
{
place = (84, 127);
place = (84, 127);
type = Stem;
},
{
place = (218, 74);
place = (218, 74);
type = Stem;
},
{
place = (344, 139);
place = (344, 139);
type = Stem;
},
{
place = (170, 178);
place = (170, 178);
type = Stem;
}
);
layerId = m01;
shapes = (
{
closed = 1;
nodes = (
(317,688,o),
(344,638,o),
(344,574,cs),
(344,429,o),
(218,415,o),
(218,269,cs),
(218,240,o),
(219,211,o),
(221,182,c),
(243,182,l),
(242,193,o),
(242,204,o),
(242,215,cs),
(242,376,o),
(433,398,o),
(433,563,cs),
(433,664,o),
(344,710,o),
(254,710,cs),
(190,710,o),
(84,676,o),
(84,593,cs),
(84,560,o),
(111,534,o),
(141,534,cs),
(152,534,o),
(163,538,o),
(174,545,c),
(137,605,o),
(181,688,o),
(250,688,cs)
);
},
{
closed = 1;
nodes = (
(291,75,o),
(266,100,o),
(234,100,cs),
(204,100,o),
(178,73,o),
(178,43,cs),
(178,12,o),
(205,-14,o),
(234,-14,cs),
(266,-14,o),
(291,12,o),
(291,42,cs)
);
}
);
width = 489;
}
);
note = question;
unicode = 63;
},
{
glyphname = at;
lastChange = "2024-09-17 20:07:25 +0000";
layers = (
{
layerId = m01;
shapes = (
{
closed = 1;
nodes = (
(511,386,o),
(467,279,o),
(457,256,cs),
(441,224,o),
(416,182,o),
(366,182,cs),
(308,182,o),
(292,241,o),
(292,282,cs),
(292,376,o),
(362,516,o),
(443,516,cs),
(489,516,o),
(511,478,o),
(511,449,cs)
);
},
{
closed = 1;
nodes = (
(548,529,l),
(529,466,l),
(514,536,o),
(454,540,o),
(432,540,cs),
(336,540,o),
(219,428,o),
(219,301,cs),
(219,224,o),
(275,158,o),
(355,158,cs),
(407,158,o),
(451,187,o),
(478,247,c),
(480,219,o),
(489,158,o),
(577,158,cs),
(689,158,o),
(792,297,o),
(792,434,cs),
(792,601,o),
(657,729,o),
(459,729,cs),
(228,729,o),
(41,553,o),
(41,340,cs),
(41,123,o),
(219,-14,o),
(426,-14,cs),
(575,-14,o),
(663,45,o),
(718,84,c),
(705,102,l),
(617,33,o),
(519,7,o),
(435,7,cs),
(212,7,o),
(68,152,o),
(68,338,cs),
(68,522,o),
(228,708,o),
(462,708,cs),
(659,708,o),
(772,580,o),
(772,433,cs),
(772,303,o),
(673,183,o),
(586,183,cs),
(555,183,o),
(528,199,o),
(528,239,cs),
(528,250,o),
(530,268,o),
(538,297,cs),
(606,529,l),
(606,529,l)
);
}
);
width = 833;
}
);
note = at;
unicode = 64;
},
{
glyphname = A;
lastChange = "2025-08-25 16:53:51 +0000";
layers = (
{
anchors = (
{
name = bottom;
pos = (301,0);
},
{
name = ogonek;
pos = (499,0);
},
{
name = top;
pos = (341,760);
}
);
hints = (
{
horizontal = 1;
place = (-8, 15);
place = (-8, 15);
type = Stem;
},
{
horizontal = 1;
place = (238, 19);
place = (238, 19);
type = Stem;
},
{
horizontal = 1;
place = (710, -20);
target = down;
type = TopGhost;
},
{
place = (-1, 669);
place = (-1, 669);
type = Stem;
},
{
place = (-1, 111);
place = (-1, 111);
type = Stem;
}
);
layerId = m01;
shapes = (
{
closed = 1;
nodes = (
(199,273,l),
(303,560,l),
(405,273,l)
);
},
{
closed = 1;
nodes = (
(489,38,o),
(479,23,o),
(408,23,c),
(408,0,l),
(676,0,l),
(676,23,l),
(610,23,o),
(600,43,o),
(557,161,cs),
(354,718,l),
(327,718,l),
(123,145,ls),
(83,34,o),
(70,23,o),
(-1,23,c),
(-1,0,l),
(199,0,l),
(199,23,l),
(128,23,o),
(112,45,o),
(154,155,cs),
(189,246,l),
(415,246,l),
(453,139,ls)
);
}
);
width = 675;
}
);
note = A;
unicode = 65;
},
{
glyphname = B;
lastChange = "2026-06-13 18:58:04 +0000";
layers = (
{
anchors = (
{
name = bottom;
pos = (301,0);
},
{
name = top;
pos = (301,760);
}
);
hints = (
{
horizontal = 1;
place = (-13, 10);
place = (-13, 10);
type = Stem;
},
{
horizontal = 1;
place = (343, 10);
place = (343, 10);
type = Stem;
},
{
horizontal = 1;
place = (667, 12);
place = (667, 12);
type = Stem;
},
{
place = (120, 87);
place = (120, 87);
type = Stem;
},
{
place = (470, 100);
place = (470, 100);
type = Stem;
},
{
place = (447, 92);
place = (447, 92);
type = Stem;
},
{
horizontal = 1;
place = (-10, 11);
place = (-10, 11);
type = Stem;
},
{
horizontal = 1;
place = (666, 12);
place = (666, 12);
type = Stem;
}
);
layerId = m01;
shapes = (
{
closed = 1;
nodes = (
(443,437,o),
(405,375,o),
(294,375,cs),
(269,375,o),
(244,376,o),
(218,379,c),
(218,675,l),
(241,676,o),
(270,678,o),
(290,678,cs),
(393,678,o),
(443,643,o),
(443,528,cs)
);
},
{
closed = 1;
nodes = (
(470,76,o),
(422,19,o),
(325,19,cs),
(287,19,o),
(253,21,o),
(220,32,c),
(219,60,o),
(218,84,o),
(218,113,cs),
(218,355,l),
(257,353,o),
(300,352,o),
(345,354,c),
(415,344,o),
(470,273,o),
(470,184,cs)
);
},
{
closed = 1;
nodes = (
(101,676,o),
(120,645,o),
(120,556,cs),
(120,143,ls),
(120,54,o),
(101,23,o),
(30,23,c),
(30,0,l),
(77,0,o),
(125,1,o),
(168,1,cs),
(206,1,o),
(306,-2,o),
(343,-2,cs),
(494,-2,o),
(581,58,o),
(581,196,cs),
(581,296,o),
(506,360,o),
(395,367,c),
(485,384,o),
(555,442,o),
(555,530,cs),
(555,643,o),
(467,701,o),
(343,701,cs),
(289,701,o),
(236,698,o),
(170,698,cs),
(116,698,o),
(72,700,o),
(30,700,c),
(30,676,l)
);
}
);
width = 631;
}
);
note = B;
unicode = 66;
},
{
glyphname = C;
lastChange = "2026-06-13 18:58:09 +0000";
layers = (
{
anchors = (
{
name = bottom;
pos = (359,0);
},
{
name = top;
pos = (360,760);
}
);
hints = (
{
horizontal = 1;
place = (22, 60);
place = (22, 60);
type = Stem;
},
{
horizontal = 1;
place = (725, 59);
place = (725, 59);
type = Stem;
},
{
place = (77, 151);
place = (77, 151);
type = Stem;
},
{
place = (583, 60);
place = (583, 60);
type = Stem;
},
{
place = (596, 60);
place = (596, 60);
type = Stem;
},
{
horizontal = 1;
place = (545, 223);
place = (545, 223);
type = Stem;
},
{
horizontal = 1;
place = (35, 21);
target = up;
type = BottomGhost;
}
);
layerId = m01;
shapes = (
{
closed = 1;
nodes = (
(559,200,l),
(539,44,o),
(465,12,o),
(379,12,cs),
(235,12,o),
(156,156,o),
(156,352,cs),
(156,568,o),
(233,690,o),
(367,690,cs),
(474,690,o),
(537,632,o),
(546,510,c),
(571,510,l),
(571,698,l),
(546,698,l),
(539,683,o),
(532,678,o),
(523,678,cs),
(498,678,o),
(447,714,o),
(360,714,cs),
(174,714,o),
(40,552,o),
(40,343,cs),
(40,149,o),
(168,-13,o),
(359,-13,cs),
(455,-13,o),
(508,27,o),
(532,27,cs),
(545,27,o),
(556,23,o),
(559,0,c),
(584,0,l),
(584,200,l)
);
}
);
width = 635;
}
);
note = C;
unicode = 67;
},
{
glyphname = D;
lastChange = "2026-06-13 18:58:25 +0000";
layers = (
{
anchors = (
{
name = bottom;
pos = (331,0);
},
{
name = top;
pos = (331,760);
}
);
hints = (
{
horizontal = 1;
place = (-6, 15);
place = (-6, 15);
type = Stem;
},
{
horizontal = 1;
place = (671, 15);
place = (671, 15);
type = Stem;
},
{
place = (120, 90);
place = (120, 90);
type = Stem;
},
{
place = (558, 103);
place = (558, 103);
type = Stem;
},
{
horizontal = 1;
place = (-9, 14);
place = (-9, 14);
type = Stem;
}
);
layerId = m01;
shapes = (
{
closed = 1;
nodes = (
(558,121,o),
(473,19,o),
(318,19,cs),
(282,19,o),
(248,24,o),
(217,32,c),
(217,673,l),
(250,676,o),
(279,678,o),
(309,678,cs),
(463,678,o),
(558,596,o),
(558,345,cs)
);
},
{
closed = 1;
nodes = (
(101,676,o),
(120,645,o),
(120,556,cs),
(120,143,ls),
(120,54,o),
(101,23,o),
(30,23,c),
(30,0,l),
(77,0,o),
(119,1,o),
(169,1,cs),
(213,1,o),
(260,-2,o),
(316,-2,cs),
(537,-2,o),
(668,134,o),
(668,347,cs),
(668,585,o),
(528,700,o),
(314,700,cs),
(244,700,o),
(208,698,o),
(149,698,cs),
(109,698,o),
(71,699,o),
(30,700,c),
(30,676,l)
);
}
);
width = 718;
}
);
note = D;
unicode = 68;
},
{
glyphname = E;
lastChange = "2026-06-13 19:00:10 +0000";
layers = (
{
anchors = (
{
name = bottom;
pos = (331,0);
},
{
name = ogonek;
pos = (489,0);
},
{
name = top;
pos = (331,760);
}
);
hints = (
{
horizontal = 1;
place = (-11, 12);
place = (-11, 12);
type = Stem;
},
{
horizontal = 1;
place = (335, 14);
place = (335, 14);
type = Stem;
},
{
horizontal = 1;
place = (666, 12);
place = (666, 12);
type = Stem;
},
{
place = (120, 85);
place = (120, 85);
type = Stem;
},
{
place = (402, 15);
place = (402, 15);
type = Stem;
},
{
place = (527, 14);
place = (527, 14);
type = Stem;
},
{
place = (557, 9);
place = (557, 9);
type = Stem;
}
);
layerId = m01;
shapes = (
{
closed = 1;
nodes = (
(30,0,l),
(577,0,l),
(577,223,l),
(551,223,l),
(544,74,o),
(473,23,o),
(313,23,cs),
(279,23,o),
(252,24,o),
(220,25,c),
(217,65,o),
(216,105,o),
(216,150,cs),
(216,346,l),
(263,346,ls),
(350,346,o),
(398,336,o),
(402,222,c),
(428,222,l),
(428,491,l),
(402,491,l),
(400,407,o),
(372,371,o),
(304,371,cs),
(216,371,l),
(216,677,l),
(416,671,o),
(510,693,o),
(527,507,c),
(553,507,l),
(552,572,o),
(552,636,o),
(552,700,c),
(30,700,l),
(30,676,l),
(101,676,o),
(120,645,o),
(120,556,cs),
(120,143,ls),
(120,54,o),
(101,23,o),
(30,23,c)
);
}
);
width = 621;
}
);
note = E;
unicode = 69;
},
{
glyphname = F;
lastChange = "2026-06-13 18:58:51 +0000";
layers = (
{
anchors = (
{
name = bottom;
pos = (313,0);
},
{
name = top;
pos = (313,760);
}
);
hints = (
{
horizontal = 1;
place = (-7, 16);
place = (-7, 16);
type = Stem;
},
{
horizontal = 1;
place = (337, 18);
place = (337, 18);
type = Stem;
},
{
horizontal = 1;
origin = (0,19);
place = (676, 16);
type = Stem;
},
{
place = (120, 90);
place = (120, 90);
type = Stem;
},
{
place = (402, 19);
place = (402, 19);
type = Stem;
},
{
place = (526, 20);
place = (526, 20);
type = Stem;
}
);
layerId = m01;
shapes = (
{
closed = 1;
nodes = (
(216,344,l),
(306,344,ls),
(363,344,o),
(400,310,o),
(402,220,c),
(428,220,l),
(428,489,l),
(402,489,l),
(400,400,o),
(368,369,o),
(297,369,cs),
(216,369,l),
(216,677,l),
(419,671,o),
(508,693,o),
(526,507,c),
(553,507,l),
(553,700,l),
(30,700,l),
(30,676,l),
(101,676,o),
(120,645,o),
(120,556,cs),
(120,143,ls),
(120,54,o),
(101,23,o),
(30,23,c),
(30,0,l),
(306,0,l),
(306,23,l),
(235,23,o),
(216,54,o),
(216,143,cs)
);
}
);
width = 578;
}
);
note = F;
unicode = 70;
},
{
glyphname = G;
lastChange = "2026-06-13 18:58:54 +0000";
layers = (
{
anchors = (
{
name = bottom;
pos = (361,0);
},
{
name = top;
pos = (375,760);
}
);
hints = (
{
horizontal = 1;
place = (11, 50);
place = (11, 50);
type = Stem;
},
{
horizontal = 1;
place = (280, 48);
place = (280, 48);
type = Stem;
},
{
horizontal = 1;
place = (714, 48);
place = (714, 48);
type = Stem;
},
{
place = (77, 139);
place = (77, 139);
type = Stem;
},
{
place = (598, 49);
place = (598, 49);
type = Stem;
},
{
horizontal = 1;
place = (534, 212);
place = (534, 212);
type = Stem;
},
{
place = (542, 118);
place = (542, 118);
type = Stem;
}
);
layerId = m01;
shapes = (
{
closed = 1;
nodes = (
(609,31,l),
(594,34,o),
(581,35,o),
(570,35,cs),
(545,35,o),
(525,29,o),
(498,18,cs),
(465,5,o),
(420,-13,o),
(360,-13,cs),
(181,-13,o),
(50,139,o),
(50,348,cs),
(52,548,o),
(188,714,o),
(375,714,cs),
(467,714,o),
(518,678,o),
(545,678,cs),
(555,678,o),
(566,682,o),
(571,698,c),
(596,698,l),
(596,510,l),
(571,510,l),
(562,632,o),
(480,690,o),
(382,690,cs),
(228,690,o),
(165,564,o),
(165,348,cs),
(165,144,o),
(240,13,o),
(366,13,cs),
(454,13,o),
(515,48,o),
(515,151,cs),
(515,171,ls),
(515,234,o),
(493,256,o),
(413,256,c),
(413,280,l),
(664,280,l),
(664,256,l),
(622,256,o),
(609,247,o),
(609,183,cs)
);
}
);
width = 686;
}
);
note = G;
unicode = 71;
},
{
glyphname = H;
lastChange = "2025-08-25 15:59:03 +0000";
layers = (
{
anchors = (
{
name = bottom;
pos = (368,0);
},
{
name = top;
pos = (368,760);
}
);
hints = (
{
horizontal = 1;
place = (-7, 16);
place = (-7, 16);
type = Stem;
},
{
horizontal = 1;
place = (341, 19);
place = (341, 19);
type = Stem;
},
{
horizontal = 1;
origin = (0,30);
place = (676, 16);
type = Stem;
},
{
place = (120, 90);
place = (120, 90);
type = Stem;
},
{
place = (512, 90);
place = (512, 90);
type = Stem;
}
);
layerId = m01;
shapes = (
{
closed = 1;
nodes = (
(216,348,l),
(512,348,l),
(512,143,ls),
(512,54,o),
(493,23,o),
(422,23,c),
(422,0,l),
(699,0,l),
(699,23,l),
(628,23,o),
(609,54,o),
(609,143,cs),
(609,556,ls),
(609,645,o),
(628,676,o),
(699,676,c),
(699,700,l),
(422,700,l),
(422,676,l),
(493,676,o),
(512,645,o),
(512,556,cs),
(512,374,l),
(216,374,l),
(216,556,l),
(216,645,o),
(235,676,o),
(306,676,c),
(306,700,l),
(30,700,l),
(30,676,l),
(101,676,o),
(120,645,o),
(120,556,cs),
(120,143,ls),
(120,54,o),
(101,23,o),
(30,23,c),
(30,0,l),
(306,0,l),
(306,23,l),
(235,23,o),
(216,54,o),
(216,143,cs)
);
}
);
width = 729;
}
);
note = H;
unicode = 72;
},
{
glyphname = I;
lastChange = "2025-08-25 15:55:08 +0000";
layers = (
{
anchors = (
{
name = bottom;
pos = (175,0);
},
{
name = ogonek;
pos = (229,0);
},
{
name = top;
pos = (174,760);
}
);
hints = (
{
horizontal = 1;
place = (-7, 16);
place = (-7, 16);
type = Stem;
},
{
horizontal = 1;
place = (670, 16);
place = (670, 16);
type = Stem;
},
{
place = (123, 95);
place = (123, 95);
type = Stem;
}
);
layerId = m01;
shapes = (
{
closed = 1;
nodes = (
(104,676,o),
(123,645,o),
(123,556,cs),
(123,143,ls),
(123,54,o),
(104,23,o),
(33,23,c),
(33,0,l),
(314,0,l),
(314,23,l),
(243,23,o),
(224,54,o),
(224,143,cs),
(224,556,ls),
(224,645,o),
(243,676,o),
(314,676,c),
(314,700,l),
(33,700,l),
(33,676,l)
);
}
);
width = 347;
}
);
note = I;
unicode = 73;
},
{
glyphname = J;
lastChange = "2025-08-25 16:51:55 +0000";
layers = (
{
anchors = (
{
name = bottom;
pos = (142,-118);
},
{
name = top;
pos = (260,760);
}
);
hints = (
{
horizontal = 1;
place = (-79, 63);
place = (-79, 63);
type = Stem;
},
{
horizontal = 1;
place = (716, 62);
place = (716, 62);
type = Stem;
},
{
place = (14, 118);
place = (14, 118);
type = Stem;
},
{
place = (204, 140);
place = (204, 140);
type = Stem;
}
);
layerId = m01;
shapes = (
{
closed = 1;
nodes = (
(204,46,ls),
(204,-57,o),
(194,-94,o),
(146,-94,cs),
(88,-94,o),
(74,-26,o),
(120,27,c),
(106,40,o),
(90,46,o),
(75,46,cs),
(42,46,o),
(14,19,o),
(14,-18,cs),
(14,-89,o),
(88,-118,o),
(140,-118,cs),
(242,-118,o),
(305,-38,o),
(305,87,cs),
(305,556,ls),
(305,645,o),
(324,676,o),
(395,676,c),
(395,700,l),
(114,700,l),
(114,676,l),
(185,676,o),
(204,645,o),
(204,556,cs)
);
}
);
width = 418;
}
);
note = J;
unicode = 74;
},
{
glyphname = K;
lastChange = "2025-09-02 18:04:37 +0000";
layers = (
{
anchors = (
{
name = bottom;
pos = (366,0);
},
{
name = top;
pos = (366,760);
}
);
hints = (
{
horizontal = 1;
place = (-1, 22);
place = (-1, 22);
type = Stem;
},
{
horizontal = 1;
place = (676, 22);
place = (676, 22);
type = Stem;
},
{
place = (119, 98);
place = (119, 98);
type = Stem;
}
);
layerId = m01;
shapes = (
{
closed = 1;
nodes = (
(217,271,l),
(301,368,l),
(483,71,ls),
(501,42,o),
(489,23,o),
(430,23,c),
(430,0,l),
(714,0,l),
(714,23,l),
(638,23,o),
(621,43,o),
(595,84,cs),
(572,121,ls),
(504,230,o),
(438,341,o),
(371,451,c),
(485,584,l),
(551,667,o),
(567,676,o),
(647,676,c),
(647,700,l),
(429,700,l),
(429,676,l),
(495,676,o),
(507,649,o),
(469,604,cs),
(218,312,l),
(218,556,ls),
(218,645,o),
(236,676,o),
(307,676,c),
(307,700,l),
(30,700,l),
(30,676,l),
(101,676,o),
(119,645,o),
(119,556,cs),
(119,143,ls),
(119,54,o),
(101,23,o),
(30,23,c),
(30,0,l),
(306,0,l),
(306,23,l),
(235,23,o),
(217,54,o),
(217,143,cs)
);
}
);
width = 707;
}
);
note = K;
unicode = 75;
},
{
glyphname = L;
lastChange = "2025-08-25 15:45:22 +0000";
layers = (
{
anchors = (
{
name = bottom;
pos = (301,0);
},
{
name = caron;
pos = (446,485);
},
{
name = top;
pos = (331,760);
}
);
hints = (
{
horizontal = 1;
place = (-7, 16);
place = (-7, 16);
type = Stem;
},
{
horizontal = 1;
place = (670, 16);
place = (670, 16);
type = Stem;
},
{
place = (120, 90);
place = (120, 90);
type = Stem;
},
{
place = (540, 16);
place = (540, 16);
type = Stem;
}
);
layerId = m01;
shapes = (
{
closed = 1;
nodes = (
(217,104,ls),
(217,76,o),
(218,50,o),
(219,26,c),
(250,24,o),
(269,23,o),
(303,23,cs),
(316,23,o),
(342,23,o),
(355,24,cs),
(471,33,o),
(532,98,o),
(540,222,c),
(566,222,l),
(560,0,l),
(30,0,l),
(30,22,l),
(101,22,o),
(120,53,o),
(120,142,cs),
(120,555,ls),
(120,644,o),
(101,675,o),
(30,675,c),
(30,700,l),
(307,700,l),
(307,675,l),
(236,675,o),
(217,644,o),
(217,555,cs)
);
}
);
width = 610;
}
);
note = L;
unicode = 76;
},
{
glyphname = M;
lastChange = "2025-08-25 16:04:25 +0000";
layers = (
{
anchors = (
{
name = bottom;
pos = (374,0);
},
{
name = top;
pos = (411,760);
}
);
hints = (
{
horizontal = 1;
place = (-17, 6);
place = (-17, 6);
type = Stem;
},
{
horizontal = 1;
place = (660, 6);
place = (660, 6);
type = Stem;
},
{
place = (118, 8);
place = (118, 8);
type = Stem;
},
{
place = (611, 81);
place = (611, 81);
type = Stem;
}
);
layerId = m01;
shapes = (
{
closed = 1;
nodes = (
(118,143,ls),
(118,54,o),
(97,23,o),
(26,23,c),
(26,0,l),
(234,0,l),
(234,23,l),
(163,23,o),
(143,54,o),
(143,143,cs),
(143,624,l),
(366,3,l),
(382,3,l),
(611,644,l),
(611,143,ls),
(611,54,o),
(592,23,o),
(521,23,c),
(521,0,l),
(798,0,l),
(798,23,l),
(727,23,o),
(708,54,o),
(708,143,cs),
(708,556,ls),
(708,645,o),
(727,676,o),
(799,676,c),
(799,700,l),
(606,700,l),
(413,170,l),
(222,700,l),
(29,700,l),
(29,676,l),
(101,676,o),
(118,645,o),
(118,556,cs)
);
}
);
width = 825;
}
);
note = M;
unicode = 77;
},
{
glyphname = N;
lastChange = "2025-08-25 16:51:01 +0000";
layers = (
{
anchors = (
{
name = bottom;
pos = (328,0);
},
{
name = top;
pos = (335,760);
}
);
hints = (
{
horizontal = 1;
place = (-12, 11);
place = (-12, 11);
type = Stem;
},
{
horizontal = 1;
place = (665, 11);
place = (665, 11);
type = Stem;
},
{
place = (113, 13);
place = (113, 13);
type = Stem;
},
{
place = (550, 13);
place = (550, 13);
type = Stem;
},
{
horizontal = 1;
place = (-24, 21);
target = up;
type = BottomGhost;
}
);
layerId = m01;
shapes = (
{
closed = 1;
nodes = (
(550,180,l),
(213,700,l),
(25,700,l),
(25,676,l),
(97,676,o),
(113,645,o),
(113,556,cs),
(113,143,ls),
(113,54,o),
(92,23,o),
(21,23,c),
(21,0,l),
(229,0,l),
(229,23,l),
(158,23,o),
(138,54,o),
(138,143,cs),
(138,635,l),
(554,-12,l),
(575,-12,l),
(575,557,ls),
(575,646,o),
(595,677,o),
(666,677,c),
(666,700,l),
(458,700,l),
(458,677,l),
(529,677,o),
(550,646,o),
(550,557,cs)
);
}
);
width = 688;
}
);
note = N;
unicode = 78;
},
{
glyphname = O;
lastChange = "2026-06-13 18:54:21 +0000";
layers = (
{
anchors = (
{
name = bottom;
pos = (416,0);
},
{
name = top;
pos = (416,760);
}
);
hints = (
{
horizontal = 1;
place = (2, 40);
place = (2, 40);
type = Stem;
},
{
horizontal = 1;
place = (705, 39);
place = (705, 39);
type = Stem;
},
{
place = (68, 130);
place = (68, 130);
type = Stem;
},
{
place = (635, 130);
place = (635, 130);
type = Stem;
}
);
layerId = m01;
shapes = (
{
closed = 1;
nodes = (
(765,556,o),
(608,714,o),
(426,714,cs),
(217,714,o),
(53,556,o),
(53,343,cs),
(53,138,o),
(210,-13,o),
(399,-13,cs),
(605,-13,o),
(765,149,o),
(765,363,cs)
);
},
{
closed = 1;
nodes = (
(650,114,o),
(574,12,o),
(433,12,cs),
(281,12,o),
(168,128,o),
(168,386,cs),
(168,586,o),
(248,690,o),
(406,690,cs),
(553,690,o),
(650,553,o),
(650,327,cs)
);
}
);
width = 818;
}
);
note = O;
unicode = 79;
},
{
glyphname = P;
lastChange = "2026-06-13 18:56:20 +0000";
layers = (
{
anchors = (
{
name = bottom;
pos = (291,0);
},
{
name = top;
pos = (297,760);
}
);
hints = (
{
horizontal = 1;
place = (-2, 21);
place = (-2, 21);
type = Stem;
},
{
horizontal = 1;
place = (308, 21);
place = (308, 21);
type = Stem;
},
{
horizontal = 1;
place = (676, 21);
place = (676, 21);
type = Stem;
},
{
place = (120, 95);
place = (120, 95);
type = Stem;
},
{
place = (451, 106);
place = (451, 106);
type = Stem;
},
{
horizontal = 1;
place = (675, 21);
place = (675, 21);
type = Stem;
}
);
layerId = m01;
shapes = (
{
closed = 1;
nodes = (
(451,397,o),
(402,333,o),
(294,333,cs),
(268,333,o),
(246,334,o),
(217,337,c),
(217,676,l),
(237,677,o),
(257,678,o),
(278,678,cs),
(410,678,o),
(449,628,o),
(451,501,cs)
);
},
{
closed = 1;
nodes = (
(217,313,l),
(243,311,o),
(267,310,o),
(292,310,cs),
(448,310,o),
(559,378,o),
(559,508,cs),
(559,630,o),
(464,701,o),
(317,701,cs),
(265,701,o),
(220,700,o),
(173,700,cs),
(30,700,l),
(30,676,l),
(101,676,o),
(120,645,o),
(120,556,cs),
(120,143,ls),
(120,54,o),
(101,23,o),
(30,23,c),
(30,0,l),
(307,0,l),
(307,23,l),
(236,23,o),
(217,54,o),
(217,143,cs)
);
}
);
width = 599;
}
);
note = P;
unicode = 80;
},
{
glyphname = Q;
lastChange = "2026-06-13 18:58:18 +0000";
layers = (
{
anchors = (
{
name = bottom;
pos = (414,-217);
},
{
name = top;
pos = (415,760);
}
);
hints = (
{
horizontal = 1;
place = (-202, 61);
place = (-202, 61);
type = Stem;
},
{
horizontal = 1;
place = (-100, 67);
place = (-100, 67);
type = Stem;
},
{
horizontal = 1;
place = (2, 40);
place = (2, 40);
type = Stem;
},
{
horizontal = 1;
place = (705, 39);
place = (705, 39);
type = Stem;
},
{
place = (68, 130);
place = (68, 130);
type = Stem;
},
{
place = (619, 59);
place = (619, 59);
type = Stem;
},
{
place = (635, 130);
place = (635, 130);
type = Stem;
}
);
layerId = m01;
shapes = (
{
closed = 1;
nodes = (
(469,-195,ls),
(492,-210,o),
(519,-217,o),
(544,-217,cs),
(576,-217,o),
(607,-205,o),
(626,-185,cs),
(659,-154,o),
(683,-90,o),
(648,-54,cs),
(636,-42,o),
(619,-35,o),
(603,-35,cs),
(580,-35,o),
(558,-50,o),
(553,-85,c),
(622,-97,o),
(626,-150,o),
(617,-162,cs),
(612,-168,o),
(606,-171,o),
(599,-171,cs),
(584,-171,o),
(562,-158,o),
(529,-137,cs),
(438,-79,ls),
(422,-69,o),
(405,-63,o),
(386,-63,cs),
(373,-63,o),
(359,-65,o),
(343,-71,c),
(356,-61,o),
(363,-56,o),
(390,-43,cs),
(427,-25,o),
(463,-13,o),
(506,1,cs),
(662,55,o),
(762,199,o),
(762,363,cs),
(762,556,o),
(605,714,o),
(423,714,cs),
(214,714,o),
(50,556,o),
(50,343,cs),
(50,138,o),
(207,-13,o),
(396,-13,cs),
(405,-13,o),
(416,-13,o),
(435,-9,c),
(408,-20,o),
(386,-28,o),
(367,-37,cs),
(316,-60,o),
(279,-95,o),
(258,-126,c),
(275,-139,l),
(292,-122,o),
(307,-115,o),
(321,-115,cs),
(339,-115,o),
(356,-124,o),
(375,-136,cs)
);
},
{
closed = 1;
nodes = (
(647,114,o),
(571,12,o),
(430,12,cs),
(278,12,o),
(165,128,o),
(165,386,cs),
(165,586,o),
(245,690,o),
(403,690,cs),
(550,690,o),
(647,553,o),
(647,327,cs)
);
}
);
width = 812;
}
);
note = Q;
unicode = 81;
},
{
glyphname = R;
lastChange = "2025-09-21 17:56:22 +0000";
layers = (
{
anchors = (
{
name = bottom;
pos = (306,0);
},
{
name = top;
pos = (296,760);
}
);
hints = (
{
horizontal = 1;
place = (-15, 23);
place = (-15, 23);
type = Stem;
},
{
horizontal = 1;
place = (336, 20);
place = (336, 20);
type = Stem;
},
{
horizontal = 1;
place = (676, 20);
place = (676, 20);
type = Stem;
},
{
place = (120, 95);
place = (120, 95);
type = Stem;
},
{
place = (415, 109);
place = (415, 109);
type = Stem;
},
{
horizontal = 1;
place = (-2, 21);
place = (-2, 21);
type = Stem;
},
{
place = (449, 104);
place = (449, 104);
type = Stem;
},
{
horizontal = 1;
place = (674, 21);
place = (674, 21);
type = Stem;
}
);
layerId = m01;
shapes = (
{
closed = 1;
nodes = (
(449,415,o),
(412,360,o),
(307,360,cs),
(277,360,o),
(248,361,o),
(217,363,c),
(218,676,l),
(246,677,o),
(275,678,o),
(301,678,cs),
(392,678,o),
(448,635,o),
(449,521,cs)
);
},
{
closed = 1;
nodes = (
(217,338,l),
(262,338,ls),
(345,338,o),
(404,298,o),
(414,188,cs),
(417,154,ls),
(425,58,o),
(457,-13,o),
(560,-13,cs),
(595,-13,o),
(613,-6,o),
(634,3,c),
(626,23,l),
(612,16,o),
(600,12,o),
(588,12,cs),
(545,12,o),
(539,87,o),
(530,140,cs),
(523,183,ls),
(506,289,o),
(446,319,o),
(376,344,c),
(485,358,o),
(555,426,o),
(555,524,cs),
(555,650,o),
(450,700,o),
(288,700,cs),
(243,700,o),
(210,699,o),
(169,699,cs),
(30,700,l),
(30,676,l),
(101,676,o),
(120,645,o),
(120,556,cs),
(120,143,ls),
(120,54,o),
(101,23,o),
(30,23,c),
(30,0,l),
(307,0,l),
(307,23,l),
(236,23,o),
(217,54,o),
(217,143,cs)
);
}
);
width = 635;
}
);
note = R;
unicode = 82;
},
{
glyphname = S;
lastChange = "2026-06-13 18:56:16 +0000";
layers = (
{
anchors = (
{
name = bottom;
pos = (258,0);
},
{
name = top;
pos = (258,760);
}
);
hints = (
{
horizontal = 1;
place = (23, 61);
place = (23, 61);
type = Stem;
},
{
horizontal = 1;
place = (726, 60);
place = (726, 60);
type = Stem;
},
{
place = (75, 61);
place = (75, 61);
type = Stem;
},
{
place = (457, 61);
place = (457, 61);
type = Stem;
},
{
place = (78, 120);
place = (78, 120);
type = Stem;
},
{
horizontal = 1;
place = (546, 224);
place = (546, 224);
type = Stem;
},
{
place = (437, 123);
place = (437, 123);
type = Stem;
},
{
horizontal = 1;
place = (36, 21);
target = up;
type = BottomGhost;
}
);
layerId = m01;
shapes = (
{
closed = 1;
nodes = (
(363,690,o),
(418,632,o),
(427,510,c),
(452,510,l),
(452,698,l),
(427,698,l),
(420,683,o),
(416,678,o),
(404,678,cs),
(379,678,o),
(341,714,o),
(258,714,cs),
(136,714,o),
(48,640,o),
(48,526,cs),
(48,414,o),
(155,366,o),
(270,325,cs),
(372,287,o),
(407,231,o),
(407,161,cs),
(405,81,o),
(342,12,o),
(250,12,cs),
(164,12,o),
(90,44,o),
(70,200,c),
(45,200,l),
(45,0,l),
(70,0,l),
(73,23,o),
(84,27,o),
(97,27,cs),
(121,27,o),
(164,-13,o),
(260,-13,cs),
(401,-13,o),
(494,75,o),
(494,188,cs),
(494,309,o),
(400,354,o),
(278,399,cs),
(187,433,o),
(132,465,o),
(132,545,cs),
(132,627,o),
(178,690,o),
(265,690,cs)
);
}
);
width = 539;
}
);
note = S;
unicode = 83;
},
{
glyphname = T;
lastChange = "2026-04-25 15:38:10 +0000";
layers = (
{
anchors = (
{
name = bottom;
pos = (335,0);
},
{
name = top;
pos = (329,760);
}
);
hints = (
{
horizontal = 1;
place = (10, 33);
place = (10, 33);
type = Stem;
},
{
horizontal = 1;
place = (686, 34);
place = (686, 34);
type = Stem;
},
{
place = (38, 34);
place = (38, 34);
type = Stem;
},
{
place = (280, 108);
place = (280, 108);
type = Stem;
},
{
place = (596, 34);
place = (596, 34);
type = Stem;
}
);
layerId = m01;
shapes = (
{
closed = 1;
nodes = (
(378,677,l),
(379,677,l),
(433,675,ls),
(538,671,o),
(584,628,o),
(596,504,c),
(621,504,l),
(620,700,l),
(39,700,l),
(38,504,l),
(63,504,l),
(75,628,o),
(121,671,o),
(226,675,cs),
(280,677,l),
(280,143,ls),
(280,54,o),
(261,23,o),
(190,23,c),
(190,0,l),
(468,0,l),
(468,23,l),
(397,23,o),
(378,54,o),
(378,143,cs)
);
}
);
width = 659;
}
);
note = T;
unicode = 84;
},
{
glyphname = U;
lastChange = "2025-08-25 17:15:11 +0000";
layers = (
{
anchors = (
{
name = bottom;
pos = (368,0);
},
{
name = ogonek;
pos = (429,0);
},
{
name = top;
pos = (387,760);
}
);
hints = (
{
horizontal = 1;
place = (-21, 16);
place = (-21, 16);
type = Stem;
},
{
horizontal = 1;
place = (669, 17);
place = (669, 17);
type = Stem;
},
{
place = (110, 90);
place = (110, 90);
type = Stem;
},
{
place = (571, 18);
place = (571, 18);
type = Stem;
}
);
layerId = m01;
shapes = (
{
closed = 1;
nodes = (
(571,250,ls),
(571,94,o),
(503,9,o),
(374,9,cs),
(247,9,o),
(207,110,o),
(207,227,cs),
(207,557,ls),
(207,646,o),
(226,677,o),
(297,677,c),
(297,700,l),
(21,700,l),
(21,677,l),
(92,677,o),
(110,646,o),
(110,557,cs),
(110,229,ls),
(110,87,o),
(204,-14,o),
(354,-14,cs),
(540,-14,o),
(596,86,o),
(596,287,cs),
(596,557,ls),
(596,646,o),
(615,677,o),
(686,677,c),
(686,700,l),
(482,700,l),
(482,677,l),
(553,677,o),
(571,646,o),
(571,557,cs)
);
}
);
width = 707;
}
);
note = U;
unicode = 85;
},
{
glyphname = V;
lastChange = "2025-08-25 17:17:20 +0000";
layers = (
{
anchors = (
{
name = bottom;
pos = (323,0);
},
{
name = top;
pos = (361,760);
}
);
hints = (
{
horizontal = 1;
place = (-24, 21);
target = up;
type = BottomGhost;
},
{
horizontal = 1;
place = (667, 13);
place = (667, 13);
type = Stem;
},
{
place = (-12, 674);
place = (-12, 674);
type = Stem;
},
{
place = (550, 112);
place = (550, 112);
type = Stem;
}
);
layerId = m01;
shapes = (
{
closed = 1;
nodes = (
(364,137,l),
(212,561,ls),
(175,663,o),
(186,677,o),
(257,677,c),
(257,700,l),
(-12,700,l),
(-12,677,l),
(54,677,o),
(68,657,o),
(110,539,cs),
(309,-14,l),
(340,-14,l),
(547,555,ls),
(587,666,o),
(601,677,o),
(672,677,c),
(672,700,l),
(470,700,l),
(470,677,l),
(541,677,o),
(552,655,o),
(513,544,cs)
);
}
);
width = 660;
}
);
note = V;
unicode = 86;
},
{
glyphname = W;
lastChange = "2025-08-25 17:19:23 +0000";
layers = (
{
anchors = (
{
name = bottom;
pos = (480,0);
},
{
name = top;
pos = (519,760);
}
);
hints = (
{
horizontal = 1;
place = (-14, 21);
target = up;
type = BottomGhost;
},
{
horizontal = 1;
place = (666, 13);
place = (666, 13);
type = Stem;
},
{
place = (-10, 978);
place = (-10, 978);
type = Stem;
}
);
layerId = m01;
shapes = (
{
closed = 1;
nodes = (
(178,676,o),
(183,677,o),
(254,677,c),
(254,700,l),
(-10,700,l),
(-10,677,l),
(56,677,o),
(68,659,o),
(103,539,cs),
(263,-4,l),
(294,-4,l),
(480,525,l),
(654,-4,l),
(685,-4,l),
(857,559,ls),
(891,672,o),
(907,677,o),
(978,677,c),
(978,700,l),
(774,700,l),
(774,677,l),
(845,677,o),
(859,675,o),
(825,562,cs),
(706,168,l),
(535,677,l),
(502,677,l),
(321,161,l),
(207,571,ls)
);
}
);
width = 968;
}
);
note = W;
unicode = 87;
},
{
glyphname = X;
lastChange = "2025-09-03 17:38:37 +0000";
layers = (
{
anchors = (
{
name = bottom;
pos = (341,0);
},
{
name = top;
pos = (391,760);
}
);
hints = (
{
horizontal = 1;
place = (22, 45);
place = (22, 45);
type = Stem;
},
{
horizontal = 1;
place = (699, 45);
place = (699, 45);
type = Stem;
},
{
place = (28, 715);
place = (28, 715);
type = Stem;
}
);
layerId = m01;
shapes = (
{
closed = 1;
nodes = (
(328,336,l),
(198,539,ls),
(132,641,o),
(118,677,o),
(40,677,c),
(40,700,l),
(315,700,l),
(315,677,l),
(244,677,o),
(234,666,o),
(297,574,c),
(394,419,l),
(480,544,ls),
(540,631,o),
(574,676,o),
(471,676,c),
(471,700,l),
(683,700,l),
(683,676,l),
(603,676,o),
(586,649,o),
(526,563,cs),
(410,397,l),
(563,161,ls),
(629,59,o),
(643,23,o),
(721,23,c),
(721,0,l),
(446,0,l),
(446,23,l),
(517,23,o),
(525,32,o),
(464,126,cs),
(342,314,l),
(234,156,ls),
(174,69,o),
(140,24,o),
(243,24,c),
(243,0,l),
(31,0,l),
(31,24,l),
(111,24,o),
(128,51,o),
(188,137,cs)
);
}
);
width = 749;
}
);
note = X;
unicode = 88;
},
{
glyphname = Y;
lastChange = "2025-08-25 16:56:49 +0000";
layers = (
{
anchors = (
{
name = bottom;
pos = (326,0);
},
{
name = top;
pos = (354,760);
}
);
hints = (
{
horizontal = 1;
place = (1, 24);
place = (1, 24);
type = Stem;
},
{
horizontal = 1;
place = (678, 24);
place = (678, 24);
type = Stem;
},
{
place = (278, 100);
place = (278, 100);
type = Stem;
},
{
place = (436, 204);
place = (436, 204);
type = Stem;
}
);
layerId = m01;
shapes = (
{
closed = 1;
nodes = (
(361,314,l),
(226,592,ls),
(196,655,o),
(200,677,o),
(265,677,c),
(265,700,l),
(-2,700,l),
(-2,677,l),
(68,677,o),
(77,666,o),
(142,543,cs),
(278,288,l),
(278,143,ls),
(278,54,o),
(260,23,o),
(189,23,c),
(189,0,l),
(468,0,l),
(468,23,l),
(397,23,o),
(377,54,o),
(377,143,cs),
(377,296,l),
(520,592,l),
(553,660,o),
(559,676,o),
(639,676,c),
(639,700,l),
(436,700,l),
(436,676,l),
(502,676,o),
(529,666,o),
(501,608,cs)
);
}
);
width = 637;
}
);
note = Y;
unicode = 89;
},
{
glyphname = Z;
lastChange = "2025-08-25 15:50:15 +0000";
layers = (
{
anchors = (
{
name = bottom;
pos = (334,0);
},
{
name = top;
pos = (334,760);
}
);
hints = (
{
horizontal = 1;
place = (12, 35);
place = (12, 35);
type = Stem;
},
{
horizontal = 1;
place = (687, 36);
place = (687, 36);
type = Stem;
},
{
place = (82, 35);
place = (82, 35);
type = Stem;
},
{
place = (568, 36);
place = (568, 36);
type = Stem;
}
);
layerId = m01;
shapes = (
{
closed = 1;
nodes = (
(570,223,l),
(560,52,o),
(446,23,o),
(302,23,cs),
(259,23,o),
(216,22,o),
(173,23,c),
(573,700,l),
(83,700,l),
(82,506,l),
(108,506,l),
(117,619,o),
(161,672,o),
(293,675,cs),
(345,676,o),
(396,677,o),
(448,676,c),
(45,0,l),
(589,0,l),
(596,223,l)
);
}
);
width = 646;
}
);
note = Z;
unicode = 90;
},
{
glyphname = bracketleft;
lastChange = "2024-09-08 20:42:52 +0000";
layers = (
{
hints = (
{
horizontal = 1;
place = (-129, 58);
place = (-129, 58);
type = Stem;
},
{
horizontal = 1;
place = (725, 59);
place = (725, 59);
type = Stem;
},
{
place = (122, 112);
place = (122, 112);
type = Stem;
}
);
layerId = m01;
shapes = (
{
closed = 1;
nodes = (
(316,-137,l),
(201,-137,l),
(201,692,l),
(316,692,l),
(316,718,l),
(122,718,l),
(122,-162,l),
(316,-162,l)
);
}
);
width = 347;
}
);
note = bracketleft;
unicode = 91;
},
{
glyphname = backslash;
lastChange = "2024-09-08 20:42:52 +0000";
layers = (
{
hints = (
{
horizontal = 1;
place = (662, -20);
target = down;
type = TopGhost;
},
{
place = (3, 323);
place = (3, 323);
type = Stem;
}
);
layerId = m01;
shapes = (
{
closed = 1;
nodes = (
(3,705,l),
(325,-26,l),
(369,-26,l),
(47,705,l)
);
}
);
width = 372;
}
);
note = backslash;
unicode = 92;
},
{
glyphname = bracketright;
lastChange = "2024-09-08 20:42:52 +0000";
layers = (
{
hints = (
{
horizontal = 1;
place = (-159, 27);
place = (-159, 27);
type = Stem;
},
{
horizontal = 1;
place = (695, 29);
place = (695, 29);
type = Stem;
},
{
place = (146, 82);
place = (146, 82);
type = Stem;
}
);
layerId = m01;
shapes = (
{
closed = 1;
nodes = (
(225,718,l),
(31,718,l),
(31,692,l),
(146,692,l),
(146,-138,l),
(31,-138,l),
(31,-162,l),
(225,-162,l)
);
}
);
width = 347;
}
);
note = bracketright;
unicode = 93;
},
{
glyphname = asciicircum;
lastChange = "2024-09-17 20:07:25 +0000";
layers = (
{
anchors = (
{
name = _top;
pos = (263,504);
}
);
layerId = m01;
shapes = (
{
closed = 1;
nodes = (
(239,790,o),
(230,773,o),
(220,751,c),
(119,509,l),
(143,509,l),
(265,754,l),
(385,509,l),
(408,509,l),
(307,751,l),
(297,773,o),
(289,790,o),
(264,790,cs)
);
}
);
width = 528;
}
);
note = asciicircum;
unicode = 94;
},
{
glyphname = underscore;
lastChange = "2024-09-22 10:58:09 +0000";
layers = (
{
layerId = m01;
shapes = (
{
closed = 1;
nodes = (
(545,-98,l),
(0,-98,l),
(0,-127,l),
(545,-127,l)
);
}
);
width = 545;
}
);
note = underscore;
unicode = 95;
},
{
glyphname = grave;
lastChange = "2025-07-26 13:09:30 +0000";
layers = (
{
hints = (
{
horizontal = 1;
place = (433, 63);
place = (433, 63);
type = Stem;
},
{
place = (-46, 128);
place = (-46, 128);
type = Stem;
}
);
layerId = m01;
shapes = (
{
closed = 1;
nodes = (
(47,730,l),
(33,730,o),
(30,717,o),
(42,707,c),
(176,590,l),
(217,590,l),
(105,730,l)
);
}
);
width = 253;
}
);
note = grave;
unicode = 96;
},
{
glyphname = a;
lastChange = "2025-09-25 14:58:56 +0000";
layers = (
{
anchors = (
{
name = bottom;
pos = (164,0);
},
{
name = ogonek;
pos = (403,0);
},
{
name = top;
pos = (236,500);
}
);
hints = (
{
horizontal = 1;
place = (-3, 45);
place = (-3, 45);
type = Stem;
},
{
horizontal = 1;
place = (449, 30);
place = (449, 30);
type = Stem;
},
{
place = (41, 98);
place = (41, 98);
type = Stem;
},
{
place = (310, 93);
place = (310, 93);
type = Stem;
},
{
horizontal = 1;
place = (-5, 48);
place = (-5, 48);
type = Stem;
},
{
place = (85, 83);
place = (85, 83);
type = Stem;
}
);
layerId = m01;
shapes = (
{
closed = 1;
nodes = (
(299,442,o),
(310,402,o),
(310,299,cs),
(310,276,l),
(196,244,o),
(41,235,o),
(41,102,cs),
(41,32,o),
(91,-10,o),
(162,-10,cs),
(217,-10,o),
(268,20,o),
(310,77,c),
(310,10,o),
(334,-12,o),
(375,-12,cs),
(411,-12,o),
(432,3,o),
(457,42,c),
(440,54,l),
(426,34,o),
(420,29,o),
(411,29,cs),
(404,29,o),
(396,32,o),
(396,52,cs),
(396,307,ls),
(396,414,o),
(344,465,o),
(236,465,cs),
(181,465,o),
(81,443,o),
(81,363,cs),
(81,330,o),
(108,304,o),
(142,304,cs),
(153,304,o),
(164,308,o),
(175,315,c),
(138,375,o),
(178,442,o),
(238,442,cs)
);
},
{
closed = 1;
nodes = (
(310,115,l),
(286,67,o),
(243,29,o),
(201,30,cs),
(165,31,o),
(132,51,o),
(132,111,cs),
(132,214,o),
(225,230,o),
(310,250,c)
);
}
);
width = 460;
}
);
note = a;
unicode = 97;
},
{
glyphname = b;
lastChange = "2025-09-02 17:55:43 +0000";
layers = (
{
hints = (
{
horizontal = 1;
place = (12, 44);
place = (12, 44);
type = Stem;
},
{
horizontal = 1;
place = (464, 45);
place = (464, 45);
type = Stem;
},
{
horizontal = 1;
place = (705, 51);
place = (705, 51);
type = Stem;
},
{
place = (104, 110);
place = (104, 110);
type = Stem;
},
{
place = (436, 119);
place = (436, 119);
type = Stem;
},
{
horizontal = 1;
place = (22, 43);
place = (22, 43);
type = Stem;
}
);
layerId = m01;
shapes = (
{
closed = 1;
nodes = (
(29,683,l),
(28,704,l),
(192,713,l),
(192,385,l),
(224,428,o),
(283,465,o),
(345,465,cs),
(457,465,o),
(543,389,o),
(543,256,cs),
(543,89,o),
(433,-10,o),
(327,-10,cs),
(257,-10,o),
(217,19,o),
(190,45,c),
(189,26,o),
(187,11,o),
(183,-4,c),
(131,0,o),
(81,0,o),
(29,0,c),
(29,21,l),
(85,21,o),
(104,30,o),
(104,129,cs),
(104,641,ls),
(104,679,o),
(99,684,o),
(85,684,cs)
);
},
{
closed = 1;
nodes = (
(446,367,o),
(392,442,o),
(321,442,cs),
(275,442,o),
(228,405,o),
(192,355,c),
(192,74,l),
(218,41,o),
(269,12,o),
(316,12,cs),
(396,12,o),
(446,85,o),
(446,238,cs)
);
}
);
width = 595;
}
);
note = b;
unicode = 98;
},
{
glyphname = c;
lastChange = "2024-10-29 18:02:08 +0000";
layers = (
{
anchors = (
{
name = bottom;
pos = (268,0);
},
{
name = top;
pos = (263,500);
}
);
hints = (
{
horizontal = 1;
place = (3, 45);
place = (3, 45);
type = Stem;
},
{
horizontal = 1;
place = (455, 36);
place = (455, 36);
type = Stem;
},
{
place = (45, 107);
place = (45, 107);
type = Stem;
},
{
place = (356, 90);
place = (356, 90);
type = Stem;
}
);
layerId = m01;
shapes = (
{
closed = 1;
nodes = (
(341,442,o),
(385,375,o),
(348,315,c),
(359,308,o),
(370,304,o),
(381,304,cs),
(415,304,o),
(441,330,o),
(441,363,cs),
(441,443,o),
(342,465,o),
(284,465,cs),
(152,465,o),
(45,357,o),
(45,220,cs),
(45,83,o),
(146,-10,o),
(269,-10,cs),
(342,-10,o),
(403,19,o),
(447,79,c),
(431,92,l),
(391,47,o),
(344,22,o),
(290,22,cs),
(190,22,o),
(139,109,o),
(139,246,cs),
(139,366,o),
(193,442,o),
(275,442,cs)
);
}
);
width = 482;
}
);
note = c;
unicode = 99;
},
{
glyphname = d;
lastChange = "2025-09-03 17:35:18 +0000";
layers = (
{
anchors = (
{
name = caron;
pos = (226,505);
}
);
hints = (
{
horizontal = 1;
place = (11, 32);
place = (11, 32);
type = Stem;
},
{
horizontal = 1;
place = (7, 21);
target = up;
type = BottomGhost;
},
{
horizontal = 1;
place = (453, 34);
place = (453, 34);
type = Stem;
},
{
horizontal = 1;
place = (694, 40);
place = (694, 40);
type = Stem;
},
{
place = (52, 107);
place = (52, 107);
type = Stem;
},
{
place = (404, 99);
place = (404, 99);
type = Stem;
},
{
horizontal = 1;
place = (1, 33);
place = (1, 33);
type = Stem;
}
);
layerId = m01;
shapes = (
{
closed = 1;
nodes = (
(414,100,l),
(385,57,o),
(353,12,o),
(294,12,cs),
(194,12,o),
(148,118,o),
(148,222,cs),
(148,358,o),
(191,442,o),
(288,442,cs),
(341,442,o),
(394,413,o),
(414,370,c)
);
},
{
closed = 1;
nodes = (
(414,409,l),
(400,434,o),
(343,465,o),
(289,465,cs),
(160,465,o),
(52,368,o),
(52,226,cs),
(52,83,o),
(145,-10,o),
(269,-10,cs),
(334,-10,o),
(383,23,o),
(412,64,c),
(413,43,o),
(415,20,o),
(421,-4,c),
(473,0,o),
(525,0,o),
(577,0,c),
(577,21,l),
(521,21,o),
(502,30,o),
(502,129,cs),
(502,713,l),
(338,704,l),
(339,683,l),
(395,684,ls),
(409,684,o),
(414,679,o),
(414,641,cs)
);
}
);
width = 605;
}
);
note = d;
unicode = 100;
},
{
glyphname = e;
lastChange = "2026-06-13 19:07:01 +0000";
layers = (
{
anchors = (
{
name = bottom;
pos = (261,0);
},
{
name = ogonek;
pos = (303,0);
},
{
name = top;
pos = (260,500);
}
);
hints = (
{
horizontal = 1;
place = (4, 46);
place = (4, 46);
type = Stem;
},
{
horizontal = 1;
place = (250, 38);
place = (250, 38);
type = Stem;
},
{
horizontal = 1;
place = (456, 37);
place = (456, 37);
type = Stem;
},
{
place = (45, 110);
place = (45, 110);
type = Stem;
},
{
place = (361, 108);
place = (361, 108);
type = Stem;
}
);
layerId = m01;
shapes = (
{
closed = 1;
nodes = (
(455,236,l),
(455,373,o),
(383,465,o),
(259,465,cs),
(128,465,o),
(35,352,o),
(35,220,cs),
(35,80,o),
(132,-10,o),
(260,-10,cs),
(333,-10,o),
(394,19,o),
(438,79,c),
(422,92,l),
(382,47,o),
(335,22,o),
(281,22,cs),
(177,22,o),
(131,99,o),
(131,236,c)
);
},
{
closed = 1;
nodes = (
(346,261,o),
(324,260,o),
(305,260,cs),
(260,260,o),
(198,261,o),
(131,262,c),
(131,367,o),
(179,442,o),
(256,442,cs),
(333,442,o),
(361,354,o),
(361,261,c)
);
}
);
width = 491;
}
);
note = e;
unicode = 101;
},
{
glyphname = f;
lastChange = "2025-09-02 18:01:44 +0000";
layers = (
{
hints = (
{
horizontal = 1;
place = (12, 33);
place = (12, 33);
type = Stem;
},
{
horizontal = 1;
place = (428, 42);
place = (428, 42);
type = Stem;
},
{
horizontal = 1;
place = (723, 33);
place = (723, 33);
type = Stem;
},
{
place = (106, 100);
place = (106, 100);
type = Stem;
},
{
place = (296, 83);
place = (296, 83);
type = Stem;
}
);
layerId = m01;
shapes = (
{
closed = 1;
nodes = (
(269,0,l),
(31,0,l),
(31,21,l),
(87,21,o),
(106,30,o),
(106,129,cs),
(106,416,l),
(28,416,l),
(28,446,l),
(106,446,l),
(106,549,ls),
(106,665,o),
(155,732,o),
(252,732,cs),
(310,732,o),
(367,701,o),
(367,649,cs),
(367,615,o),
(341,592,o),
(312,592,cs),
(299,592,o),
(285,597,o),
(273,607,c),
(314,659,o),
(295,711,o),
(250,711,cs),
(209,711,o),
(194,676,o),
(194,563,cs),
(194,446,l),
(311,446,l),
(309,416,l),
(194,416,l),
(194,129,ls),
(194,30,o),
(213,21,o),
(269,21,c)
);
}
);
width = 278;
}
);
note = f;
unicode = 102;
},
{
glyphname = g;
lastChange = "2026-06-07 19:45:08 +0000";
layers = (
{
anchors = (
{
name = bottom;
pos = (254,-260);
},
{
name = top;
pos = (257,500);
}
);
hints = (
{
horizontal = 1;
place = (-245, 36);
place = (-245, 36);
type = Stem;
},
{
horizontal = 1;
place = (-10, 86);
place = (-10, 86);
type = Stem;
},
{
horizontal = 1;
place = (155, 34);
place = (155, 34);
type = Stem;
},
{
horizontal = 1;
place = (454, 35);
place = (454, 35);
type = Stem;
},
{
place = (70, 96);
place = (70, 96);
type = Stem;
},
{
place = (340, 96);
place = (340, 96);
type = Stem;
},
{
place = (430, 69);
place = (430, 69);
type = Stem;
},
{
place = (85, 69);
place = (85, 69);
type = Stem;
},
{
horizontal = 1;
place = (2, 21);
target = up;
type = BottomGhost;
},
{
place = (44, 92);
place = (44, 92);
type = Stem;
},
{
horizontal = 1;
place = (455, 64);
place = (455, 64);
type = Stem;
},
{
place = (458, 29);
place = (458, 29);
type = Stem;
}
);
layerId = m01;
shapes = (
{
closed = 1;
nodes = (
(147,465,o),
(70,395,o),
(70,291,cs),
(72,226,o),
(120,176,o),
(175,156,c),
(131,131,ls),
(101,114,o),
(85,88,o),
(85,60,cs),
(85,27,o),
(111,2,o),
(168,-10,c),
(94,-23,o),
(44,-58,o),
(44,-124,cs),
(44,-205,o),
(135,-253,o),
(245,-253,cs),
(388,-253,o),
(487,-184,o),
(487,-73,cs),
(487,11,o),
(430,47,o),
(317,51,cs),
(240,54,ls),
(165,57,o),
(142,64,o),
(142,89,cs),
(142,111,o),
(162,127,o),
(200,150,c),
(215,146,o),
(229,143,o),
(249,143,cs),
(337,143,o),
(424,210,o),
(424,306,cs),
(424,356,o),
(398,400,o),
(361,429,c),
(373,436,o),
(387,439,o),
(401,439,cs),
(417,439,o),
(439,434,o),
(455,410,c),
(491,442,o),
(475,490,o),
(434,495,cs),
(397,500,o),
(365,473,o),
(345,440,c),
(319,456,o),
(290,465,o),
(261,465,cs)
);
},
{
closed = 1;
nodes = (
(340,214,o),
(313,165,o),
(251,165,cs),
(190,165,o),
(154,211,o),
(154,304,cs),
(154,395,o),
(184,442,o),
(243,442,cs),
(304,442,o),
(338,396,o),
(340,295,cs)
);
},
{
closed = 1;
nodes = (
(430,-179,o),
(361,-229,o),
(260,-229,cs),
(175,-229,o),
(124,-195,o),
(124,-115,cs),
(124,-63,o),
(153,-31,o),
(203,-19,c),
(308,-24,ls),
(399,-28,o),
(430,-52,o),
(430,-103,cs)
);
}
);
width = 482;
}
);
note = g;
unicode = 103;
},
{
glyphname = h;
lastChange = "2025-09-02 18:11:01 +0000";
layers = (
{
anchors = (
{
name = bottom;
pos = (299,0);
},
{
name = top;
pos = (325,500);
}
);
hints = (
{
horizontal = 1;
place = (2, 23);
place = (2, 23);
type = Stem;
},
{
horizontal = 1;
place = (429, 44);
place = (429, 44);
type = Stem;
},
{
horizontal = 1;
place = (692, 22);
place = (692, 22);
type = Stem;
},
{
place = (101, 90);
place = (101, 90);
type = Stem;
},
{
place = (404, 91);
place = (404, 91);
type = Stem;
}
);
layerId = m01;
shapes = (
{
closed = 1;
nodes = (
(493,30,o),
(512,21,o),
(568,21,c),
(568,0,l),
(329,0,l),
(329,21,l),
(385,21,o),
(404,30,o),
(404,129,cs),
(404,292,ls),
(404,365,o),
(378,423,o),
(314,423,cs),
(263,423,o),
(194,360,o),
(189,306,c),
(189,129,ls),
(189,30,o),
(208,21,o),
(264,21,c),
(264,0,l),
(26,0,l),
(26,21,l),
(82,21,o),
(101,30,o),
(101,129,cs),
(101,641,ls),
(101,679,o),
(96,684,o),
(82,684,cs),
(26,683,l),
(25,704,l),
(189,713,l),
(189,368,l),
(190,368,l),
(227,435,o),
(276,465,o),
(341,465,cs),
(434,465,o),
(493,411,o),
(493,311,cs),
(493,129,ls)
);
}
);
width = 593;
}
);
note = h;
unicode = 104;
},
{
glyphname = i;
lastChange = "2025-09-02 17:48:32 +0000";
layers = (
{
anchors = (
{
name = ogonek;
pos = (219,0);
}
);
hints = (
{
horizontal = 1;
place = (2, 23);
place = (2, 23);
type = Stem;
},
{
horizontal = 1;
place = (428, 31);
place = (428, 31);
type = Stem;
},
{
place = (104, 90);
place = (104, 90);
type = Stem;
},
{
horizontal = 1;
place = (572, 116);
place = (572, 116);
type = Stem;
},
{
place = (89, 115);
place = (89, 115);
type = Stem;
}
);
layerId = m01;
shapes = (
{
closed = 1;
nodes = (
(202,659,o),
(177,684,o),
(145,684,cs),
(115,684,o),
(89,657,o),
(89,627,cs),
(89,596,o),
(116,570,o),
(145,570,cs),
(177,570,o),
(202,596,o),
(202,626,cs)
);
},
{
closed = 1;
nodes = (
(104,384,ls),
(104,422,o),
(99,427,o),
(85,427,cs),
(29,426,l),
(28,447,l),
(192,456,l),
(192,129,ls),
(192,30,o),
(211,21,o),
(267,21,c),
(267,0,l),
(29,0,l),
(29,21,l),
(85,21,o),
(104,30,o),
(104,129,cs)
);
}
);
width = 295;
}
);
note = i;
unicode = 105;
},
{
glyphname = j;
lastChange = "2026-06-07 19:45:20 +0000";
layers = (
{
hints = (
{
horizontal = 1;
place = (-258, 10);
place = (-258, 10);
type = Stem;
},
{
horizontal = 1;
place = (415, 18);
place = (415, 18);
type = Stem;
},
{
place = (-71, 60);
place = (-71, 60);
type = Stem;
},
{
place = (82, 77);
place = (82, 77);
type = Stem;
},
{
horizontal = 1;
place = (560, 103);
place = (560, 103);
type = Stem;
},
{
place = (67, 102);
place = (67, 102);
type = Stem;
}
);
layerId = m01;
shapes = (
{
closed = 1;
nodes = (
(7,426,l),
(6,447,l),
(170,456,l),
(170,-74,ls),
(170,-172,o),
(128,-253,o),
(34,-253,cs),
(-17,-253,o),
(-71,-232,o),
(-71,-180,cs),
(-71,-146,o),
(-45,-123,o),
(-16,-123,cs),
(-3,-123,o),
(11,-128,o),
(23,-138,c),
(-18,-190,o),
(2,-232,o),
(38,-232,cs),
(77,-232,o),
(82,-192,o),
(82,-89,cs),
(82,384,ls),
(82,422,o),
(77,427,o),
(63,427,cs)
);
},
{
closed = 1;
nodes = (
(180,658,o),
(154,685,o),
(124,685,cs),
(93,685,o),
(67,659,o),
(67,629,cs),
(67,598,o),
(93,571,o),
(124,571,cs),
(154,571,o),
(180,597,o),
(180,628,cs)
);
}
);
width = 267;
}
);
note = j;
unicode = 106;
},
{
glyphname = k;
lastChange = "2025-09-02 18:08:52 +0000";
layers = (
{
anchors = (
{
name = bottom;
pos = (294,0);
},
{
name = top;
pos = (354,500);
}
);
hints = (
{
horizontal = 1;
place = (6, 27);
place = (6, 27);
type = Stem;
},
{
horizontal = 1;
place = (434, 27);
place = (434, 27);
type = Stem;
},
{
horizontal = 1;
place = (689, 35);
place = (689, 35);
type = Stem;
},
{
place = (104, 94);
place = (104, 94);
type = Stem;
}
);
layerId = m01;
shapes = (
{
closed = 1;
nodes = (
(104,641,ls),
(104,679,o),
(99,684,o),
(85,684,cs),
(29,683,l),
(28,704,l),
(192,713,l),
(192,240,l),
(377,409,ls),
(388,419,o),
(383,429,o),
(354,429,cs),
(310,429,l),
(310,450,l),
(508,450,l),
(508,429,l),
(454,429,o),
(434,427,o),
(402,398,cs),
(282,290,l),
(492,44,ls),
(509,24,o),
(514,21,o),
(556,21,c),
(556,0,l),
(324,0,l),
(324,21,l),
(363,21,o),
(381,29,o),
(365,48,cs),
(214,226,l),
(192,207,l),
(192,129,ls),
(192,30,o),
(211,21,o),
(267,21,c),
(267,0,l),
(29,0,l),
(29,21,l),
(85,21,o),
(104,30,o),
(104,129,cs)
);
}
);
width = 560;
}
);
note = k;
unicode = 107;
},
{
glyphname = l;
lastChange = "2025-09-02 17:51:00 +0000";
layers = (
{
anchors = (
{
name = bottom;
pos = (152,0);
},
{
name = caron;
pos = (296,505);
}
);
hints = (
{
horizontal = 1;
place = (2, 23);
place = (2, 23);
type = Stem;
},
{
horizontal = 1;
place = (685, 31);
place = (685, 31);
type = Stem;
},
{
place = (104, 90);
place = (104, 90);
type = Stem;
}
);
layerId = m01;
shapes = (
{
closed = 1;
nodes = (
(104,641,ls),
(104,679,o),
(99,684,o),
(85,684,cs),
(29,683,l),
(28,704,l),
(192,713,l),
(192,129,ls),
(192,30,o),
(211,21,o),
(267,21,c),
(267,0,l),
(29,0,l),
(29,21,l),
(85,21,o),
(104,30,o),
(104,129,cs)
);
}
);
width = 295;
}
);
note = l;
unicode = 108;
},
{
glyphname = m;
lastChange = "2025-09-02 18:01:23 +0000";
layers = (
{
hints = (
{
horizontal = 1;
place = (-5, 16);
place = (-5, 16);
type = Stem;
},
{
horizontal = 1;
place = (421, 24);
place = (421, 24);
type = Stem;
},
{
place = (96, 83);
place = (96, 83);
type = Stem;
},
{
place = (380, 82);
place = (380, 82);
type = Stem;
},
{
place = (663, 82);
place = (663, 82);
type = Stem;
},
{
horizontal = 1;
place = (417, 38);
place = (417, 38);
type = Stem;
}
);
layerId = m01;
shapes = (
{
closed = 1;
nodes = (
(467,319,l),
(471,361,o),
(529,422,o),
(586,422,cs),
(647,422,o),
(663,365,o),
(663,290,cs),
(663,129,ls),
(663,30,o),
(644,21,o),
(588,21,c),
(588,0,l),
(825,0,l),
(825,21,l),
(769,21,o),
(750,30,o),
(750,129,cs),
(750,309,ls),
(750,405,o),
(702,465,o),
(613,465,cs),
(550,465,o),
(496,432,o),
(462,371,c),
(461,371,l),
(440,432,o),
(393,465,o),
(330,465,cs),
(264,465,o),
(212,429,o),
(185,375,c),
(184,375,l),
(184,456,l),
(20,447,l),
(21,426,l),
(77,427,ls),
(91,427,o),
(96,422,o),
(96,384,cs),
(96,129,ls),
(96,30,o),
(77,21,o),
(21,21,c),
(21,0,l),
(259,0,l),
(259,21,l),
(203,21,o),
(184,30,o),
(184,129,cs),
(184,316,l),
(188,363,o),
(253,422,o),
(302,422,cs),
(363,422,o),
(380,362,o),
(380,289,cs),
(380,129,ls),
(380,30,o),
(361,21,o),
(305,21,c),
(305,0,l),
(542,0,l),
(542,21,l),
(486,21,o),
(467,30,o),
(467,129,cs)
);
}
);
width = 845;
}
);
note = m;
unicode = 109;
},
{
glyphname = n;
lastChange = "2025-09-02 17:59:30 +0000";
layers = (
{
anchors = (
{
name = bottom;
pos = (291,0);
},
{
name = top;
pos = (304,500);
}
);
hints = (
{
horizontal = 1;
place = (4, 25);
place = (4, 25);
type = Stem;
},
{
horizontal = 1;
place = (430, 33);
place = (430, 33);
type = Stem;
},
{
place = (101, 92);
place = (101, 92);
type = Stem;
},
{
place = (400, 92);
place = (400, 92);
type = Stem;
},
{
horizontal = 1;
place = (427, 47);
place = (427, 47);
type = Stem;
}
);
layerId = m01;
shapes = (
{
closed = 1;
nodes = (
(101,422,o),
(96,427,o),
(82,427,cs),
(26,426,l),
(25,447,l),
(189,456,l),
(189,375,l),
(190,375,l),
(220,428,o),
(277,465,o),
(338,465,cs),
(444,465,o),
(488,404,o),
(488,297,cs),
(488,129,ls),
(488,30,o),
(507,21,o),
(563,21,c),
(563,0,l),
(325,0,l),
(325,21,l),
(381,21,o),
(400,30,o),
(400,129,cs),
(400,287,ls),
(400,361,o),
(376,422,o),
(312,422,cs),
(256,422,o),
(199,368,o),
(189,319,c),
(189,129,ls),
(189,30,o),
(208,21,o),
(264,21,c),
(264,0,l),
(26,0,l),
(26,21,l),
(82,21,o),
(101,30,o),
(101,129,cs),
(101,384,ls)
);
}
);
width = 588;
}
);
note = n;
unicode = 110;
},
{
glyphname = o;
lastChange = "2026-06-13 18:47:03 +0000";
layers = (
{
anchors = (
{
name = bottom;
pos = (276,0);
},
{
name = top;
pos = (276,500);
}
);
hints = (
{
horizontal = 1;
place = (-1, 31);
place = (-1, 31);
type = Stem;
},
{
horizontal = 1;
place = (451, 32);
place = (451, 32);
type = Stem;
},
{
place = (45, 106);
place = (45, 106);
type = Stem;
},
{
place = (408, 106);
place = (408, 106);
type = Stem;
}
);
layerId = m01;
shapes = (
{
closed = 1;
nodes = (
(520,361,o),
(411,465,o),
(288,465,cs),
(147,465,o),
(40,361,o),
(40,222,cs),
(40,89,o),
(143,-10,o),
(270,-10,cs),
(409,-10,o),
(520,96,o),
(520,235,cs)
);
},
{
closed = 1;
nodes = (
(423,78,o),
(375,12,o),
(292,12,cs),
(202,12,o),
(137,86,o),
(137,250,cs),
(137,376,o),
(182,442,o),
(275,442,cs),
(362,442,o),
(423,355,o),
(423,212,cs)
);
}
);
width = 560;
}
);
note = o;
unicode = 111;
},
{
glyphname = p;
lastChange = "2026-06-07 19:45:29 +0000";
layers = (
{
hints = (
{
horizontal = 1;
place = (-242, 32);
place = (-242, 32);
type = Stem;
},
{
horizontal = 1;
place = (1, 33);
place = (1, 33);
type = Stem;
},
{
horizontal = 1;
place = (437, 40);
place = (437, 40);
type = Stem;
},
{
place = (104, 99);
place = (104, 99);
type = Stem;
},
{
place = (446, 107);
place = (446, 107);
type = Stem;
},
{
horizontal = 1;
place = (453, 34);
place = (453, 34);
type = Stem;
}
);
layerId = m01;
shapes = (
{
closed = 1;
nodes = (
(104,-114,ls),
(104,-213,o),
(85,-222,o),
(29,-222,c),
(29,-243,l),
(267,-243,l),
(267,-222,l),
(211,-222,o),
(192,-213,o),
(192,-114,cs),
(192,45,l),
(218,20,o),
(262,-11,o),
(322,-10,cs),
(434,-11,o),
(552,100,o),
(552,248,cs),
(552,385,o),
(461,464,o),
(354,465,cs),
(282,464,o),
(224,422,o),
(192,385,c),
(192,456,l),
(28,447,l),
(29,426,l),
(85,427,ls),
(99,427,o),
(104,422,o),
(104,384,cs)
);
},
{
closed = 1;
nodes = (
(193,355,l),
(236,408,o),
(285,442,o),
(330,442,cs),
(415,442,o),
(456,341,o),
(456,239,cs),
(456,103,o),
(411,12,o),
(316,12,cs),
(266,12,o),
(220,43,o),
(193,74,c)
);
}
);
width = 604;
}
);
note = p;
unicode = 112;
},
{
glyphname = q;
lastChange = "2026-06-07 19:45:51 +0000";
layers = (
{
hints = (
{
horizontal = 1;
place = (-234, 40);
place = (-234, 40);
type = Stem;
},
{
horizontal = 1;
place = (9, 41);
place = (9, 41);
type = Stem;
},
{
horizontal = 1;
place = (461, 43);
place = (461, 43);
type = Stem;
},
{
place = (52, 115);
place = (52, 115);
type = Stem;
},
{
place = (395, 108);
place = (395, 108);
type = Stem;
}
);
layerId = m01;
shapes = (
{
closed = 1;
nodes = (
(405,69,l),
(386,31,o),
(331,-10,o),
(262,-10,cs),
(142,-10,o),
(52,86,o),
(52,225,cs),
(52,367,o),
(157,466,o),
(281,466,cs),
(339,466,o),
(384,438,o),
(409,409,c),
(438,460,l),
(494,464,l),
(494,-114,ls),
(494,-213,o),
(513,-222,o),
(569,-222,c),
(569,-243,l),
(331,-243,l),
(331,-222,l),
(387,-222,o),
(405,-213,o),
(405,-114,cs)
);
},
{
closed = 1;
nodes = (
(383,410,o),
(333,442,o),
(278,442,cs),
(196,442,o),
(148,376,o),
(148,232,cs),
(148,113,o),
(197,12,o),
(277,12,cs),
(339,12,o),
(381,61,o),
(405,105,c),
(405,370,l)
);
}
);
width = 597;
}
);
note = q;
unicode = 113;
},
{
glyphname = r;
lastChange = "2025-09-02 17:52:25 +0000";
layers = (
{
anchors = (
{
name = bottom;
pos = (150,0);
},
{
name = top;
pos = (227,500);
}
);
hints = (
{
horizontal = 1;
place = (1, 22);
place = (1, 22);
type = Stem;
},
{
horizontal = 1;
place = (427, 30);
place = (427, 30);
type = Stem;
},
{
place = (103, 89);
place = (103, 89);
type = Stem;
},
{
horizontal = 1;
place = (409, 58);
place = (409, 58);
type = Stem;
},
{
place = (348, 66);
place = (348, 66);
type = Stem;
}
);
layerId = m01;
shapes = (
{
closed = 1;
nodes = (
(28,426,l),
(27,447,l),
(191,456,l),
(191,352,l),
(192,352,l),
(212,409,o),
(260,465,o),
(332,465,cs),
(373,465,o),
(413,441,o),
(413,396,cs),
(413,364,o),
(392,335,o),
(338,335,c),
(355,385,o),
(326,408,o),
(292,408,cs),
(229,408,o),
(191,346,o),
(191,284,cs),
(191,129,ls),
(191,30,o),
(210,21,o),
(266,21,c),
(266,0,l),
(28,0,l),
(28,21,l),
(84,21,o),
(103,30,o),
(103,129,cs),
(103,384,ls),
(103,422,o),
(98,427,o),
(84,427,cs)
);
}
);
width = 410;
}
);
note = r;
unicode = 114;
},
{
glyphname = s;
lastChange = "2024-09-15 09:31:26 +0000";
layers = (
{
anchors = (
{
name = bottom;
pos = (224,0);
},
{
name = top;
pos = (217,500);
}
);
hints = (
{
horizontal = 1;
place = (0, 32);
place = (0, 32);
type = Stem;
},
{
horizontal = 1;
place = (452, 33);
place = (452, 33);
type = Stem;
},
{
place = (57, 33);
place = (57, 33);
type = Stem;
},
{
place = (327, 32);
place = (327, 32);
type = Stem;
},
{
place = (56, 83);
place = (56, 83);
type = Stem;
},
{
place = (305, 90);
place = (305, 90);
type = Stem;
},
{
horizontal = 1;
place = (335, 125);
place = (335, 125);
type = Stem;
},
{
horizontal = 1;
place = (467, -20);
target = down;
type = TopGhost;
},
{
horizontal = 1;
place = (26, 140);
place = (26, 140);
type = Stem;
},
{
horizontal = 1;
place = (10, 21);
target = up;
type = BottomGhost;
}
);
layerId = m01;
shapes = (
{
closed = 1;
nodes = (
(385,182,o),
(350,214,o),
(280,241,cs),
(224,263,ls),
(147,293,o),
(129,327,o),
(129,365,cs),
(129,412,o),
(162,442,o),
(216,442,cs),
(269,442,o),
(327,407,o),
(327,325,c),
(349,325,l),
(349,457,l),
(327,457,l),
(325,446,o),
(320,440,o),
(308,440,cs),
(286,440,o),
(261,465,o),
(208,465,cs),
(125,465,o),
(56,414,o),
(56,339,cs),
(56,269,o),
(99,236,o),
(167,210,cs),
(227,187,ls),
(279,167,o),
(305,140,o),
(305,102,cs),
(305,43,o),
(268,12,o),
(211,12,cs),
(139,12,o),
(80,70,o),
(80,146,c),
(57,146,l),
(57,0,l),
(80,0,l),
(80,10,o),
(85,16,o),
(97,16,cs),
(132,16,o),
(161,-10,o),
(223,-10,cs),
(311,-10,o),
(385,38,o),
(385,120,cs)
);
}
);
width = 434;
}
);
note = s;
unicode = 115;
},
{
glyphname = t;
lastChange = "2025-09-02 17:54:38 +0000";
layers = (
{
anchors = (
{
name = bottom;
pos = (194,0);
},
{
name = caron;
pos = (246,505);
}
);
hints = (
{
horizontal = 1;
place = (-12, 41);
place = (-12, 41);
type = Stem;
},
{
horizontal = 1;
place = (405, 30);
place = (405, 30);
type = Stem;
},
{
place = (93, 89);
place = (93, 89);
type = Stem;
}
);
layerId = m01;
shapes = (
{
closed = 1;
nodes = (
(135,515,o),
(123,496,o),
(93,484,c),
(93,435,l),
(17,430,l),
(17,405,l),
(93,405,l),
(93,101,ls),
(93,28,o),
(130,-12,o),
(196,-12,cs),
(246,-12,o),
(286,15,o),
(311,54,c),
(295,68,l),
(278,45,o),
(251,29,o),
(228,29,cs),
(194,29,o),
(182,52,o),
(182,126,cs),
(182,405,l),
(301,405,l),
(303,435,l),
(182,435,l),
(182,574,l),
(169,572,o),
(156,572,o),
(141,572,c)
);
}
);
width = 306;
}
);
note = t;
unicode = 116;
},
{
glyphname = u;
lastChange = "2025-09-03 17:36:10 +0000";
layers = (
{
anchors = (
{
name = bottom;
pos = (242,0);
},
{
name = ogonek;
pos = (499,0);
},
{
name = top;
pos = (292,500);
}
);
hints = (
{
horizontal = 1;
place = (4, 25);
place = (4, 25);
type = Stem;
},
{
horizontal = 1;
place = (430, 33);
place = (430, 33);
type = Stem;
},
{
place = (100, 92);
place = (100, 92);
type = Stem;
},
{
place = (396, 92);
place = (396, 92);
type = Stem;
},
{
horizontal = 1;
place = (-8, 46);
place = (-8, 46);
type = Stem;
},
{
horizontal = 1;
place = (0, 21);
target = up;
type = BottomGhost;
}
);
layerId = m01;
shapes = (
{
closed = 1;
nodes = (
(100,422,o),
(95,427,o),
(81,427,cs),
(25,426,l),
(24,447,l),
(188,456,l),
(188,159,ls),
(188,69,o),
(207,30,o),
(271,30,cs),
(327,30,o),
(396,87,o),
(396,155,cs),
(396,384,ls),
(396,422,o),
(391,427,o),
(377,427,cs),
(321,426,l),
(320,447,l),
(484,456,l),
(484,129,ls),
(484,30,o),
(503,21,o),
(559,21,c),
(559,0,l),
(507,0,o),
(459,0,o),
(407,-4,c),
(401,20,o),
(399,43,o),
(398,78,c),
(362,18,o),
(306,-10,o),
(239,-10,cs),
(151,-10,o),
(100,29,o),
(100,155,cs),
(100,384,ls)
);
}
);
width = 583;
}
);
note = u;
unicode = 117;
},
{
glyphname = v;
lastChange = "2025-09-25 14:56:45 +0000";
layers = (
{
hints = (
{
horizontal = 1;
place = (-20, 21);
target = up;
type = BottomGhost;
},
{
horizontal = 1;
place = (413, 6);
place = (413, 6);
type = Stem;
},
{
place = (-18, 485);
place = (-18, 485);
type = Stem;
},
{
place = (318, 149);
place = (318, 149);
type = Stem;
}
);
layerId = m01;
shapes = (
{
closed = 1;
nodes = (
(391,429,o),
(397,423,o),
(389,402,cs),
(274,115,ls),
(271,107,o),
(269,100,o),
(266,92,c),
(263,92,l),
(261,100,o),
(259,107,o),
(256,115,cs),
(147,405,ls),
(139,426,o),
(149,429,o),
(161,429,cs),
(213,429,l),
(213,450,l),
(-18,450,l),
(-18,429,l),
(36,429,o),
(48,421,o),
(57,398,cs),
(218,-5,l),
(250,-5,l),
(413,398,ls),
(423,423,o),
(430,429,o),
(484,429,c),
(484,450,l),
(320,450,l),
(320,429,l),
(360,429,ls)
);
}
);
width = 490;
}
);
note = v;
unicode = 118;
},
{
glyphname = w;
lastChange = "2025-09-03 17:42:12 +0000";
layers = (
{
anchors = (
{
name = bottom;
pos = (364,0);
},
{
name = top;
pos = (397,500);
}
);
hints = (
{
horizontal = 1;
place = (-9, 21);
target = up;
type = BottomGhost;
},
{
horizontal = 1;
place = (424, 17);
place = (424, 17);
type = Stem;
},
{
place = (-4, 742);
place = (-4, 742);
type = Stem;
},
{
place = (576, 162);
place = (576, 162);
type = Stem;
}
);
layerId = m01;
shapes = (
{
closed = 1;
nodes = (
(650,429,o),
(655,417,o),
(649,400,cs),
(535,103,l),
(424,440,l),
(379,440,l),
(255,103,l),
(160,402,ls),
(155,419,o),
(164,429,o),
(179,429,cs),
(224,429,l),
(224,450,l),
(-4,450,l),
(-4,429,l),
(50,429,o),
(64,420,o),
(71,398,cs),
(208,-5,l),
(241,-5,l),
(367,331,l),
(487,-5,l),
(519,-5,l),
(673,398,ls),
(683,423,o),
(690,429,o),
(744,429,c),
(744,450,l),
(578,450,l),
(578,429,l),
(632,429,ls)
);
}
);
width = 740;
}
);
note = w;
unicode = 119;
},
{
glyphname = x;
lastChange = "2025-09-03 17:39:27 +0000";
layers = (
{
hints = (
{
horizontal = 1;
place = (-11, 10);
place = (-11, 10);
type = Stem;
},
{
horizontal = 1;
place = (417, 10);
place = (417, 10);
type = Stem;
},
{
place = (0, 474);
place = (0, 474);
type = Stem;
},
{
place = (0, 148);
place = (0, 148);
type = Stem;
},
{
place = (306, 145);
place = (306, 145);
type = Stem;
}
);
layerId = m01;
shapes = (
{
closed = 1;
nodes = (
(94,21,o),
(88,29,o),
(96,39,cs),
(217,191,l),
(320,41,ls),
(330,27,o),
(317,21,o),
(288,21,cs),
(256,21,l),
(256,0,l),
(485,0,l),
(485,21,l),
(431,21,o),
(426,31,o),
(412,52,cs),
(275,258,l),
(387,400,ls),
(404,422,o),
(409,429,o),
(463,429,c),
(463,450,l),
(307,450,l),
(307,429,l),
(331,429,l),
(355,429,o),
(367,415,o),
(355,400,cs),
(262,280,l),
(169,413,ls),
(164,421,o),
(167,429,o),
(188,429,cs),
(236,429,l),
(236,450,l),
(3,450,l),
(3,429,l),
(57,429,o),
(66,419,o),
(80,398,cs),
(202,212,l),
(76,50,ls),
(59,28,o),
(54,21,o),
(0,21,c),
(0,0,l),
(159,0,l),
(159,21,l),
(112,21,ls)
);
}
);
width = 480;
}
);
note = x;
unicode = 120;
},
{
glyphname = y;
lastChange = "2026-06-07 19:46:04 +0000";
layers = (
{
anchors = (
{
name = top;
pos = (257,500);
}
);
hints = (
{
horizontal = 1;
place = (-267, 2);
place = (-267, 2);
type = Stem;
},
{
horizontal = 1;
place = (-23, 21);
target = up;
type = BottomGhost;
},
{
horizontal = 1;
place = (409, 2);
place = (409, 2);
type = Stem;
},
{
place = (-18, 51);
place = (-18, 51);
type = Stem;
},
{
place = (315, 146);
place = (315, 146);
type = Stem;
}
);
layerId = m01;
shapes = (
{
closed = 1;
nodes = (
(123,-253,o),
(165,-227,o),
(199,-142,cs),
(257,4,l),
(411,398,ls),
(421,423,o),
(428,429,o),
(482,429,c),
(482,450,l),
(317,450,l),
(317,429,l),
(367,429,ls),
(389,429,o),
(394,420,o),
(388,405,cs),
(262,82,l),
(144,405,ls),
(138,421,o),
(143,429,o),
(167,429,cs),
(207,429,l),
(207,450,l),
(-22,450,l),
(-22,429,l),
(32,429,o),
(44,421,o),
(53,398,cs),
(200,11,l),
(229,-4,l),
(179,-137,ls),
(156,-199,o),
(125,-232,o),
(87,-232,cs),
(51,-232,o),
(37,-178,o),
(85,-139,c),
(73,-129,o),
(62,-123,o),
(41,-123,cs),
(10,-123,o),
(-17,-149,o),
(-17,-183,cs),
(-17,-228,o),
(23,-253,o),
(71,-253,cs)
);
}
);
width = 473;
}
);
note = y;
unicode = 121;
},
{
glyphname = z;
lastChange = "2024-09-15 16:07:59 +0000";
layers = (
{
anchors = (
{
name = bottom;
pos = (270,0);
},
{
name = top;
pos = (270,500);
}
);
hints = (
{
horizontal = 1;
place = (23, 47);
place = (23, 47);
type = Stem;
},
{
horizontal = 1;
place = (452, 48);
place = (452, 48);
type = Stem;
},
{
place = (77, 44);
place = (77, 44);
type = Stem;
},
{
place = (417, 43);
place = (417, 43);
type = Stem;
}
);
layerId = m01;
shapes = (
{
closed = 1;
nodes = (
(438,146,l),
(417,146,l),
(411,37,o),
(365,25,o),
(265,25,cs),
(159,25,l),
(436,450,l),
(76,450,l),
(74,315,l),
(96,315,l),
(107,422,o),
(143,425,o),
(221,425,cs),
(229,425,o),
(237,425,o),
(245,425,cs),
(292,424,ls),
(300,424,o),
(308,424,o),
(316,424,c),
(36,0,l),
(191,1,o),
(330,1,o),
(436,1,c)
);
}
);
width = 467;
}
);
note = z;
unicode = 122;
},
{
glyphname = braceleft;
lastChange = "2024-09-08 20:42:53 +0000";
layers = (
{
hints = (
{
place = (-222, -29);
place = (-222, -29);
type = Stem;
},
{
place = (221, -28);
place = (221, -28);
type = Stem;
},
{
place = (665, -29);
place = (665, -29);
type = Stem;
},
{
place = (115, 35);
place = (115, 35);
type = Stem;
}
);
layerId = m01;
shapes = (
{
closed = 1;
nodes = (
(34,265,l),
(94,265,o),
(113,228,o),
(115,147,cs),
(115,-15,ls),
(115,-133,o),
(160,-178,o),
(280,-178,c),
(280,-163,l),
(206,-156,o),
(194,-115,o),
(194,-50,cs),
(194,86,ls),
(194,199,o),
(176,255,o),
(93,273,c),
(176,291,o),
(194,347,o),
(194,460,cs),
(194,596,ls),
(194,661,o),
(206,702,o),
(280,709,c),
(280,724,l),
(160,724,o),
(115,679,o),
(115,561,cs),
(115,399,ls),
(113,318,o),
(97,281,o),
(34,281,c)
);
}
);
width = 276;
}
);
note = braceleft;
unicode = 123;
},
{
glyphname = bar;
lastChange = "2024-09-08 20:42:53 +0000";
layers = (
{
hints = (
{
horizontal = 1;
place = (-38, 836);
place = (-38, 836);
type = Stem;
},
{
place = (101, 82);
place = (101, 82);
type = Stem;
}
);
layerId = m01;
shapes = (
{
closed = 1;
nodes = (
(149,730,l),
(101,730,l),
(101,-72,l),
(149,-72,l)
);
}
);
width = 250;
}
);
note = bar;
unicode = 124;
},
{
glyphname = braceright;
lastChange = "2024-09-08 20:42:53 +0000";
layers = (
{
hints = (
{
place = (-263, -70);
place = (-263, -70);
type = Stem;
},
{
place = (180, -69);
place = (180, -69);
type = Stem;
},
{
place = (624, -70);
place = (624, -70);
type = Stem;
},
{
place = (82, -6);
place = (82, -6);
type = Stem;
}
);
layerId = m01;
shapes = (
{
closed = 1;
nodes = (
(242,281,l),
(179,281,o),
(163,318,o),
(161,399,cs),
(161,561,ls),
(161,679,o),
(116,724,o),
(-4,724,c),
(-4,709,l),
(70,702,o),
(82,661,o),
(82,596,cs),
(82,460,ls),
(82,347,o),
(100,291,o),
(183,273,c),
(100,255,o),
(82,199,o),
(82,86,cs),
(82,-50,ls),
(82,-115,o),
(70,-156,o),
(-4,-163,c),
(-4,-178,l),
(116,-178,o),
(161,-133,o),
(161,-15,cs),
(161,147,ls),
(163,228,o),
(182,265,o),
(242,265,c)
);
}
);
width = 276;
}
);
note = braceright;
unicode = 125;
},
{
glyphname = asciitilde;
lastChange = "2024-09-08 20:42:53 +0000";
layers = (
{
hints = (
{
horizontal = 1;
place = (324, 48);
place = (324, 48);
type = Stem;
},
{
place = (16, 475);
place = (16, 475);
type = Stem;
},
{
horizontal = 1;
place = (256, 48);
place = (256, 48);
type = Stem;
}
);
layerId = m01;
shapes = (
{
closed = 1;
nodes = (
(188,342,o),
(304,274,o),
(371,274,cs),
(439,274,o),
(480,330,o),
(509,404,c),
(478,417,l),
(456,365,o),
(433,340,o),
(386,340,cs),
(351,340,o),
(208,408,o),
(154,408,cs),
(86,408,o),
(45,352,o),
(16,278,c),
(47,265,l),
(69,317,o),
(92,342,o),
(139,342,cs)
);
}
);
width = 525;
}
);
note = asciitilde;
unicode = 126;
},
{
glyphname = bullet;
lastChange = "2024-09-08 20:42:53 +0000";
layers = (
{
hints = (
{
horizontal = 1;
place = (166, 283);
place = (166, 283);
type = Stem;
},
{
place = (72, 283);
place = (72, 283);
type = Stem;
}
);
layerId = m01;
shapes = (
{
closed = 1;
nodes = (
(371,413,o),
(304,481,o),
(221,481,cs),
(139,481,o),
(72,413,o),
(72,331,cs),
(72,250,o),
(139,182,o),
(221,182,cs),
(305,182,o),
(371,252,o),
(371,331,cs)
);
}
);
width = 443;
}
);
note = bullet;
unicode = 8226;
},
{
glyphname = endash;
lastChange = "2024-09-08 20:42:53 +0000";
layers = (
{
hints = (
{
horizontal = 1;
place = (214, 21);
place = (214, 21);
type = Stem;
},
{
place = (0, 458);
place = (0, 458);
type = Stem;
}
);
layerId = m01;
shapes = (
{
closed = 1;
nodes = (
(477,273,l),
(0,273,l),
(0,233,l),
(477,233,l)
);
}
);
width = 477;
}
);
note = endash;
unicode = 8211;
},
{
glyphname = emdash;
lastChange = "2024-09-08 20:42:53 +0000";
layers = (
{
hints = (
{
horizontal = 1;
place = (332, 138);
place = (332, 138);
type = Stem;
},
{
place = (130, 995);
place = (130, 995);
type = Stem;
}
);
layerId = m01;
shapes = (
{
closed = 1;
nodes = (
(1026,272,l),
(130,272,l),
(130,233,l),
(1026,233,l)
);
}
);
width = 1156;
}
);
note = emdash;
unicode = 8212;
},
{
glyphname = guilsinglleft;
lastChange = "2024-09-08 20:42:53 +0000";
layers = (
{
hints = (
{
horizontal = 1;
place = (89, 383);
place = (89, 383);
type = Stem;
},
{
place = (62, 228);
place = (62, 228);
type = Stem;
}
);
layerId = m01;
shapes = (
{
closed = 1;
nodes = (
(62,243,l),
(241,64,l),
(265,64,l),
(120,243,l),
(265,422,l),
(241,422,l)
);
}
);
width = 327;
}
);
note = guilsinglleft;
unicode = 8249;
},
{
glyphname = dotlessi;
lastChange = "2025-09-02 17:48:44 +0000";
layers = (
{
anchors = (
{
name = ogonek;
pos = (219,0);
},
{
name = top;
pos = (148,504);
}
);
hints = (
{
horizontal = 1;
place = (2, 23);
place = (2, 23);
type = Stem;
},
{
horizontal = 1;
place = (428, 31);
place = (428, 31);
type = Stem;
},
{
place = (104, 90);
place = (104, 90);
type = Stem;
}
);
layerId = m01;
shapes = (
{
closed = 1;
nodes = (
(104,384,ls),
(104,422,o),
(99,427,o),
(85,427,cs),
(29,426,l),
(28,447,l),
(192,456,l),
(192,129,ls),
(192,30,o),
(211,21,o),
(267,21,c),
(267,0,l),
(29,0,l),
(29,21,l),
(85,21,o),
(104,30,o),
(104,129,cs)
);
}
);
width = 295;
}
);
note = dotlessi;
unicode = 305;
},
{
glyphname = circumflex;
lastChange = "2024-09-15 12:55:42 +0000";
layers = (
{
hints = (
{
horizontal = 1;
place = (770, 25);
place = (770, 25);
type = Stem;
},
{
place = (-2, 283);
place = (-2, 283);
type = Stem;
}
);
layerId = m01;
shapes = (
{
closed = 1;
nodes = (
(186,721,o),
(176,730,o),
(153,730,cs),
(131,730,o),
(120,721,o),
(111,708,c),
(-2,559,l),
(29,559,l),
(153,683,l),
(277,559,l),
(308,559,l),
(195,708,l)
);
}
);
width = 306;
}
);
note = circumflex;
unicode = 710;
},
{
glyphname = tilde;
lastChange = "2024-09-15 12:55:42 +0000";
layers = (
{
hints = (
{
horizontal = 1;
place = (697, 11);
place = (697, 11);
type = Stem;
},
{
place = (-17, -23);
place = (-17, -23);
type = Stem;
},
{
place = (278, -23);
place = (278, -23);
type = Stem;
},
{
horizontal = 1;
place = (648, 11);
place = (648, 11);
type = Stem;
}
);
layerId = m01;
shapes = (
{
closed = 1;
nodes = (
(102,658,o),
(158,609,o),
(204,609,cs),
(264,609,o),
(301,665,o),
(301,715,c),
(278,715,l),
(278,682,o),
(254,666,o),
(230,666,cs),
(200,666,o),
(125,715,o),
(80,715,cs),
(20,715,o),
(-17,659,o),
(-17,609,c),
(6,609,l),
(6,642,o),
(28,658,o),
(54,658,cs)
);
}
);
width = 284;
}
);
note = tilde;
unicode = 732;
},
{
glyphname = hyphen;
lastChange = "2024-09-08 20:42:52 +0000";
layers = (
{
hints = (
{
horizontal = 1;
place = (270, 97);
place = (270, 97);
type = Stem;
},
{
place = (92, 301);
place = (92, 301);
type = Stem;
}
);
layerId = m01;
shapes = (
{
closed = 1;
nodes = (
(350,281,l),
(92,281,l),
(92,227,l),
(350,227,l)
);
}
);
width = 442;
}
);
note = hyphen;
unicode = 45;
},
{
glyphname = percent;
lastChange = "2024-09-08 20:42:52 +0000";
layers = (
{
hints = (
{
horizontal = 1;
place = (-10, 20);
place = (-10, 20);
type = Stem;
},
{
horizontal = 1;
place = (314, 20);
place = (314, 20);
type = Stem;
},
{
horizontal = 1;
place = (371, 20);
place = (371, 20);
type = Stem;
},
{
horizontal = 1;
place = (695, 20);
place = (695, 20);
type = Stem;
},
{
place = (51, 72);
place = (51, 72);
type = Stem;
},
{
place = (287, 73);
place = (287, 73);
type = Stem;
},
{
place = (430, 72);
place = (430, 72);
type = Stem;
},
{
place = (666, 73);
place = (666, 73);
type = Stem;
},
{
horizontal = 1;
place = (716, -20);
target = down;
type = TopGhost;
}
);
layerId = m01;
shapes = (
{
closed = 1;
nodes = (
(590,714,l),
(158,-24,l),
(205,-24,l),
(637,714,l)
);
},
{
closed = 1;
nodes = (
(358,633,o),
(302,711,o),
(204,711,cs),
(112,711,o),
(51,633,o),
(51,540,cs),
(51,446,o),
(112,369,o),
(206,369,cs),
(302,369,o),
(358,446,o),
(358,540,cs)
);
},
{
closed = 1;
nodes = (
(287,455,o),
(270,387,o),
(203,387,cs),
(136,387,o),
(121,455,o),
(121,533,cs),
(121,621,o),
(136,693,o),
(204,693,cs),
(270,693,o),
(287,620,o),
(287,537,cs)
);
},
{
closed = 1;
nodes = (
(737,252,o),
(681,330,o),
(583,330,cs),
(491,330,o),
(430,252,o),
(430,159,cs),
(430,65,o),
(491,-12,o),
(585,-12,cs),
(681,-12,o),
(737,65,o),
(737,159,cs)
);
},
{
closed = 1;
nodes = (
(666,74,o),
(649,6,o),
(582,6,cs),
(515,6,o),
(500,74,o),
(500,152,cs),
(500,240,o),
(515,312,o),
(583,312,cs),
(649,312,o),
(666,239,o),
(666,156,cs)
);
}
);
width = 788;
}
);
note = percent;
unicode = 37;
},
{
glyphname = guilsinglright;
lastChange = "2024-09-08 20:42:53 +0000";
layers = (
{
layerId = m01;
shapes = (
{
closed = 1;
nodes = (
(86,422,l),
(62,422,l),
(207,243,l),
(62,64,l),
(86,64,l),
(265,243,l)
);
}
);
width = 327;
}
);
note = guilsinglright;
unicode = 8250;
},
{
glyphname = AE;
lastChange = "2026-06-13 19:00:15 +0000";
layers = (
{
layerId = m01;
shapes = (
{
closed = 1;
nodes = (
(348,700,l),
(348,676,l),
(391,676,o),
(415,664,o),
(427,651,c),
(104,145,ls),
(31,31,o),
(6,23,o),
(-65,23,c),
(-65,0,l),
(135,0,l),
(135,23,l),
(64,23,o),
(63,41,o),
(138,155,cs),
(198,246,l),
(434,246,l),
(434,143,ls),
(434,54,o),
(415,23,o),
(344,23,c),
(344,0,l),
(891,0,l),
(891,223,l),
(871,223,l),
(864,74,o),
(787,23,o),
(627,23,cs),
(593,23,o),
(566,24,o),
(534,25,c),
(531,65,o),
(530,105,o),
(530,150,cs),
(530,346,l),
(577,346,ls),
(664,346,o),
(712,336,o),
(716,222,c),
(742,222,l),
(742,491,l),
(716,491,l),
(714,407,o),
(686,371,o),
(618,371,cs),
(530,371,l),
(530,677,l),
(730,671,o),
(824,693,o),
(841,507,c),
(867,507,l),
(866,572,o),
(866,636,o),
(866,700,c)
);
},
{
closed = 1;
nodes = (
(419,595,l),
(437,626,l),
(437,595,l),
(434,273,l),
(217,273,l)
);
}
);
width = 935;
}
);
unicode = 198;
},
{
glyphname = Eth;
lastChange = "2026-06-13 18:59:13 +0000";
layers = (
{
layerId = m01;
shapes = (
{
closed = 1;
nodes = (
(320,374,l),
(17,374,l),
(17,348,l),
(320,348,l)
);
},
{
closed = 1;
nodes = (
(558,121,o),
(473,19,o),
(318,19,cs),
(282,19,o),
(248,24,o),
(217,32,c),
(217,673,l),
(250,676,o),
(279,678,o),
(309,678,cs),
(463,678,o),
(558,596,o),
(558,345,cs)
);
},
{
closed = 1;
nodes = (
(101,676,o),
(120,645,o),
(120,556,cs),
(120,143,ls),
(120,54,o),
(101,23,o),
(30,23,c),
(30,0,l),
(77,0,o),
(119,1,o),
(169,1,cs),
(213,1,o),
(260,-2,o),
(316,-2,cs),
(537,-2,o),
(668,134,o),
(668,347,cs),
(668,585,o),
(528,700,o),
(314,700,cs),
(244,700,o),
(208,698,o),
(149,698,cs),
(109,698,o),
(71,699,o),
(30,700,c),
(30,676,l)
);
}
);
width = 718;
}
);
unicode = 208;
},
{
glyphname = Dcroat;
lastChange = "2026-06-13 18:59:19 +0000";
layers = (
{
layerId = m01;
shapes = (
{
closed = 1;
nodes = (
(668,585,o),
(528,700,o),
(314,700,cs),
(244,700,o),
(208,698,o),
(149,698,cs),
(109,698,o),
(71,699,o),
(30,700,c),
(30,677,l),
(62,677,o),
(91,676,o),
(118,676,c),
(120,652,o),
(120,626,o),
(120,598,cs),
(120,131,ls),
(120,93,o),
(120,58,o),
(118,24,c),
(91,24,o),
(62,23,o),
(30,23,c),
(30,0,l),
(77,0,o),
(119,1,o),
(169,1,cs),
(213,1,o),
(260,-2,o),
(316,-2,cs),
(537,-2,o),
(668,134,o),
(668,347,cs)
);
},
{
closed = 1;
nodes = (
(558,121,o),
(473,19,o),
(318,19,cs),
(282,19,o),
(248,24,o),
(217,32,c),
(217,673,l),
(250,676,o),
(279,678,o),
(309,678,cs),
(463,678,o),
(558,596,o),
(558,345,cs)
);
},
{
closed = 1;
nodes = (
(320,374,l),
(17,374,l),
(17,348,l),
(320,348,l)
);
}
);
width = 718;
}
);
unicode = 272;
},
{
glyphname = Hbar;
lastChange = "2026-04-25 15:42:56 +0000";
layers = (
{
layerId = m01;
shapes = (
{
closed = 1;
nodes = (
(712,504,l),
(17,504,l),
(17,478,l),
(712,478,l)
);
},
{
closed = 1;
nodes = (
(216,348,l),
(512,348,l),
(512,143,ls),
(512,54,o),
(493,23,o),
(422,23,c),
(422,0,l),
(699,0,l),
(699,23,l),
(628,23,o),
(609,54,o),
(609,143,cs),
(609,556,ls),
(609,645,o),
(628,676,o),
(699,676,c),
(699,700,l),
(422,700,l),
(422,676,l),
(493,676,o),
(512,645,o),
(512,556,cs),
(512,374,l),
(216,374,l),
(216,556,l),
(216,645,o),
(235,676,o),
(306,676,c),
(306,700,l),
(30,700,l),
(30,676,l),
(101,676,o),
(120,645,o),
(120,556,cs),
(120,143,ls),
(120,54,o),
(101,23,o),
(30,23,c),
(30,0,l),
(306,0,l),
(306,23,l),
(235,23,o),
(216,54,o),
(216,143,cs)
);
}
);
width = 729;
}
);
unicode = 294;
},
{
glyphname = Lslash;
lastChange = "2026-06-01 20:16:39 +0000";
layers = (
{
anchors = (
{
name = bottom;
pos = (301,0);
},
{
name = caron;
pos = (446,485);
},
{
name = top;
pos = (331,760);
}
);
layerId = m01;
shapes = (
{
closed = 1;
nodes = (
(30,276,l),
(467,480,l),
(467,450,l),
(30,246,l)
);
},
{
closed = 1;
nodes = (
(217,104,ls),
(217,76,o),
(218,50,o),
(219,26,c),
(250,24,o),
(269,23,o),
(303,23,cs),
(316,23,o),
(342,23,o),
(355,24,cs),
(471,33,o),
(532,98,o),
(540,222,c),
(566,222,l),
(560,0,l),
(30,0,l),
(30,22,l),
(101,22,o),
(120,53,o),
(120,142,cs),
(120,555,ls),
(120,644,o),
(101,675,o),
(30,675,c),
(30,700,l),
(307,700,l),
(307,675,l),
(236,675,o),
(217,644,o),
(217,555,cs)
);
}
);
width = 610;
}
);
unicode = 321;
},
{
glyphname = Oslash;
lastChange = "2026-06-13 18:59:51 +0000";
layers = (
{
anchors = (
{
name = bottom;
pos = (416,0);
},
{
name = top;
pos = (416,760);
}
);
layerId = m01;
shapes = (
{
closed = 1;
nodes = (
(765,556,o),
(608,714,o),
(426,714,cs),
(217,714,o),
(53,556,o),
(53,343,cs),
(53,138,o),
(210,-13,o),
(399,-13,cs),
(605,-13,o),
(765,149,o),
(765,363,cs)
);
},
{
closed = 1;
nodes = (
(650,114,o),
(574,12,o),
(433,12,cs),
(281,12,o),
(168,128,o),
(168,386,cs),
(168,586,o),
(248,690,o),
(406,690,cs),
(553,690,o),
(650,553,o),
(650,327,cs)
);
},
{
closed = 1;
nodes = (
(188,-31,l),
(217,-48,l),
(659,731,l),
(630,748,l)
);
}
);
width = 818;
}
);
unicode = 216;
},
{
glyphname = OE;
lastChange = "2026-06-13 19:00:47 +0000";
layers = (
{
layerId = m01;
shapes = (
{
closed = 1;
nodes = (
(961,223,l),
(954,74,o),
(877,23,o),
(717,23,cs),
(683,23,o),
(656,24,o),
(624,25,c),
(621,65,o),
(620,105,o),
(620,150,cs),
(620,346,l),
(667,346,ls),
(754,346,o),
(802,336,o),
(806,222,c),
(832,222,l),
(832,491,l),
(806,491,l),
(804,407,o),
(776,371,o),
(708,371,cs),
(620,371,l),
(620,677,l),
(820,671,o),
(914,693,o),
(931,507,c),
(957,507,l),
(956,572,o),
(956,636,o),
(956,700,c),
(530,697,l),
(502,698,o),
(475,714,o),
(416,714,cs),
(207,714,o),
(53,556,o),
(53,343,cs),
(53,138,o),
(200,-13,o),
(389,-13,cs),
(450,-13,o),
(490,0,o),
(552,0,c),
(981,0,l),
(981,223,l)
);
},
{
closed = 1;
nodes = (
(168,586,o),
(238,690,o),
(396,690,cs),
(446,690,o),
(489,674,o),
(524,644,c),
(524,36,l),
(496,20,o),
(463,12,o),
(423,12,cs),
(271,12,o),
(168,128,o),
(168,386,cs)
);
}
);
width = 1025;
}
);
unicode = 338;
},
{
glyphname = Thorn;
lastChange = "2026-04-25 15:40:42 +0000";
layers = (
{
layerId = m01;
shapes = (
{
closed = 1;
nodes = (
(451,282,o),
(402,218,o),
(294,218,cs),
(268,218,o),
(246,219,o),
(217,222,c),
(217,558,l),
(217,561,l),
(237,562,o),
(257,563,o),
(278,563,cs),
(410,563,o),
(449,513,o),
(450,393,cs)
);
},
{
closed = 1;
nodes = (
(217,645,o),
(236,676,o),
(307,676,c),
(307,700,l),
(30,700,l),
(30,676,l),
(101,676,o),
(120,645,o),
(120,556,cs),
(120,143,ls),
(120,54,o),
(101,23,o),
(30,23,c),
(30,0,l),
(307,0,l),
(307,23,l),
(236,23,o),
(217,54,o),
(217,143,cs),
(217,198,l),
(243,196,o),
(267,195,o),
(292,195,cs),
(448,195,o),
(559,263,o),
(559,400,cs),
(559,523,o),
(448,591,o),
(292,591,cs),
(267,591,o),
(243,590,o),
(217,588,c)
);
}
);
width = 613;
}
);
unicode = 222;
},
{
glyphname = Germandbls;
lastChange = "2025-09-02 17:58:07 +0000";
layers = (
{
layerId = m01;
shapes = (
{
closed = 1;
nodes = (
(31,0,l),
(269,0,l),
(269,23,l),
(203,23,o),
(194,44,o),
(194,143,cs),
(194,454,l),
(194,647,o),
(265,690,o),
(344,690,cs),
(397,690,o),
(436,674,o),
(469,647,c),
(333,374,l),
(487,406,o),
(563,329,o),
(563,207,cs),
(563,82,o),
(510,10,o),
(427,10,cs),
(340,10,o),
(314,105,o),
(356,177,c),
(345,184,o),
(333,188,o),
(320,188,cs),
(285,188,o),
(248,161,o),
(248,115,cs),
(248,29,o),
(333,-12,o),
(431,-12,cs),
(556,-12,o),
(666,69,o),
(666,220,cs),
(666,386,o),
(509,433,o),
(419,403,c),
(553,649,l),
(490,693,o),
(427,714,o),
(356,714,cs),
(194,714,o),
(106,636,o),
(106,440,c),
(106,143,ls),
(106,44,o),
(97,23,o),
(31,23,c)
);
}
);
width = 720;
}
);
unicode = 7838;
},
{
glyphname = ae;
lastChange = "2026-06-13 19:07:14 +0000";
layers = (
{
layerId = m01;
shapes = (
{
closed = 1;
nodes = (
(299,442,o),
(310,402,o),
(310,299,cs),
(310,276,l),
(196,244,o),
(41,235,o),
(41,102,cs),
(41,32,o),
(91,-10,o),
(162,-10,cs),
(250,-10,o),
(284,35,o),
(329,100,c),
(367,31,o),
(439,-10,o),
(525,-10,cs),
(598,-10,o),
(659,19,o),
(703,79,c),
(687,92,l),
(647,47,o),
(600,22,o),
(546,22,cs),
(442,22,o),
(396,99,o),
(396,236,c),
(720,236,l),
(720,373,o),
(648,465,o),
(524,465,cs),
(464,465,o),
(413,442,o),
(374,388,c),
(349,445,o),
(304,465,o),
(236,465,cs),
(181,465,o),
(85,443,o),
(85,363,cs),
(85,330,o),
(112,304,o),
(142,304,cs),
(153,304,o),
(164,308,o),
(175,315,c),
(138,375,o),
(178,442,o),
(238,442,cs)
);
},
{
closed = 1;
nodes = (
(132,214,o),
(225,230,o),
(310,250,c),
(310,115,l),
(286,67,o),
(248,28,o),
(200,28,cs),
(165,28,o),
(132,51,o),
(132,111,cs)
);
},
{
closed = 1;
nodes = (
(396,367,o),
(444,442,o),
(521,442,cs),
(598,442,o),
(626,354,o),
(626,261,c),
(611,261,o),
(589,260,o),
(570,260,cs),
(525,260,o),
(463,261,o),
(396,262,c)
);
}
);
width = 756;
}
);
unicode = 230;
},
{
glyphname = eth;
lastChange = "2024-09-21 16:44:51 +0000";
layers = (
{
layerId = m01;
shapes = (
{
closed = 1;
nodes = (
(317,674,o),
(392,604,o),
(392,369,c),
(367,432,o),
(313,471,o),
(236,471,cs),
(113,471,o),
(32,381,o),
(32,244,cs),
(32,89,o),
(122,-13,o),
(264,-13,cs),
(417,-13,o),
(489,141,o),
(489,342,cs),
(489,573,o),
(381,708,o),
(139,769,c),
(130,735,l)
);
},
{
closed = 1;
nodes = (
(384,70,o),
(343,9,o),
(261,9,cs),
(172,9,o),
(134,63,o),
(134,225,cs),
(134,385,o),
(164,449,o),
(255,449,cs),
(340,449,o),
(384,362,o),
(384,237,cs)
);
},
{
closed = 1;
nodes = (
(398,780,l),
(159,576,l),
(177,555,l),
(416,759,l)
);
}
);
width = 521;
}
);
unicode = 240;
},
{
glyphname = dcroat;
lastChange = "2026-06-02 14:09:52 +0000";
layers = (
{
layerId = m01;
shapes = (
{
closed = 1;
nodes = (
(577,569,l),
(299,569,l),
(299,543,l),
(577,543,l)
);
},
{
closed = 1;
nodes = (
(414,100,l),
(385,57,o),
(353,12,o),
(294,12,cs),
(194,12,o),
(148,118,o),
(148,222,cs),
(148,358,o),
(191,442,o),
(288,442,cs),
(341,442,o),
(394,413,o),
(414,370,c)
);
},
{
closed = 1;
nodes = (
(414,409,l),
(400,434,o),
(343,465,o),
(289,465,cs),
(160,465,o),
(52,368,o),
(52,226,cs),
(52,83,o),
(145,-10,o),
(269,-10,cs),
(334,-10,o),
(383,23,o),
(412,64,c),
(413,43,o),
(415,20,o),
(421,-4,c),
(473,0,o),
(525,0,o),
(577,0,c),
(577,21,l),
(521,21,o),
(502,30,o),
(502,129,cs),
(502,713,l),
(338,704,l),
(339,683,l),
(395,684,ls),
(409,684,o),
(414,679,o),
(414,641,cs)
);
}
);
width = 605;
}
);
unicode = 273;
},
{
glyphname = hbar;
lastChange = "2026-04-25 15:43:21 +0000";
layers = (
{
layerId = m01;
shapes = (
{
closed = 1;
nodes = (
(26,543,l),
(26,569,l),
(304,569,l),
(304,543,l)
);
},
{
closed = 1;
nodes = (
(493,30,o),
(512,21,o),
(568,21,c),
(568,0,l),
(329,0,l),
(329,21,l),
(385,21,o),
(404,30,o),
(404,129,cs),
(404,292,ls),
(404,365,o),
(378,423,o),
(314,423,cs),
(263,423,o),
(194,360,o),
(189,306,c),
(189,129,ls),
(189,30,o),
(208,21,o),
(264,21,c),
(264,0,l),
(26,0,l),
(26,21,l),
(82,21,o),
(101,30,o),
(101,129,cs),
(101,641,ls),
(101,679,o),
(96,684,o),
(82,684,cs),
(26,683,l),
(25,704,l),
(189,713,l),
(189,368,l),
(190,368,l),
(227,435,o),
(276,465,o),
(341,465,cs),
(434,465,o),
(493,411,o),
(493,311,cs),
(493,129,ls)
);
}
);
width = 593;
}
);
unicode = 295;
},
{
glyphname = jdotless;
lastChange = "2025-09-02 17:50:17 +0000";
layers = (
{
anchors = (
{
name = top;
pos = (127,504);
}
);
layerId = m01;
shapes = (
{
closed = 1;
nodes = (
(7,426,l),
(6,447,l),
(170,456,l),
(170,-68,ls),
(170,-166,o),
(128,-247,o),
(34,-247,cs),
(-17,-247,o),
(-71,-226,o),
(-71,-174,cs),
(-71,-140,o),
(-45,-117,o),
(-16,-117,cs),
(-3,-117,o),
(11,-122,o),
(23,-132,c),
(-18,-184,o),
(2,-226,o),
(38,-226,cs),
(77,-226,o),
(82,-186,o),
(82,-83,cs),
(82,384,ls),
(82,422,o),
(77,427,o),
(63,427,cs)
);
}
);
width = 267;
}
);
unicode = 567;
},
{
glyphname = lslash;
lastChange = "2026-04-25 15:45:42 +0000";
layers = (
{
anchors = (
{
name = bottom;
pos = (152,0);
},
{
name = caron;
pos = (296,505);
}
);
layerId = m01;
shapes = (
{
closed = 1;
nodes = (
(28,276,l),
(267,480,l),
(267,446,l),
(28,242,l)
);
},
{
closed = 1;
nodes = (
(104,641,ls),
(104,679,o),
(99,684,o),
(85,684,cs),
(29,683,l),
(28,704,l),
(192,713,l),
(192,129,ls),
(192,30,o),
(211,21,o),
(267,21,c),
(267,0,l),
(29,0,l),
(29,21,l),
(85,21,o),
(104,30,o),
(104,129,cs)
);
}
);
width = 295;
}
);
unicode = 322;
},
{
glyphname = oslash;
lastChange = "2024-09-18 17:27:24 +0000";
layers = (
{
anchors = (
{
name = bottom;
pos = (284,0);
},
{
name = top;
pos = (284,500);
}
);
layerId = m01;
shapes = (
{
closed = 1;
nodes = (
(528,361,o),
(419,465,o),
(296,465,cs),
(155,465,o),
(48,361,o),
(48,222,cs),
(48,89,o),
(153,-10,o),
(278,-10,cs),
(417,-10,o),
(528,96,o),
(528,235,cs)
);
},
{
closed = 1;
nodes = (
(431,78,o),
(383,12,o),
(300,12,cs),
(210,12,o),
(145,86,o),
(145,250,cs),
(145,376,o),
(190,442,o),
(283,442,cs),
(370,442,o),
(431,355,o),
(431,212,cs)
);
},
{
closed = 1;
nodes = (
(478,466,l),
(453,484,l),
(107,-4,l),
(132,-22,l)
);
}
);
width = 576;
}
);
unicode = 248;
},
{
glyphname = oe;
lastChange = "2024-09-15 12:18:50 +0000";
layers = (
{
layerId = m01;
shapes = (
{
closed = 1;
nodes = (
(735,261,o),
(713,260,o),
(694,260,cs),
(649,260,o),
(587,261,o),
(520,262,c),
(520,367,o),
(568,442,o),
(645,442,cs),
(722,442,o),
(750,354,o),
(750,261,c)
);
},
{
closed = 1;
nodes = (
(48,89,o),
(151,-10,o),
(278,-10,cs),
(355,-10,o),
(426,22,o),
(469,85,c),
(507,21,o),
(574,-10,o),
(649,-10,cs),
(722,-10,o),
(783,19,o),
(827,79,c),
(811,92,l),
(771,47,o),
(724,22,o),
(670,22,cs),
(566,22,o),
(520,99,o),
(520,236,c),
(844,236,l),
(844,373,o),
(772,465,o),
(648,465,cs),
(576,465,o),
(511,431,o),
(476,373,c),
(436,431,o),
(367,465,o),
(296,465,cs),
(155,465,o),
(48,361,o),
(48,222,cs)
);
},
{
closed = 1;
nodes = (
(145,376,o),
(190,442,o),
(283,442,cs),
(370,442,o),
(431,355,o),
(431,212,cs),
(431,78,o),
(383,12,o),
(300,12,cs),
(210,12,o),
(145,86,o),
(145,250,cs)
);
}
);
width = 890;
}
);
unicode = 339;
},
{
glyphname = thorn;
lastChange = "2026-04-25 15:42:11 +0000";
layers = (
{
layerId = m01;
shapes = (
{
closed = 1;
nodes = (
(193,355,l),
(236,408,o),
(285,442,o),
(330,442,cs),
(415,442,o),
(456,341,o),
(456,239,cs),
(456,103,o),
(411,12,o),
(316,12,cs),
(266,12,o),
(220,43,o),
(193,74,c)
);
},
{
closed = 1;
nodes = (
(104,-124,ls),
(104,-223,o),
(85,-232,o),
(29,-232,c),
(29,-253,l),
(267,-253,l),
(267,-232,l),
(211,-232,o),
(192,-223,o),
(192,-124,cs),
(192,45,l),
(218,20,o),
(262,-11,o),
(322,-10,cs),
(434,-11,o),
(552,100,o),
(552,248,cs),
(552,385,o),
(461,464,o),
(354,465,cs),
(282,464,o),
(224,422,o),
(192,385,c),
(192,713,l),
(28,704,l),
(29,683,l),
(85,684,ls),
(99,684,o),
(104,679,o),
(104,641,cs)
);
}
);
width = 604;
}
);
unicode = 254;
},
{
glyphname = germandbls;
lastChange = "2025-09-02 17:56:35 +0000";
layers = (
{
layerId = m01;
shapes = (
{
closed = 1;
nodes = (
(106,529,ls),
(106,665,o),
(165,731,o),
(292,731,cs),
(389,731,o),
(476,683,o),
(476,579,cs),
(476,475,o),
(382,430,o),
(317,401,c),
(330,405,o),
(341,406,o),
(356,406,cs),
(452,406,o),
(541,322,o),
(541,201,cs),
(541,77,o),
(450,-10,o),
(345,-10,cs),
(281,-10,o),
(221,21,o),
(221,73,cs),
(221,107,o),
(247,130,o),
(276,130,cs),
(289,130,o),
(303,125,o),
(315,115,c),
(274,63,o),
(296,11,o),
(347,11,cs),
(414,11,o),
(438,84,o),
(438,199,cs),
(438,308,o),
(384,380,o),
(312,380,cs),
(285,380,o),
(270,372,o),
(251,362,c),
(239,388,l),
(312,430,o),
(380,462,o),
(380,562,cs),
(380,634,o),
(369,709,o),
(294,709,cs),
(223,709,o),
(194,676,o),
(194,543,cs),
(194,53,ls),
(194,34,o),
(191,11,o),
(187,-4,c),
(135,0,o),
(83,0,o),
(31,0,c),
(31,21,l),
(87,21,o),
(106,30,o),
(106,129,cs)
);
}
);
width = 593;
}
);
unicode = 223;
},
{
glyphname = "A-cy";
lastChange = "2025-11-14 11:11:23 +0000";
layers = (
{
layerId = m01;
shapes = (
{
closed = 1;
nodes = (
(199,273,l),
(303,560,l),
(405,273,l)
);
},
{
closed = 1;
nodes = (
(489,38,o),
(479,23,o),
(408,23,c),
(408,0,l),
(676,0,l),
(676,23,l),
(610,23,o),
(600,43,o),
(557,161,cs),
(354,718,l),
(327,718,l),
(123,145,ls),
(83,34,o),
(70,23,o),
(-1,23,c),
(-1,0,l),
(199,0,l),
(199,23,l),
(128,23,o),
(112,45,o),
(154,155,cs),
(189,246,l),
(415,246,l),
(453,139,ls)
);
}
);
width = 675;
}
);
unicode = 1040;
},
{
glyphname = "Be-cy";
lastChange = "2026-06-13 18:57:59 +0000";
layers = (
{
layerId = m01;
shapes = (
{
closed = 1;
nodes = (
(261,363,o),
(290,363,o),
(310,363,cs),
(413,363,o),
(459,299,o),
(459,184,cs),
(459,76,o),
(411,19,o),
(324,19,cs),
(286,19,o),
(252,21,o),
(219,32,c),
(218,60,o),
(217,84,o),
(217,113,cs),
(217,360,l)
);
},
{
closed = 1;
nodes = (
(30,676,l),
(101,676,o),
(120,645,o),
(120,556,cs),
(120,143,ls),
(120,54,o),
(101,23,o),
(30,23,c),
(30,0,l),
(167,1,ls),
(205,1,o),
(305,-2,o),
(342,-2,cs),
(483,-2,o),
(570,58,o),
(570,200,cs),
(570,318,o),
(487,379,o),
(363,383,cs),
(309,385,o),
(253,383,o),
(217,383,c),
(217,677,l),
(420,671,o),
(518,693,o),
(536,507,c),
(563,507,l),
(563,700,l),
(30,700,l)
);
}
);
width = 620;
}
);
unicode = 1041;
},
{
glyphname = "Ve-cy";
lastChange = "2026-06-13 18:57:56 +0000";
layers = (
{
layerId = m01;
shapes = (
{
closed = 1;
nodes = (
(443,437,o),
(405,375,o),
(294,375,cs),
(269,375,o),
(244,376,o),
(218,379,c),
(218,675,l),
(241,676,o),
(270,678,o),
(290,678,cs),
(393,678,o),
(443,643,o),
(443,528,cs)
);
},
{
closed = 1;
nodes = (
(470,76,o),
(422,19,o),
(325,19,cs),
(287,19,o),
(253,21,o),
(220,32,c),
(219,60,o),
(218,84,o),
(218,113,cs),
(218,355,l),
(257,353,o),
(300,352,o),
(345,354,c),
(415,344,o),
(470,273,o),
(470,184,cs)
);
},
{
closed = 1;
nodes = (
(101,676,o),
(120,645,o),
(120,556,cs),
(120,143,ls),
(120,54,o),
(101,23,o),
(30,23,c),
(30,0,l),
(77,0,o),
(125,1,o),
(168,1,cs),
(206,1,o),
(306,-2,o),
(343,-2,cs),
(494,-2,o),
(581,58,o),
(581,196,cs),
(581,296,o),
(506,360,o),
(395,367,c),
(485,384,o),
(555,442,o),
(555,530,cs),
(555,643,o),
(467,701,o),
(343,701,cs),
(289,701,o),
(236,698,o),
(170,698,cs),
(116,698,o),
(72,700,o),
(30,700,c),
(30,676,l)
);
}
);
width = 631;
}
);
unicode = 1042;
},
{
glyphname = "Ge-cy";
lastChange = "2026-06-13 18:55:04 +0000";
layers = (
{
layerId = m01;
shapes = (
{
closed = 1;
nodes = (
(216,677,l),
(419,671,o),
(518,693,o),
(536,507,c),
(563,507,l),
(563,700,l),
(30,700,l),
(30,676,l),
(101,676,o),
(120,645,o),
(120,556,cs),
(120,143,ls),
(120,54,o),
(101,23,o),
(30,23,c),
(30,0,l),
(306,0,l),
(306,23,l),
(235,23,o),
(216,54,o),
(216,143,cs)
);
}
);
width = 588;
}
);
unicode = 1043;
},
{
glyphname = "Geupturn-cy";
lastChange = "2026-06-13 18:55:07 +0000";
layers = (
{
layerId = m01;
shapes = (
{
closed = 1;
nodes = (
(216,677,l),
(543,677,l),
(543,840,l),
(516,840,l),
(498,694,o),
(411,700,o),
(197,700,cs),
(30,700,l),
(30,676,l),
(101,676,o),
(120,645,o),
(120,556,cs),
(120,143,ls),
(120,54,o),
(101,23,o),
(30,23,c),
(30,0,l),
(306,0,l),
(306,23,l),
(235,23,o),
(216,54,o),
(216,143,cs)
);
}
);
width = 568;
}
);
unicode = 1168;
},
{
glyphname = "Gestroke-cy";
lastChange = "2026-06-13 18:55:10 +0000";
layers = (
{
layerId = m01;
shapes = (
{
closed = 1;
nodes = (
(216,355,l),
(392,355,l),
(392,381,l),
(216,381,l),
(216,677,l),
(419,671,o),
(518,693,o),
(536,507,c),
(563,507,l),
(563,700,l),
(30,700,l),
(30,676,l),
(101,676,o),
(120,645,o),
(120,556,cs),
(120,381,l),
(20,381,l),
(20,355,l),
(120,355,l),
(120,143,ls),
(120,54,o),
(101,23,o),
(30,23,c),
(30,0,l),
(306,0,l),
(306,23,l),
(235,23,o),
(216,54,o),
(216,143,cs)
);
}
);
width = 588;
}
);
unicode = 1170;
},
{
glyphname = "De-cy";
lastChange = "2025-11-14 11:11:23 +0000";
layers = (
{
layerId = m01;
shapes = (
{
closed = 1;
nodes = (
(151,26,o),
(166,54,o),
(179,117,cs),
(192,178,o),
(208,270,o),
(216,380,cs),
(221,453,o),
(223,489,o),
(223,556,c),
(223,645,o),
(204,676,o),
(133,676,c),
(133,700,l),
(742,700,l),
(742,676,l),
(671,676,o),
(652,645,o),
(652,556,cs),
(652,26,l),
(742,26,l),
(742,-187,l),
(715,-187,l),
(697,19,o),
(598,0,o),
(385,0,cs),
(172,0,o),
(53,19,o),
(35,-187,c),
(8,-187,l),
(8,26,l),
(95,26,ls)
);
},
{
closed = 1;
nodes = (
(555,26,l),
(555,674,l),
(304,674,l),
(310,594,o),
(309,506,o),
(308,450,cs),
(305,262,o),
(268,107,o),
(231,26,c)
);
}
);
width = 772;
}
);
unicode = 1044;
},
{
glyphname = "Ie-cy";
lastChange = "2025-11-14 11:11:23 +0000";
layers = (
{
anchors = (
{
name = top;
pos = (330,760);
}
);
layerId = m01;
shapes = (
{
closed = 1;
nodes = (
(30,0,l),
(577,0,l),
(577,223,l),
(551,223,l),
(544,74,o),
(473,23,o),
(313,23,cs),
(279,23,o),
(252,24,o),
(220,25,c),
(217,65,o),
(216,105,o),
(216,150,cs),
(216,346,l),
(263,346,ls),
(350,346,o),
(398,336,o),
(402,222,c),
(428,222,l),
(428,491,l),
(402,491,l),
(400,407,o),
(372,371,o),
(304,371,cs),
(216,371,l),
(216,677,l),
(416,671,o),
(510,693,o),
(527,507,c),
(553,507,l),
(552,572,o),
(552,636,o),
(552,700,c),
(30,700,l),
(30,676,l),
(101,676,o),
(120,645,o),
(120,556,cs),
(120,143,ls),
(120,54,o),
(101,23,o),
(30,23,c)
);
}
);
width = 641;
}
);
unicode = 1045;
},
{
glyphname = "Zhe-cy";
lastChange = "2025-11-14 11:11:23 +0000";
layers = (
{
layerId = m01;
shapes = (
{
closed = 1;
nodes = (
(397,371,l),
(418,372,o),
(439,372,o),
(461,373,c),
(461,557,ls),
(461,646,o),
(443,677,o),
(372,677,c),
(372,700,l),
(648,700,l),
(648,677,l),
(577,677,o),
(559,646,o),
(559,557,cs),
(559,373,l),
(581,372,o),
(602,372,o),
(623,371,c),
(811,604,ls),
(848,650,o),
(837,676,o),
(771,676,c),
(771,700,l),
(989,700,l),
(989,676,l),
(909,676,o),
(893,667,o),
(827,584,cs),
(656,369,l),
(793,357,o),
(871,298,o),
(899,183,cs),
(912,130,ls),
(934,41,o),
(949,12,o),
(981,12,cs),
(993,12,o),
(1005,16,o),
(1019,23,c),
(1027,3,l),
(1006,-6,o),
(989,-13,o),
(954,-13,cs),
(851,-13,o),
(817,58,o),
(797,154,cs),
(790,188,ls),
(768,297,o),
(687,348,o),
(604,348,cs),
(559,348,l),
(559,143,ls),
(559,54,o),
(577,23,o),
(648,23,c),
(648,0,l),
(372,0,l),
(372,23,l),
(443,23,o),
(461,54,o),
(461,143,cs),
(461,348,l),
(416,348,ls),
(333,348,o),
(252,297,o),
(230,188,cs),
(223,154,ls),
(203,58,o),
(169,-13,o),
(66,-13,cs),
(31,-13,o),
(14,-6,o),
(-7,3,c),
(1,23,l),
(15,16,o),
(27,12,o),
(39,12,cs),
(71,12,o),
(86,41,o),
(108,130,cs),
(121,183,ls),
(149,298,o),
(227,357,o),
(364,369,c),
(193,584,ls),
(127,667,o),
(111,676,o),
(31,676,c),
(31,700,l),
(249,700,l),
(249,676,l),
(183,676,o),
(172,650,o),
(209,604,cs)
);
}
);
width = 1020;
}
);
unicode = 1046;
},
{
glyphname = "Ze-cy";
lastChange = "2026-06-13 19:09:59 +0000";
layers = (
{
layerId = m01;
shapes = (
{
closed = 1;
nodes = (
(414,368,o),
(498,290,o),
(498,194,cs),
(498,69,o),
(394,-12,o),
(244,-12,cs),
(140,-12,o),
(30,39,o),
(30,125,cs),
(30,171,o),
(67,198,o),
(102,198,cs),
(115,198,o),
(127,194,o),
(138,187,c),
(94,108,o),
(142,12,o),
(240,12,cs),
(346,12,o),
(395,84,o),
(395,189,cs),
(395,308,o),
(331,354,o),
(245,354,cs),
(174,354,l),
(174,381,l),
(244,381,ls),
(345,381,o),
(383,437,o),
(383,533,cs),
(383,638,o),
(346,690,o),
(257,690,cs),
(151,690,o),
(116,597,o),
(158,525,c),
(147,518,o),
(135,514,o),
(122,514,cs),
(87,514,o),
(50,541,o),
(50,587,cs),
(50,673,o),
(160,714,o),
(261,714,cs),
(395,714,o),
(486,642,o),
(486,536,cs),
(486,430,o),
(414,376,o),
(311,370,c),
(311,368,l)
);
}
);
width = 538;
}
);
unicode = 1047;
},
{
glyphname = "Ii-cy";
lastChange = "2025-12-12 13:49:27 +0000";
layers = (
{
anchors = (
{
name = top;
pos = (366,760);
}
);
layerId = m01;
shapes = (
{
closed = 1;
nodes = (
(216,153,l),
(512,502,l),
(512,143,ls),
(512,54,o),
(493,23,o),
(422,23,c),
(422,0,l),
(699,0,l),
(699,23,l),
(628,23,o),
(609,54,o),
(609,143,cs),
(609,556,ls),
(609,645,o),
(628,676,o),
(699,676,c),
(699,700,l),
(422,700,l),
(422,676,l),
(493,676,o),
(512,645,o),
(512,556,cs),
(512,546,l),
(216,197,l),
(216,556,ls),
(216,645,o),
(235,676,o),
(306,676,c),
(306,700,l),
(30,700,l),
(30,676,l),
(101,676,o),
(120,645,o),
(120,556,cs),
(120,143,ls),
(120,54,o),
(101,23,o),
(30,23,c),
(30,0,l),
(306,0,l),
(306,23,l),
(235,23,o),
(216,54,o),
(216,143,cs)
);
}
);
width = 729;
}
);
unicode = 1048;
},
{
glyphname = "Ka-cy";
lastChange = "2025-11-14 11:11:23 +0000";
layers = (
{
layerId = m01;
shapes = (
{
closed = 1;
nodes = (
(218,645,o),
(236,676,o),
(307,676,c),
(307,700,l),
(30,700,l),
(30,676,l),
(101,676,o),
(119,645,o),
(119,556,cs),
(119,143,ls),
(119,54,o),
(101,23,o),
(30,23,c),
(30,0,l),
(306,0,l),
(306,23,l),
(235,23,o),
(217,54,o),
(217,143,cs),
(217,348,l),
(262,348,ls),
(345,348,o),
(426,297,o),
(448,188,cs),
(455,154,ls),
(475,58,o),
(509,-13,o),
(612,-13,cs),
(647,-13,o),
(664,-6,o),
(685,3,c),
(677,23,l),
(663,16,o),
(651,12,o),
(639,12,cs),
(607,12,o),
(592,41,o),
(570,130,cs),
(557,183,ls),
(529,298,o),
(451,357,o),
(314,369,c),
(485,584,ls),
(551,667,o),
(567,676,o),
(647,676,c),
(647,700,l),
(429,700,l),
(429,676,l),
(495,676,o),
(506,650,o),
(469,604,cs),
(281,371,l),
(260,372,o),
(239,372,o),
(217,373,c),
(218,556,ls)
);
}
);
width = 678;
}
);
unicode = 1050;
},
{
glyphname = "El-cy";
lastChange = "2025-11-14 11:11:23 +0000";
layers = (
{
layerId = m01;
shapes = (
{
closed = 1;
nodes = (
(145,11,o),
(160,54,o),
(173,117,cs),
(186,178,o),
(202,270,o),
(210,380,cs),
(215,453,o),
(217,489,o),
(217,556,cs),
(217,645,o),
(198,676,o),
(127,676,c),
(127,700,l),
(736,700,l),
(736,676,l),
(665,676,o),
(646,645,o),
(646,556,cs),
(646,143,ls),
(646,54,o),
(665,23,o),
(736,23,c),
(736,0,l),
(459,0,l),
(459,23,l),
(530,23,o),
(549,54,o),
(549,143,cs),
(549,674,l),
(298,674,l),
(304,594,o),
(303,506,o),
(302,450,cs),
(301,389,o),
(297,314,o),
(285,238,cs),
(268,134,o),
(244,-13,o),
(108,-13,cs),
(57,-13,o),
(2,16,o),
(2,79,cs),
(2,124,o),
(30,151,o),
(63,151,cs),
(78,151,o),
(94,145,o),
(108,132,c),
(62,79,o),
(66,11,o),
(108,11,cs)
);
}
);
width = 768;
}
);
unicode = 1051;
},
{
glyphname = "Em-cy";
lastChange = "2025-11-14 11:11:23 +0000";
layers = (
{
layerId = m01;
shapes = (
{
closed = 1;
nodes = (
(118,143,ls),
(118,54,o),
(97,23,o),
(26,23,c),
(26,0,l),
(234,0,l),
(234,23,l),
(163,23,o),
(143,54,o),
(143,143,cs),
(143,624,l),
(366,3,l),
(382,3,l),
(611,644,l),
(611,143,ls),
(611,54,o),
(592,23,o),
(521,23,c),
(521,0,l),
(798,0,l),
(798,23,l),
(727,23,o),
(708,54,o),
(708,143,cs),
(708,556,ls),
(708,645,o),
(727,676,o),
(799,676,c),
(799,700,l),
(606,700,l),
(413,170,l),
(222,700,l),
(29,700,l),
(29,676,l),
(101,676,o),
(118,645,o),
(118,556,cs)
);
}
);
width = 825;
}
);
unicode = 1052;
},
{
glyphname = "En-cy";
lastChange = "2025-11-14 11:11:23 +0000";
layers = (
{
layerId = m01;
shapes = (
{
closed = 1;
nodes = (
(216,348,l),
(512,348,l),
(512,143,ls),
(512,54,o),
(493,23,o),
(422,23,c),
(422,0,l),
(699,0,l),
(699,23,l),
(628,23,o),
(609,54,o),
(609,143,cs),
(609,556,ls),
(609,645,o),
(628,676,o),
(699,676,c),
(699,700,l),
(422,700,l),
(422,676,l),
(493,676,o),
(512,645,o),
(512,556,cs),
(512,374,l),
(216,374,l),
(216,556,l),
(216,645,o),
(235,676,o),
(306,676,c),
(306,700,l),
(30,700,l),
(30,676,l),
(101,676,o),
(120,645,o),
(120,556,cs),
(120,143,ls),
(120,54,o),
(101,23,o),
(30,23,c),
(30,0,l),
(306,0,l),
(306,23,l),
(235,23,o),
(216,54,o),
(216,143,cs)
);
}
);
width = 729;
}
);
unicode = 1053;
},
{
glyphname = "O-cy";
lastChange = "2026-06-13 18:54:36 +0000";
layers = (
{
layerId = m01;
shapes = (
{
closed = 1;
nodes = (
(765,556,o),
(608,714,o),
(426,714,cs),
(217,714,o),
(53,556,o),
(53,343,cs),
(53,138,o),
(210,-13,o),
(399,-13,cs),
(605,-13,o),
(765,149,o),
(765,363,cs)
);
},
{
closed = 1;
nodes = (
(650,114,o),
(574,12,o),
(433,12,cs),
(281,12,o),
(168,128,o),
(168,386,cs),
(168,586,o),
(248,690,o),
(406,690,cs),
(553,690,o),
(650,553,o),
(650,327,cs)
);
}
);
width = 818;
}
);
unicode = 1054;
},
{
glyphname = "Pe-cy";
lastChange = "2025-11-14 11:11:23 +0000";
layers = (
{
layerId = m01;
shapes = (
{
closed = 1;
nodes = (
(217,674,l),
(492,674,l),
(492,143,ls),
(492,54,o),
(473,23,o),
(402,23,c),
(402,0,l),
(679,0,l),
(679,23,l),
(608,23,o),
(589,54,o),
(589,143,cs),
(589,556,ls),
(589,645,o),
(608,676,o),
(679,676,c),
(679,700,l),
(30,700,l),
(30,676,l),
(101,676,o),
(120,645,o),
(120,556,cs),
(120,143,ls),
(120,54,o),
(101,23,o),
(30,23,c),
(30,0,l),
(306,0,l),
(306,23,l),
(235,23,o),
(217,54,o),
(217,143,cs)
);
}
);
width = 709;
}
);
unicode = 1055;
},
{
glyphname = "Er-cy";
lastChange = "2026-06-13 18:56:27 +0000";
layers = (
{
layerId = m01;
shapes = (
{
closed = 1;
nodes = (
(451,397,o),
(402,333,o),
(294,333,cs),
(268,333,o),
(246,334,o),
(217,337,c),
(217,676,l),
(237,677,o),
(257,678,o),
(278,678,cs),
(410,678,o),
(449,628,o),
(451,501,cs)
);
},
{
closed = 1;
nodes = (
(217,313,l),
(243,311,o),
(267,310,o),
(292,310,cs),
(448,310,o),
(559,378,o),
(559,508,cs),
(559,630,o),
(464,701,o),
(317,701,cs),
(265,701,o),
(220,700,o),
(173,700,cs),
(30,700,l),
(30,676,l),
(101,676,o),
(120,645,o),
(120,556,cs),
(120,143,ls),
(120,54,o),
(101,23,o),
(30,23,c),
(30,0,l),
(307,0,l),
(307,23,l),
(236,23,o),
(217,54,o),
(217,143,cs)
);
}
);
width = 599;
}
);
unicode = 1056;
},
{
glyphname = "Es-cy";
lastChange = "2026-06-13 18:56:38 +0000";
layers = (
{
layerId = m01;
shapes = (
{
closed = 1;
nodes = (
(559,200,l),
(539,44,o),
(465,12,o),
(379,12,cs),
(235,12,o),
(156,156,o),
(156,352,cs),
(156,568,o),
(233,690,o),
(367,690,cs),
(474,690,o),
(537,632,o),
(546,510,c),
(571,510,l),
(571,698,l),
(546,698,l),
(539,683,o),
(532,678,o),
(523,678,cs),
(498,678,o),
(447,714,o),
(360,714,cs),
(174,714,o),
(40,552,o),
(40,343,cs),
(40,149,o),
(168,-13,o),
(359,-13,cs),
(455,-13,o),
(508,27,o),
(532,27,cs),
(545,27,o),
(556,23,o),
(559,0,c),
(584,0,l),
(584,200,l)
);
}
);
width = 635;
}
);
unicode = 1057;
},
{
glyphname = "Te-cy";
lastChange = "2025-11-14 11:11:23 +0000";
layers = (
{
layerId = m01;
shapes = (
{
closed = 1;
nodes = (
(379,677,l),
(433,675,ls),
(538,671,o),
(584,628,o),
(596,504,c),
(621,504,l),
(620,700,l),
(39,700,l),
(38,504,l),
(63,504,l),
(75,628,o),
(121,671,o),
(226,675,cs),
(280,677,l),
(280,105,ls),
(280,76,o),
(280,49,o),
(278,24,c),
(251,24,o),
(223,23,o),
(191,23,c),
(191,0,l),
(468,0,l),
(468,23,l),
(436,23,o),
(407,24,o),
(380,24,c),
(378,49,o),
(378,76,o),
(378,105,cs),
(378,677,l)
);
}
);
width = 659;
}
);
unicode = 1058;
},
{
glyphname = "U-cy";
lastChange = "2025-11-14 11:11:23 +0000";
layers = (
{
anchors = (
{
name = top;
pos = (342,760);
}
);
layerId = m01;
shapes = (
{
closed = 1;
nodes = (
(364,247,l),
(212,561,ls),
(165,658,o),
(186,677,o),
(257,677,c),
(257,700,l),
(-12,700,l),
(-12,677,l),
(54,677,o),
(55,650,o),
(110,539,cs),
(309,136,l),
(299,117,ls),
(260,43,o),
(241,11,o),
(199,11,cs),
(146,11,o),
(142,79,o),
(188,132,c),
(174,145,o),
(158,151,o),
(143,151,cs),
(110,151,o),
(82,124,o),
(82,79,cs),
(82,16,o),
(137,-13,o),
(188,-13,cs),
(243,-13,o),
(278,8,o),
(313,79,cs),
(547,555,ls),
(600,662,o),
(601,677,o),
(672,677,c),
(672,700,l),
(470,700,l),
(470,677,l),
(541,677,o),
(565,648,o),
(513,544,cs)
);
}
);
width = 660;
}
);
unicode = 1059;
},
{
glyphname = "Ef-cy";
lastChange = "2026-06-13 19:10:04 +0000";
layers = (
{
layerId = m01;
shapes = (
{
closed = 1;
nodes = (
(160,619,o),
(28,524,o),
(28,345,cs),
(28,167,o),
(163,78,o),
(349,64,c),
(349,20,o),
(334,15,o),
(245,15,c),
(245,-8,l),
(554,-8,l),
(554,15,l),
(465,15,o),
(451,20,o),
(451,64,c),
(641,84,o),
(770,182,o),
(770,360,cs),
(770,533,o),
(634,627,o),
(451,639,c),
(451,680,o),
(470,685,o),
(554,685,c),
(554,708,l),
(245,708,l),
(245,685,l),
(329,685,o),
(349,680,o),
(349,639,c)
);
},
{
closed = 1;
nodes = (
(143,549,o),
(216,601,o),
(349,613,c),
(349,600,l),
(349,100,l),
(349,92,l),
(222,113,o),
(143,184,o),
(143,379,cs)
);
},
{
closed = 1;
nodes = (
(451,100,l),
(451,600,l),
(451,611,l),
(581,592,o),
(655,516,o),
(655,331,cs),
(655,148,o),
(578,95,o),
(451,87,c)
);
}
);
width = 798;
}
);
unicode = 1060;
},
{
glyphname = "Ha-cy";
lastChange = "2025-11-14 11:11:23 +0000";
layers = (
{
layerId = m01;
shapes = (
{
closed = 1;
nodes = (
(328,336,l),
(198,539,ls),
(132,641,o),
(118,677,o),
(40,677,c),
(40,700,l),
(315,700,l),
(315,677,l),
(244,677,o),
(234,666,o),
(297,574,c),
(394,419,l),
(480,544,ls),
(540,631,o),
(574,676,o),
(471,676,c),
(471,700,l),
(683,700,l),
(683,676,l),
(603,676,o),
(586,649,o),
(526,563,cs),
(410,397,l),
(563,161,ls),
(629,59,o),
(643,23,o),
(721,23,c),
(721,0,l),
(446,0,l),
(446,23,l),
(517,23,o),
(525,32,o),
(464,126,cs),
(342,314,l),
(234,156,ls),
(174,69,o),
(140,24,o),
(243,24,c),
(243,0,l),
(31,0,l),
(31,24,l),
(111,24,o),
(128,51,o),
(188,137,cs)
);
}
);
width = 749;
}
);
unicode = 1061;
},
{
glyphname = "Che-cy";
lastChange = "2025-11-14 11:11:23 +0000";
layers = (
{
layerId = m01;
shapes = (
{
closed = 1;
nodes = (
(217,557,ls),
(217,646,o),
(236,677,o),
(307,677,c),
(307,700,l),
(30,700,l),
(30,677,l),
(101,677,o),
(120,646,o),
(120,557,cs),
(120,413,ls),
(120,296,o),
(182,245,o),
(308,245,cs),
(389,245,o),
(462,272,o),
(492,325,c),
(493,325,l),
(493,144,l),
(493,55,o),
(474,24,o),
(403,24,c),
(403,0,l),
(679,0,l),
(679,24,l),
(608,24,o),
(589,55,o),
(589,144,cs),
(589,557,ls),
(589,646,o),
(608,677,o),
(679,677,c),
(679,700,l),
(403,700,l),
(403,677,l),
(474,677,o),
(493,646,o),
(493,557,cs),
(493,381,l),
(483,332,o),
(410,288,o),
(334,288,cs),
(250,288,o),
(217,339,o),
(217,423,cs)
);
}
);
width = 709;
}
);
unicode = 1063;
},
{
glyphname = "Tse-cy";
lastChange = "2025-11-14 11:11:23 +0000";
layers = (
{
layerId = m01;
shapes = (
{
closed = 1;
nodes = (
(219,646,o),
(237,677,o),
(308,677,c),
(308,700,l),
(32,700,l),
(32,677,l),
(103,677,o),
(122,646,o),
(122,557,cs),
(122,144,ls),
(122,55,o),
(103,24,o),
(32,24,c),
(32,0,l),
(304,0,ls),
(537,0,o),
(636,19,o),
(654,-187,c),
(681,-187,l),
(681,26,l),
(591,26,l),
(591,557,ls),
(591,646,o),
(610,677,o),
(681,677,c),
(681,700,l),
(404,700,l),
(404,677,l),
(475,677,o),
(494,646,o),
(494,557,cs),
(494,26,l),
(219,26,l),
(219,557,ls)
);
}
);
width = 707;
}
);
unicode = 1062;
},
{
glyphname = "Sha-cy";
lastChange = "2025-11-14 11:11:23 +0000";
layers = (
{
layerId = m01;
shapes = (
{
closed = 1;
nodes = (
(993,0,l),
(993,24,l),
(922,24,o),
(903,55,o),
(903,144,cs),
(903,557,ls),
(903,646,o),
(922,677,o),
(993,677,c),
(993,700,l),
(716,700,l),
(716,677,l),
(787,677,o),
(806,646,o),
(806,557,cs),
(806,26,l),
(561,26,l),
(561,557,ls),
(561,646,o),
(580,677,o),
(651,677,c),
(651,700,l),
(374,700,l),
(374,677,l),
(445,677,o),
(464,646,o),
(464,557,cs),
(464,26,l),
(219,26,l),
(219,557,ls),
(219,646,o),
(237,677,o),
(308,677,c),
(308,700,l),
(32,700,l),
(32,677,l),
(103,677,o),
(122,646,o),
(122,557,cs),
(122,144,ls),
(122,55,o),
(103,24,o),
(32,24,c),
(32,0,l)
);
}
);
width = 1025;
}
);
unicode = 1064;
},
{
glyphname = "Shcha-cy";
lastChange = "2025-11-14 11:11:23 +0000";
layers = (
{
layerId = m01;
shapes = (
{
closed = 1;
nodes = (
(903,557,ls),
(903,646,o),
(922,677,o),
(993,677,c),
(993,700,l),
(716,700,l),
(716,677,l),
(787,677,o),
(806,646,o),
(806,557,cs),
(806,26,l),
(561,26,l),
(561,557,ls),
(561,646,o),
(580,677,o),
(651,677,c),
(651,700,l),
(374,700,l),
(374,677,l),
(445,677,o),
(464,646,o),
(464,557,cs),
(464,26,l),
(219,26,l),
(219,557,ls),
(219,646,o),
(237,677,o),
(308,677,c),
(308,700,l),
(32,700,l),
(32,677,l),
(103,677,o),
(122,646,o),
(122,557,cs),
(122,144,ls),
(122,55,o),
(103,24,o),
(32,24,c),
(32,0,l),
(616,0,ls),
(849,0,o),
(948,19,o),
(966,-187,c),
(993,-187,l),
(993,26,l),
(903,26,l)
);
}
);
width = 1019;
}
);
unicode = 1065;
},
{
glyphname = "Dzhe-cy";
lastChange = "2025-11-14 11:11:23 +0000";
layers = (
{
layerId = m01;
shapes = (
{
closed = 1;
nodes = (
(219,646,o),
(237,677,o),
(308,677,c),
(308,700,l),
(32,700,l),
(32,677,l),
(103,677,o),
(122,646,o),
(122,557,cs),
(122,144,ls),
(122,55,o),
(103,24,o),
(32,24,c),
(32,0,l),
(203,0,ls),
(286,0,o),
(343,-10,o),
(343,-187,c),
(370,-187,l),
(370,-10,o),
(426,0,o),
(510,0,cs),
(681,0,l),
(681,24,l),
(610,24,o),
(591,55,o),
(591,144,cs),
(591,557,ls),
(591,646,o),
(610,677,o),
(681,677,c),
(681,700,l),
(404,700,l),
(404,677,l),
(475,677,o),
(494,646,o),
(494,557,cs),
(494,26,l),
(219,26,l),
(219,557,ls)
);
}
);
width = 713;
}
);
unicode = 1039;
},
{
glyphname = "Softsign-cy";
lastChange = "2025-11-14 11:11:23 +0000";
layers = (
{
layerId = m01;
shapes = (
{
closed = 1;
nodes = (
(468,65,o),
(412,27,o),
(280,27,cs),
(259,27,o),
(239,28,o),
(219,29,c),
(219,359,l),
(248,362,o),
(270,363,o),
(288,363,cs),
(404,363,o),
(468,313,o),
(468,189,cs)
);
},
{
closed = 1;
nodes = (
(219,646,o),
(238,677,o),
(309,677,c),
(309,700,l),
(32,700,l),
(32,677,l),
(103,677,o),
(122,646,o),
(122,557,cs),
(122,144,ls),
(122,55,o),
(103,24,o),
(32,24,c),
(32,0,l),
(175,0,ls),
(222,0,o),
(267,-1,o),
(319,-1,cs),
(466,-1,o),
(576,63,o),
(576,202,cs),
(576,335,o),
(450,390,o),
(294,390,cs),
(269,390,o),
(245,389,o),
(219,387,c),
(219,557,ls)
);
}
);
width = 604;
}
);
unicode = 1068;
},
{
glyphname = "Hardsign-cy";
lastChange = "2025-11-14 11:11:23 +0000";
layers = (
{
layerId = m01;
shapes = (
{
closed = 1;
nodes = (
(630,65,o),
(574,27,o),
(442,27,cs),
(421,27,o),
(401,28,o),
(381,29,c),
(381,359,l),
(410,362,o),
(432,363,o),
(450,363,cs),
(566,363,o),
(630,313,o),
(630,189,cs)
);
},
{
closed = 1;
nodes = (
(284,55,o),
(265,24,o),
(194,24,c),
(194,0,l),
(337,0,ls),
(384,0,o),
(429,-1,o),
(481,-1,cs),
(628,-1,o),
(738,63,o),
(738,202,cs),
(738,335,o),
(612,390,o),
(456,390,cs),
(431,390,o),
(407,389,o),
(381,387,c),
(381,557,ls),
(381,646,o),
(400,677,o),
(471,677,c),
(471,700,l),
(43,700,l),
(42,500,l),
(67,500,l),
(79,629,o),
(125,671,o),
(230,675,cs),
(284,677,l),
(284,144,ls)
);
}
);
width = 766;
}
);
unicode = 1066;
},
{
glyphname = "Lje-cy";
lastChange = "2025-11-14 11:11:23 +0000";
layers = (
{
layerId = m01;
shapes = (
{
closed = 1;
nodes = (
(529,674,l),
(278,674,l),
(284,594,o),
(283,506,o),
(282,450,cs),
(281,389,o),
(275,314,o),
(265,238,cs),
(251,135,o),
(241,87,o),
(219,50,cs),
(193,8,o),
(156,-13,o),
(108,-13,cs),
(57,-13,o),
(2,16,o),
(2,79,cs),
(2,124,o),
(30,151,o),
(63,151,cs),
(78,151,o),
(94,145,o),
(108,132,c),
(62,79,o),
(66,11,o),
(108,11,cs),
(145,11,o),
(160,54,o),
(173,117,cs),
(186,178,o),
(202,270,o),
(210,380,cs),
(215,453,o),
(217,489,o),
(217,556,c),
(217,645,o),
(198,676,o),
(127,676,c),
(127,700,l),
(716,700,l),
(716,676,l),
(645,676,o),
(626,645,o),
(626,556,cs),
(626,387,l),
(652,389,o),
(676,390,o),
(701,390,cs),
(857,390,o),
(983,335,o),
(983,202,cs),
(983,63,o),
(873,-1,o),
(726,-1,cs),
(674,-1,o),
(629,0,o),
(582,0,cs),
(439,0,l),
(439,24,l),
(510,24,o),
(529,55,o),
(529,144,cs)
);
},
{
closed = 1;
nodes = (
(875,313,o),
(811,363,o),
(695,363,cs),
(677,363,o),
(655,362,o),
(626,359,c),
(626,29,l),
(646,28,o),
(666,27,o),
(687,27,cs),
(819,27,o),
(875,65,o),
(875,189,cs)
);
}
);
width = 1011;
}
);
unicode = 1033;
},
{
glyphname = "Nje-cy";
lastChange = "2025-11-14 11:11:23 +0000";
layers = (
{
layerId = m01;
shapes = (
{
closed = 1;
nodes = (
(844,65,o),
(788,27,o),
(656,27,cs),
(635,27,o),
(615,28,o),
(595,29,c),
(595,359,l),
(624,362,o),
(646,363,o),
(664,363,cs),
(780,363,o),
(844,313,o),
(844,189,cs)
);
},
{
closed = 1;
nodes = (
(306,0,l),
(306,23,l),
(235,23,o),
(216,54,o),
(216,143,cs),
(216,355,l),
(498,355,l),
(498,144,ls),
(498,55,o),
(479,24,o),
(408,24,c),
(408,0,l),
(551,0,ls),
(598,0,o),
(643,-1,o),
(695,-1,cs),
(842,-1,o),
(952,63,o),
(952,202,cs),
(952,335,o),
(826,390,o),
(670,390,cs),
(645,390,o),
(621,389,o),
(595,387,c),
(595,557,ls),
(595,646,o),
(614,677,o),
(685,677,c),
(685,700,l),
(408,700,l),
(408,677,l),
(479,677,o),
(498,646,o),
(498,557,cs),
(498,381,l),
(216,381,l),
(216,556,ls),
(216,645,o),
(235,676,o),
(306,676,c),
(306,700,l),
(30,700,l),
(30,676,l),
(101,676,o),
(120,645,o),
(120,556,cs),
(120,143,ls),
(120,54,o),
(101,23,o),
(30,23,c),
(30,0,l)
);
}
);
width = 980;
}
);
unicode = 1034;
},
{
glyphname = "E-cy";
lastChange = "2026-06-13 19:09:44 +0000";
layers = (
{
layerId = m01;
shapes = (
{
closed = 1;
nodes = (
(418,377,l),
(418,350,l),
(156,350,l),
(157,155,o),
(236,12,o),
(392,12,cs),
(477,12,o),
(554,67,o),
(541,127,c),
(549,136,o),
(558,140,o),
(568,140,cs),
(578,140,o),
(583,136,o),
(587,132,cs),
(591,127,o),
(594,121,o),
(594,114,cs),
(594,93,o),
(582,72,o),
(561,53,cs),
(520,16,o),
(449,-12,o),
(379,-12,cs),
(168,-12,o),
(40,149,o),
(40,343,cs),
(40,552,o),
(174,714,o),
(360,714,cs),
(464,714,o),
(574,673,o),
(574,587,cs),
(574,541,o),
(537,514,o),
(502,514,cs),
(489,514,o),
(477,518,o),
(466,525,c),
(508,597,o),
(473,690,o),
(367,690,cs),
(238,690,o),
(162,577,o),
(156,377,c)
);
}
);
width = 624;
}
);
unicode = 1028;
},
{
glyphname = "Ereversed-cy";
lastChange = "2026-06-13 19:09:48 +0000";
layers = (
{
layerId = m01;
shapes = (
{
closed = 1;
nodes = (
(380,12,o),
(457,155,o),
(458,350,c),
(196,350,l),
(196,377,l),
(458,377,l),
(452,587,o),
(376,690,o),
(259,690,cs),
(141,690,o),
(110,597,o),
(152,525,c),
(141,518,o),
(129,514,o),
(116,514,cs),
(81,514,o),
(44,541,o),
(44,587,cs),
(44,673,o),
(150,714,o),
(266,714,cs),
(440,714,o),
(574,572,o),
(574,360,cs),
(574,149,o),
(447,-13,o),
(256,-12,cs),
(131,-12,o),
(30,39,o),
(30,125,cs),
(30,171,o),
(67,198,o),
(102,198,cs),
(115,198,o),
(127,194,o),
(138,187,c),
(94,108,o),
(137,12,o),
(256,12,cs)
);
}
);
width = 614;
}
);
unicode = 1069;
},
{
glyphname = "I-cy";
lastChange = "2025-11-14 11:11:23 +0000";
layers = (
{
anchors = (
{
name = top;
pos = (180,760);
}
);
layerId = m01;
shapes = (
{
closed = 1;
nodes = (
(104,676,o),
(123,645,o),
(123,556,cs),
(123,143,ls),
(123,54,o),
(104,23,o),
(33,23,c),
(33,0,l),
(314,0,l),
(314,23,l),
(243,23,o),
(224,54,o),
(224,143,cs),
(224,556,ls),
(224,645,o),
(243,676,o),
(314,676,c),
(314,700,l),
(33,700,l),
(33,676,l)
);
}
);
width = 347;
}
);
unicode = 1030;
},
{
glyphname = "Je-cy";
lastChange = "2025-11-14 11:11:23 +0000";
layers = (
{
layerId = m01;
shapes = (
{
closed = 1;
nodes = (
(204,46,ls),
(204,-57,o),
(194,-94,o),
(146,-94,cs),
(88,-94,o),
(74,-26,o),
(120,27,c),
(106,40,o),
(90,46,o),
(75,46,cs),
(42,46,o),
(14,19,o),
(14,-18,cs),
(14,-89,o),
(88,-118,o),
(140,-118,cs),
(242,-118,o),
(305,-38,o),
(305,87,cs),
(305,556,ls),
(305,645,o),
(324,676,o),
(395,676,c),
(395,700,l),
(114,700,l),
(114,676,l),
(185,676,o),
(204,645,o),
(204,556,cs)
);
}
);
width = 418;
}
);
unicode = 1032;
},
{
glyphname = "Tshe-cy";
lastChange = "2025-11-14 11:11:23 +0000";
layers = (
{
layerId = m01;
shapes = (
{
closed = 1;
nodes = (
(377,677,l),
(433,675,ls),
(538,671,o),
(582,627,o),
(594,514,c),
(619,514,l),
(618,700,l),
(39,700,l),
(38,514,l),
(63,514,l),
(75,627,o),
(121,671,o),
(226,675,cs),
(280,677,l),
(280,143,ls),
(280,54,o),
(261,23,o),
(190,23,c),
(190,0,l),
(466,0,l),
(466,23,l),
(395,23,o),
(376,54,o),
(376,143,cs),
(376,295,l),
(386,344,o),
(464,388,o),
(531,388,cs),
(616,388,o),
(639,317,o),
(639,253,cs),
(639,143,l),
(639,0,l),
(826,0,l),
(826,23,l),
(755,23,o),
(736,54,o),
(736,143,cs),
(736,263,ls),
(736,360,o),
(684,431,o),
(557,431,cs),
(485,431,o),
(407,404,o),
(377,351,c),
(376,351,l),
(376,677,l)
);
}
);
width = 856;
}
);
unicode = 1035;
},
{
glyphname = "Yu-cy";
lastChange = "2025-11-14 11:11:23 +0000";
layers = (
{
layerId = m01;
shapes = (
{
closed = 1;
nodes = (
(216,348,l),
(318,348,l),
(318,343,ls),
(318,138,o),
(475,-13,o),
(664,-13,cs),
(870,-13,o),
(1030,149,o),
(1030,363,cs),
(1030,556,o),
(873,714,o),
(691,714,cs),
(492,714,o),
(334,571,o),
(319,374,c),
(216,374,l),
(216,556,ls),
(216,645,o),
(235,676,o),
(306,676,c),
(306,700,l),
(30,700,l),
(30,676,l),
(101,676,o),
(120,645,o),
(120,556,cs),
(120,143,ls),
(120,54,o),
(101,23,o),
(30,23,c),
(30,0,l),
(306,0,l),
(306,23,l),
(235,23,o),
(216,54,o),
(216,143,cs)
);
},
{
closed = 1;
nodes = (
(433,586,o),
(513,690,o),
(671,690,cs),
(818,690,o),
(915,553,o),
(915,327,cs),
(915,114,o),
(839,12,o),
(698,12,cs),
(546,12,o),
(433,128,o),
(433,386,cs)
);
}
);
width = 1098;
}
);
unicode = 1070;
},
{
glyphname = "Ya-cy";
lastChange = "2025-11-14 11:11:23 +0000";
layers = (
{
layerId = m01;
shapes = (
{
closed = 1;
nodes = (
(417,328,l),
(372,328,ls),
(289,328,o),
(230,298,o),
(220,188,cs),
(217,154,ls),
(209,58,o),
(177,-13,o),
(74,-13,cs),
(39,-13,o),
(21,-6,o),
(0,3,c),
(8,23,l),
(22,16,o),
(34,12,o),
(46,12,cs),
(89,12,o),
(95,87,o),
(104,140,cs),
(111,183,ls),
(128,289,o),
(188,319,o),
(258,334,c),
(149,358,o),
(79,417,o),
(79,516,cs),
(79,650,o),
(184,700,o),
(346,700,cs),
(391,700,o),
(424,699,o),
(465,699,cs),
(604,700,l),
(604,676,l),
(533,676,o),
(514,645,o),
(514,556,cs),
(514,143,ls),
(514,54,o),
(533,23,o),
(604,23,c),
(604,0,l),
(327,0,l),
(327,23,l),
(398,23,o),
(417,54,o),
(417,143,cs)
);
},
{
closed = 1;
nodes = (
(185,406,o),
(222,360,o),
(327,352,cs),
(357,350,o),
(386,351,o),
(417,353,c),
(416,676,l),
(388,677,o),
(359,678,o),
(333,678,cs),
(242,678,o),
(185,635,o),
(185,513,cs)
);
}
);
width = 642;
}
);
unicode = 1071;
},
{
glyphname = "Dje-cy";
lastChange = "2025-11-14 11:11:23 +0000";
layers = (
{
layerId = m01;
shapes = (
{
closed = 1;
nodes = (
(612,23,o),
(648,92,o),
(648,206,cs),
(648,315,o),
(616,388,o),
(531,388,cs),
(464,388,o),
(386,344,o),
(376,295,c),
(376,143,ls),
(376,54,o),
(395,23,o),
(466,23,c),
(466,0,l),
(190,0,l),
(190,23,l),
(261,23,o),
(280,54,o),
(280,143,cs),
(280,677,l),
(226,675,ls),
(121,671,o),
(75,627,o),
(63,514,c),
(38,514,l),
(39,700,l),
(618,700,l),
(619,514,l),
(594,514,l),
(582,627,o),
(538,671,o),
(433,675,cs),
(377,677,l),
(376,677,l),
(376,351,l),
(377,351,l),
(407,404,o),
(485,431,o),
(553,431,cs),
(664,431,o),
(751,358,o),
(751,208,cs),
(751,85,o),
(664,0,o),
(545,0,c),
(545,23,l)
);
}
);
width = 795;
}
);
unicode = 1026;
},
{
glyphname = "Zhedescender-cy";
lastChange = "2025-11-14 11:11:23 +0000";
layers = (
{
layerId = m01;
shapes = (
{
closed = 1;
nodes = (
(871,298,o),
(793,357,o),
(656,369,c),
(827,584,ls),
(893,667,o),
(909,676,o),
(989,676,c),
(989,700,l),
(771,700,l),
(771,676,l),
(837,676,o),
(848,650,o),
(811,604,cs),
(623,371,l),
(602,372,o),
(581,372,o),
(559,373,c),
(559,557,ls),
(559,646,o),
(577,677,o),
(648,677,c),
(648,700,l),
(372,700,l),
(372,677,l),
(443,677,o),
(461,646,o),
(461,557,cs),
(461,373,l),
(439,372,o),
(418,372,o),
(397,371,c),
(209,604,ls),
(172,650,o),
(183,676,o),
(249,676,c),
(249,700,l),
(31,700,l),
(31,676,l),
(111,676,o),
(127,667,o),
(193,584,cs),
(364,369,l),
(227,357,o),
(149,298,o),
(121,183,cs),
(108,130,ls),
(86,41,o),
(71,12,o),
(39,12,cs),
(27,12,o),
(15,16,o),
(1,23,c),
(-7,3,l),
(14,-6,o),
(31,-13,o),
(66,-13,cs),
(169,-13,o),
(203,58,o),
(223,154,cs),
(230,188,ls),
(252,297,o),
(333,348,o),
(416,348,cs),
(461,348,l),
(461,143,ls),
(461,54,o),
(443,23,o),
(372,23,c),
(372,0,l),
(648,0,l),
(648,23,l),
(577,23,o),
(559,54,o),
(559,143,cs),
(559,348,l),
(604,348,ls),
(687,348,o),
(768,297,o),
(790,188,cs),
(797,154,ls),
(813,78,o),
(837,16,o),
(898,-7,cs),
(948,-26,o),
(980,-49,o),
(992,-187,c),
(1019,-187,l),
(1019,23,l),
(1005,16,o),
(993,12,o),
(981,12,cs),
(942,12,o),
(934,41,o),
(912,130,cs),
(899,183,ls)
);
}
);
width = 1020;
}
);
unicode = 1174;
},
{
glyphname = "Kadescender-cy";
lastChange = "2025-11-14 11:11:23 +0000";
layers = (
{
layerId = m01;
shapes = (
{
closed = 1;
nodes = (
(606,-26,o),
(638,-49,o),
(650,-187,c),
(677,-187,l),
(677,23,l),
(663,16,o),
(651,12,o),
(639,12,cs),
(600,12,o),
(592,41,o),
(570,130,cs),
(557,183,ls),
(529,298,o),
(451,357,o),
(314,369,c),
(485,584,ls),
(551,667,o),
(567,676,o),
(647,676,c),
(647,700,l),
(429,700,l),
(429,676,l),
(495,676,o),
(506,650,o),
(469,604,cs),
(281,371,l),
(260,372,o),
(239,372,o),
(217,373,c),
(218,556,ls),
(218,645,o),
(236,676,o),
(307,676,c),
(307,700,l),
(30,700,l),
(30,676,l),
(101,676,o),
(119,645,o),
(119,556,cs),
(119,143,ls),
(119,54,o),
(101,23,o),
(30,23,c),
(30,0,l),
(306,0,l),
(306,23,l),
(235,23,o),
(217,54,o),
(217,143,cs),
(217,348,l),
(262,348,ls),
(345,348,o),
(426,297,o),
(448,188,cs),
(455,154,ls),
(471,78,o),
(495,16,o),
(556,-7,cs)
);
}
);
width = 678;
}
);
unicode = 1178;
},
{
glyphname = "Endescender-cy";
lastChange = "2025-11-14 11:11:23 +0000";
layers = (
{
layerId = m01;
shapes = (
{
closed = 1;
nodes = (
(555,0,o),
(654,16,o),
(672,-187,c),
(699,-187,l),
(699,23,l),
(628,23,o),
(609,54,o),
(609,143,cs),
(609,556,ls),
(609,645,o),
(628,676,o),
(699,676,c),
(699,700,l),
(422,700,l),
(422,676,l),
(493,676,o),
(512,645,o),
(512,556,cs),
(512,374,l),
(216,374,l),
(216,556,l),
(216,645,o),
(235,676,o),
(306,676,c),
(306,700,l),
(30,700,l),
(30,676,l),
(101,676,o),
(120,645,o),
(120,556,cs),
(120,143,ls),
(120,54,o),
(101,23,o),
(30,23,c),
(30,0,l),
(306,0,l),
(306,23,l),
(235,23,o),
(216,54,o),
(216,143,cs),
(216,348,l),
(512,348,l),
(512,143,ls),
(512,54,o),
(493,23,o),
(422,23,c),
(422,0,l)
);
}
);
width = 729;
}
);
unicode = 1186;
},
{
glyphname = "Ustraight-cy";
lastChange = "2025-11-14 11:11:23 +0000";
layers = (
{
layerId = m01;
shapes = (
{
closed = 1;
nodes = (
(361,314,l),
(226,592,ls),
(196,655,o),
(200,677,o),
(265,677,c),
(265,700,l),
(-2,700,l),
(-2,677,l),
(68,677,o),
(77,666,o),
(142,543,cs),
(278,288,l),
(278,143,ls),
(278,54,o),
(260,23,o),
(189,23,c),
(189,0,l),
(468,0,l),
(468,23,l),
(397,23,o),
(377,54,o),
(377,143,cs),
(377,296,l),
(520,592,l),
(553,660,o),
(559,676,o),
(639,676,c),
(639,700,l),
(436,700,l),
(436,676,l),
(502,676,o),
(529,666,o),
(501,608,cs)
);
}
);
width = 637;
}
);
unicode = 1198;
},
{
glyphname = "Ustraightstroke-cy";
lastChange = "2025-11-14 11:11:23 +0000";
layers = (
{
layerId = m01;
shapes = (
{
closed = 1;
nodes = (
(361,314,l),
(226,592,ls),
(196,655,o),
(200,677,o),
(265,677,c),
(265,700,l),
(-2,700,l),
(-2,677,l),
(68,677,o),
(77,666,o),
(142,543,cs),
(278,288,l),
(278,181,l),
(141,181,l),
(141,155,l),
(278,155,l),
(278,143,ls),
(278,54,o),
(260,23,o),
(189,23,c),
(189,0,l),
(468,0,l),
(468,23,l),
(397,23,o),
(377,54,o),
(377,143,cs),
(377,155,l),
(513,155,l),
(513,181,l),
(377,181,l),
(377,296,l),
(520,592,ls),
(553,660,o),
(559,676,o),
(639,676,c),
(639,700,l),
(436,700,l),
(436,676,l),
(502,676,o),
(529,666,o),
(501,608,cs)
);
}
);
width = 637;
}
);
unicode = 1200;
},
{
glyphname = "Hadescender-cy";
lastChange = "2025-11-14 11:11:23 +0000";
layers = (
{
layerId = m01;
shapes = (
{
closed = 1;
nodes = (
(446,23,l),
(517,23,o),
(525,32,o),
(464,126,cs),
(342,314,l),
(234,156,ls),
(174,69,o),
(140,24,o),
(243,24,c),
(243,0,l),
(31,0,l),
(31,24,l),
(111,24,o),
(128,51,o),
(188,137,cs),
(328,336,l),
(198,539,ls),
(132,641,o),
(118,677,o),
(40,677,c),
(40,700,l),
(315,700,l),
(315,677,l),
(244,677,o),
(234,666,o),
(297,574,c),
(394,419,l),
(480,544,ls),
(540,631,o),
(574,676,o),
(471,676,c),
(471,700,l),
(683,700,l),
(683,676,l),
(603,676,o),
(586,649,o),
(526,563,cs),
(410,397,l),
(563,161,ls),
(629,59,o),
(643,23,o),
(721,23,c),
(721,-190,l),
(694,-190,l),
(676,16,o),
(577,0,o),
(446,0,c)
);
}
);
width = 749;
}
);
unicode = 1202;
},
{
glyphname = "Chedescender-cy";
lastChange = "2025-11-14 11:11:23 +0000";
layers = (
{
layerId = m01;
shapes = (
{
closed = 1;
nodes = (
(608,26,o),
(589,55,o),
(589,144,cs),
(589,557,ls),
(589,646,o),
(608,677,o),
(679,677,c),
(679,700,l),
(403,700,l),
(403,677,l),
(474,677,o),
(493,646,o),
(493,557,cs),
(493,381,l),
(483,332,o),
(410,288,o),
(334,288,cs),
(250,288,o),
(217,339,o),
(217,423,cs),
(217,557,ls),
(217,646,o),
(236,677,o),
(307,677,c),
(307,700,l),
(30,700,l),
(30,677,l),
(101,677,o),
(120,646,o),
(120,557,cs),
(120,413,ls),
(120,296,o),
(182,245,o),
(308,245,cs),
(389,245,o),
(462,272,o),
(492,325,c),
(493,325,l),
(493,144,l),
(493,55,o),
(474,26,o),
(403,26,c),
(403,0,l),
(535,0,o),
(634,19,o),
(652,-187,c),
(679,-187,l),
(679,26,l)
);
}
);
width = 709;
}
);
unicode = 1206;
},
{
glyphname = "Shha-cy";
lastChange = "2025-11-14 11:11:23 +0000";
layers = (
{
layerId = m01;
shapes = (
{
closed = 1;
nodes = (
(492,143,ls),
(492,54,o),
(473,23,o),
(402,23,c),
(402,0,l),
(679,0,l),
(679,23,l),
(608,23,o),
(589,54,o),
(589,143,cs),
(589,287,ls),
(589,404,o),
(527,455,o),
(401,455,cs),
(320,455,o),
(247,428,o),
(217,375,c),
(216,375,l),
(216,556,l),
(216,645,o),
(235,676,o),
(306,676,c),
(306,700,l),
(30,700,l),
(30,676,l),
(101,676,o),
(120,645,o),
(120,556,cs),
(120,143,ls),
(120,54,o),
(101,23,o),
(30,23,c),
(30,0,l),
(306,0,l),
(306,23,l),
(235,23,o),
(216,54,o),
(216,143,cs),
(216,319,l),
(226,368,o),
(299,412,o),
(375,412,cs),
(459,412,o),
(492,361,o),
(492,277,cs)
);
}
);
width = 709;
}
);
unicode = 1210;
},
{
glyphname = "Schwa-cy";
lastChange = "2025-11-14 11:11:23 +0000";
layers = (
{
layerId = m01;
shapes = (
{
closed = 1;
nodes = (
(40,150,o),
(144,-12,o),
(344,-12,cs),
(530,-12,o),
(664,150,o),
(664,359,cs),
(664,553,o),
(536,714,o),
(325,714,cs),
(255,714,o),
(184,686,o),
(143,649,cs),
(122,630,o),
(110,609,o),
(110,588,cs),
(110,581,o),
(113,575,o),
(117,570,cs),
(121,566,o),
(126,562,o),
(136,562,cs),
(146,562,o),
(155,566,o),
(163,575,c),
(150,635,o),
(227,690,o),
(312,690,cs),
(460,690,o),
(540,561,o),
(547,381,c),
(40,381,l)
);
},
{
closed = 1;
nodes = (
(548,352,l),
(548,125,o),
(466,12,o),
(337,12,cs),
(208,12,o),
(156,123,o),
(156,352,c)
);
}
);
width = 709;
}
);
unicode = 1240;
},
{
glyphname = "Obarred-cy";
lastChange = "2026-06-13 18:58:33 +0000";
layers = (
{
layerId = m01;
shapes = (
{
closed = 1;
nodes = (
(762,556,o),
(605,714,o),
(423,714,cs),
(214,714,o),
(50,556,o),
(50,343,cs),
(50,138,o),
(207,-13,o),
(396,-13,cs),
(602,-13,o),
(762,149,o),
(762,363,cs)
);
},
{
closed = 1;
nodes = (
(165,386,ls),
(165,586,o),
(245,690,o),
(403,690,cs),
(538,690,o),
(631,575,o),
(645,381,c),
(165,381,l)
);
},
{
closed = 1;
nodes = (
(646,355,l),
(647,346,o),
(647,336,o),
(647,327,cs),
(647,114,o),
(571,12,o),
(430,12,cs),
(284,12,o),
(174,119,o),
(166,355,c)
);
}
);
width = 812;
}
);
unicode = 1256;
},
{
glyphname = "a-cy";
lastChange = "2025-11-14 11:11:23 +0000";
layers = (
{
anchors = (
{
name = top;
pos = (236,500);
}
);
layerId = m01;
shapes = (
{
closed = 1;
nodes = (
(299,442,o),
(310,402,o),
(310,299,cs),
(310,276,l),
(196,244,o),
(41,235,o),
(41,102,cs),
(41,32,o),
(91,-10,o),
(162,-10,cs),
(217,-10,o),
(268,20,o),
(310,77,c),
(310,10,o),
(334,-12,o),
(375,-12,cs),
(411,-12,o),
(432,3,o),
(457,42,c),
(440,54,l),
(426,34,o),
(420,29,o),
(411,29,cs),
(404,29,o),
(396,32,o),
(396,52,cs),
(396,307,ls),
(396,414,o),
(344,465,o),
(236,465,cs),
(181,465,o),
(81,443,o),
(81,363,cs),
(81,330,o),
(108,304,o),
(142,304,cs),
(153,304,o),
(164,308,o),
(175,315,c),
(138,375,o),
(178,442,o),
(238,442,cs)
);
},
{
closed = 1;
nodes = (
(310,115,l),
(286,67,o),
(243,29,o),
(201,30,cs),
(165,31,o),
(132,51,o),
(132,111,cs),
(132,214,o),
(225,230,o),
(310,250,c)
);
}
);
width = 460;
}
);
unicode = 1072;
},
{
glyphname = "be-cy";
lastChange = "2025-11-14 11:11:23 +0000";
layers = (
{
layerId = m01;
shapes = (
{
closed = 1;
nodes = (
(49,76,o),
(150,-10,o),
(289,-10,cs),
(416,-10,o),
(529,69,o),
(529,216,cs),
(529,376,o),
(427,445,o),
(294,445,cs),
(209,445,o),
(133,401,o),
(104,302,c),
(100,302,l),
(100,396,o),
(153,460,o),
(198,485,cs),
(246,511,o),
(300,527,o),
(365,548,cs),
(454,577,o),
(455,633,o),
(455,703,c),
(428,703,l),
(425,665,o),
(404,644,o),
(347,627,cs),
(269,604,o),
(222,588,o),
(185,570,cs),
(110,532,o),
(49,450,o),
(49,287,cs)
);
},
{
closed = 1;
nodes = (
(146,362,o),
(196,422,o),
(289,422,cs),
(376,422,o),
(432,355,o),
(432,202,cs),
(432,58,o),
(374,12,o),
(291,12,cs),
(201,12,o),
(146,66,o),
(146,240,cs)
);
}
);
width = 576;
}
);
unicode = 1073;
},
{
glyphname = "ve-cy";
lastChange = "2025-11-14 11:11:23 +0000";
layers = (
{
layerId = m01;
shapes = (
{
closed = 1;
nodes = (
(336,286,o),
(299,247,o),
(237,247,c),
(222,247,o),
(188,248,o),
(182,250,c),
(182,429,l),
(186,429,o),
(212,430,o),
(224,430,c),
(283,430,o),
(336,412,o),
(336,341,c)
);
},
{
closed = 1;
nodes = (
(352,56,o),
(301,21,o),
(247,21,cs),
(228,21,o),
(199,24,o),
(182,28,c),
(182,227,l),
(204,225,o),
(247,225,o),
(269,227,c),
(316,221,o),
(352,178,o),
(352,122,c)
);
},
{
closed = 1;
nodes = (
(154,2,o),
(193,-1,o),
(239,-1,cs),
(331,-1,o),
(444,16,o),
(444,130,c),
(444,194,o),
(379,235,o),
(320,239,c),
(320,241,l),
(367,249,o),
(427,286,o),
(427,343,c),
(427,441,o),
(320,452,o),
(244,452,cs),
(210,452,o),
(166,448,o),
(134,448,cs),
(92,448,o),
(58,449,o),
(19,450,c),
(19,429,l),
(75,429,o),
(94,420,o),
(94,332,cs),
(94,129,ls),
(94,30,o),
(75,21,o),
(19,21,c),
(19,0,l),
(58,1,o),
(77,2,o),
(127,2,cs)
);
}
);
width = 486;
}
);
unicode = 1074;
},
{
glyphname = "ge-cy";
lastChange = "2026-06-13 19:09:33 +0000";
layers = (
{
layerId = m01;
shapes = (
{
closed = 1;
nodes = (
(25,429,l),
(81,429,o),
(100,420,o),
(100,332,cs),
(100,129,ls),
(100,30,o),
(81,21,o),
(25,21,c),
(25,0,l),
(263,0,l),
(263,21,l),
(207,21,o),
(188,30,o),
(188,129,cs),
(188,429,l),
(267,429,ls),
(360,429,o),
(405,429,o),
(416,323,c),
(439,323,l),
(439,450,l),
(25,450,l)
);
}
);
width = 459;
}
);
unicode = 1075;
},
{
glyphname = "geupturn-cy";
lastChange = "2026-06-13 19:09:30 +0000";
layers = (
{
layerId = m01;
shapes = (
{
closed = 1;
nodes = (
(439,556,l),
(416,556,l),
(405,450,o),
(360,450,o),
(267,450,cs),
(25,450,l),
(25,429,l),
(81,429,o),
(100,420,o),
(100,332,cs),
(100,129,ls),
(100,30,o),
(81,21,o),
(25,21,c),
(25,0,l),
(263,0,l),
(263,21,l),
(207,21,o),
(188,30,o),
(188,129,cs),
(188,429,l),
(439,429,l)
);
}
);
width = 459;
}
);
unicode = 1169;
},
{
glyphname = "gestroke-cy";
lastChange = "2026-06-13 19:09:27 +0000";
layers = (
{
layerId = m01;
shapes = (
{
closed = 1;
nodes = (
(35,429,l),
(91,429,o),
(110,420,o),
(110,332,cs),
(110,229,l),
(25,229,l),
(25,199,l),
(110,199,l),
(110,129,ls),
(110,30,o),
(91,21,o),
(35,21,c),
(35,0,l),
(273,0,l),
(273,21,l),
(217,21,o),
(198,30,o),
(198,129,cs),
(198,199,l),
(326,199,l),
(326,229,l),
(198,229,l),
(198,429,l),
(277,429,ls),
(370,429,o),
(415,429,o),
(426,323,c),
(449,323,l),
(449,450,l),
(35,450,l)
);
}
);
width = 469;
}
);
unicode = 1171;
},
{
glyphname = "de-cy";
lastChange = "2025-11-14 11:11:23 +0000";
layers = (
{
layerId = m01;
shapes = (
{
closed = 1;
nodes = (
(381,21,l),
(381,430,l),
(197,430,l),
(201,403,o),
(202,343,o),
(202,303,cs),
(202,252,o),
(201,205,o),
(193,141,cs),
(188,103,o),
(175,54,o),
(151,21,c)
);
},
{
closed = 1;
nodes = (
(103,21,o),
(113,63,o),
(124,130,cs),
(137,210,o),
(133,265,o),
(133,321,cs),
(133,420,o),
(115,429,o),
(69,429,c),
(69,450,l),
(534,450,l),
(534,429,l),
(488,429,o),
(469,420,o),
(469,321,cs),
(469,21,l),
(534,21,l),
(534,-106,l),
(514,-106,l),
(503,0,o),
(458,0,o),
(365,0,cs),
(174,0,ls),
(81,0,o),
(36,0,o),
(25,-106,c),
(5,-106,l),
(5,21,l),
(63,21,ls)
);
}
);
width = 553;
}
);
unicode = 1076;
},
{
glyphname = "ie-cy";
lastChange = "2026-06-13 19:06:53 +0000";
layers = (
{
anchors = (
{
name = bottom;
pos = (261,0);
},
{
name = ogonek;
pos = (303,0);
},
{
name = top;
pos = (260,500);
}
);
layerId = m01;
shapes = (
{
closed = 1;
nodes = (
(455,236,l),
(455,373,o),
(383,465,o),
(259,465,cs),
(128,465,o),
(35,352,o),
(35,220,cs),
(35,80,o),
(132,-10,o),
(260,-10,cs),
(333,-10,o),
(394,19,o),
(438,79,c),
(422,92,l),
(382,47,o),
(335,22,o),
(281,22,cs),
(177,22,o),
(131,99,o),
(131,236,c)
);
},
{
closed = 1;
nodes = (
(346,261,o),
(324,260,o),
(305,260,cs),
(260,260,o),
(198,261,o),
(131,262,c),
(131,367,o),
(179,442,o),
(256,442,cs),
(333,442,o),
(361,354,o),
(361,261,c)
);
}
);
width = 491;
}
);
unicode = 1077;
},
{
glyphname = "zhe-cy";
lastChange = "2025-11-14 11:11:23 +0000";
layers = (
{
layerId = m01;
shapes = (
{
closed = 1;
nodes = (
(232,21,l),
(278,21,o),
(297,30,o),
(297,129,cs),
(297,221,l),
(283,221,ls),
(235,221,o),
(185,188,o),
(172,122,cs),
(168,101,ls),
(156,38,o),
(132,-10,o),
(55,-10,cs),
(29,-10,o),
(13,-4,o),
(-4,5,c),
(4,26,l),
(14,19,o),
(21,14,o),
(32,14,cs),
(46,14,o),
(57,26,o),
(66,65,cs),
(79,121,ls),
(96,196,o),
(151,226,o),
(230,238,c),
(112,388,ls),
(85,422,o),
(80,429,o),
(26,429,c),
(26,450,l),
(182,450,l),
(182,429,l),
(158,429,ls),
(134,429,o),
(122,415,o),
(134,400,cs),
(255,242,l),
(282,245,o),
(294,243,o),
(297,243,c),
(297,321,ls),
(297,420,o),
(278,429,o),
(232,429,c),
(232,450,l),
(450,450,l),
(450,429,l),
(404,429,o),
(385,420,o),
(385,321,cs),
(385,243,l),
(388,243,o),
(400,245,o),
(427,242,c),
(548,400,ls),
(560,415,o),
(548,429,o),
(524,429,cs),
(500,429,l),
(500,450,l),
(656,450,l),
(656,429,l),
(602,429,o),
(597,422,o),
(570,388,cs),
(452,238,l),
(531,226,o),
(586,196,o),
(603,121,cs),
(616,65,ls),
(625,26,o),
(636,14,o),
(650,14,cs),
(661,14,o),
(668,19,o),
(678,26,c),
(686,5,l),
(669,-4,o),
(653,-10,o),
(627,-10,cs),
(550,-10,o),
(526,38,o),
(514,101,cs),
(510,122,ls),
(497,188,o),
(447,221,o),
(399,221,cs),
(385,221,l),
(385,129,ls),
(385,30,o),
(404,21,o),
(450,21,c),
(450,0,l),
(232,0,l)
);
}
);
width = 682;
}
);
unicode = 1078;
},
{
glyphname = "ze-cy";
lastChange = "2025-11-14 11:11:23 +0000";
layers = (
{
layerId = m01;
shapes = (
{
closed = 1;
nodes = (
(286,-10,o),
(362,46,o),
(362,131,cs),
(362,209,o),
(295,244,o),
(251,247,cs),
(251,247,o),
(251,249,o),
(251,249,c),
(284,256,o),
(355,290,o),
(355,355,cs),
(355,424,o),
(286,465,o),
(189,465,cs),
(125,465,o),
(40,448,o),
(40,382,cs),
(40,352,o),
(63,334,o),
(89,334,cs),
(108,334,o),
(119,341,o),
(130,348,c),
(95,398,o),
(117,442,o),
(181,442,cs),
(237,442,o),
(260,417,o),
(260,353,cs),
(260,294,o),
(238,262,o),
(183,262,cs),
(126,262,l),
(126,232,l),
(170,232,ls),
(231,232,o),
(267,206,o),
(267,136,cs),
(267,61,o),
(240,13,o),
(176,13,cs),
(98,13,o),
(82,75,o),
(119,135,c),
(108,142,o),
(97,146,o),
(86,146,cs),
(52,146,o),
(26,120,o),
(26,83,cs),
(26,15,o),
(98,-10,o),
(176,-10,cs)
);
}
);
width = 400;
}
);
unicode = 1079;
},
{
glyphname = "ii-cy";
lastChange = "2025-12-12 13:50:45 +0000";
layers = (
{
anchors = (
{
name = top;
pos = (270,500);
}
);
layerId = m01;
shapes = (
{
closed = 1;
nodes = (
(84,420,o),
(65,429,o),
(19,429,c),
(19,450,l),
(237,450,l),
(237,429,l),
(191,429,o),
(172,420,o),
(172,341,cs),
(172,145,l),
(365,325,l),
(365,341,ls),
(365,420,o),
(346,429,o),
(300,429,c),
(300,450,l),
(518,450,l),
(518,429,l),
(472,429,o),
(453,420,o),
(453,341,cs),
(453,109,ls),
(453,30,o),
(472,21,o),
(518,21,c),
(518,0,l),
(300,0,l),
(300,21,l),
(346,21,o),
(365,30,o),
(365,109,cs),
(365,302,l),
(172,122,l),
(172,109,ls),
(172,30,o),
(191,21,o),
(237,21,c),
(237,0,l),
(19,0,l),
(19,21,l),
(65,21,o),
(84,30,o),
(84,109,cs),
(84,341,ls)
);
}
);
width = 538;
}
);
unicode = 1080;
},
{
glyphname = "ka-cy";
lastChange = "2025-11-14 11:11:23 +0000";
layers = (
{
layerId = m01;
shapes = (
{
closed = 1;
nodes = (
(19,21,l),
(65,21,o),
(84,30,o),
(84,129,cs),
(84,321,ls),
(84,420,o),
(65,429,o),
(19,429,c),
(19,450,l),
(237,450,l),
(237,429,l),
(191,429,o),
(172,420,o),
(172,321,cs),
(172,243,l),
(175,243,o),
(187,245,o),
(214,242,c),
(335,400,ls),
(347,415,o),
(335,429,o),
(311,429,cs),
(287,429,l),
(287,450,l),
(443,450,l),
(443,429,l),
(389,429,o),
(384,422,o),
(357,388,cs),
(239,238,l),
(318,226,o),
(370,196,o),
(387,121,cs),
(400,65,ls),
(409,26,o),
(420,14,o),
(434,14,cs),
(445,14,o),
(452,19,o),
(462,26,c),
(470,5,l),
(453,-4,o),
(437,-10,o),
(411,-10,cs),
(334,-10,o),
(310,38,o),
(298,101,cs),
(294,122,ls),
(281,188,o),
(234,221,o),
(186,221,cs),
(172,221,l),
(172,129,ls),
(172,30,o),
(191,21,o),
(237,21,c),
(237,0,l),
(19,0,l)
);
}
);
width = 466;
}
);
unicode = 1082;
},
{
glyphname = "el-cy";
lastChange = "2025-11-14 11:11:23 +0000";
layers = (
{
layerId = m01;
shapes = (
{
closed = 1;
nodes = (
(174,210,o),
(175,265,o),
(175,321,cs),
(175,420,o),
(157,429,o),
(111,429,c),
(111,450,l),
(576,450,l),
(576,429,l),
(530,429,o),
(511,420,o),
(511,321,cs),
(511,129,ls),
(511,30,o),
(530,21,o),
(576,21,c),
(576,0,l),
(358,0,l),
(358,21,l),
(404,21,o),
(423,30,o),
(423,129,cs),
(423,430,l),
(239,430,l),
(243,403,o),
(244,343,o),
(244,303,cs),
(244,252,o),
(243,205,o),
(235,141,cs),
(227,79,o),
(198,-10,o),
(103,-10,cs),
(54,-10,o),
(1,11,o),
(1,63,cs),
(1,97,o),
(27,120,o),
(56,120,cs),
(69,120,o),
(83,115,o),
(95,105,c),
(54,53,o),
(73,11,o),
(107,11,cs),
(147,11,o),
(156,63,o),
(167,154,cs)
);
}
);
width = 595;
}
);
unicode = 1083;
},
{
glyphname = "em-cy";
lastChange = "2025-11-14 11:11:23 +0000";
layers = (
{
layerId = m01;
shapes = (
{
closed = 1;
nodes = (
(113,360,l),
(232,6,l),
(275,6,l),
(404,370,l),
(404,129,ls),
(404,30,o),
(385,21,o),
(339,21,c),
(339,0,l),
(557,0,l),
(557,21,l),
(511,21,o),
(492,30,o),
(492,129,cs),
(492,321,ls),
(492,420,o),
(511,429,o),
(557,429,c),
(557,450,l),
(402,450,l),
(284,120,l),
(171,450,l),
(17,450,l),
(17,429,l),
(63,429,o),
(82,420,o),
(82,321,cs),
(82,129,ls),
(82,30,o),
(63,21,o),
(17,21,c),
(17,0,l),
(178,0,l),
(178,21,l),
(132,21,o),
(113,30,o),
(113,129,cs)
);
}
);
width = 573;
}
);
unicode = 1084;
},
{
glyphname = "en-cy";
lastChange = "2025-11-14 11:11:23 +0000";
layers = (
{
layerId = m01;
shapes = (
{
closed = 1;
nodes = (
(84,420,o),
(65,429,o),
(19,429,c),
(19,450,l),
(237,450,l),
(237,429,l),
(191,429,o),
(172,420,o),
(172,321,cs),
(172,245,l),
(365,245,l),
(365,321,ls),
(365,420,o),
(346,429,o),
(300,429,c),
(300,450,l),
(518,450,l),
(518,429,l),
(472,429,o),
(453,420,o),
(453,321,cs),
(453,129,ls),
(453,30,o),
(472,21,o),
(518,21,c),
(518,0,l),
(300,0,l),
(300,21,l),
(346,21,o),
(365,30,o),
(365,129,cs),
(365,222,l),
(172,222,l),
(172,129,ls),
(172,30,o),
(191,21,o),
(237,21,c),
(237,0,l),
(19,0,l),
(19,21,l),
(65,21,o),
(84,30,o),
(84,129,cs),
(84,321,ls)
);
}
);
width = 538;
}
);
unicode = 1085;
},
{
glyphname = "o-cy";
lastChange = "2026-06-13 18:47:17 +0000";
layers = (
{
anchors = (
{
name = bottom;
pos = (276,0);
},
{
name = top;
pos = (276,500);
}
);
layerId = m01;
shapes = (
{
closed = 1;
nodes = (
(520,361,o),
(411,465,o),
(288,465,cs),
(147,465,o),
(40,361,o),
(40,222,cs),
(40,89,o),
(143,-10,o),
(270,-10,cs),
(409,-10,o),
(520,96,o),
(520,235,cs)
);
},
{
closed = 1;
nodes = (
(423,78,o),
(375,12,o),
(292,12,cs),
(202,12,o),
(137,86,o),
(137,250,cs),
(137,376,o),
(182,442,o),
(275,442,cs),
(362,442,o),
(423,355,o),
(423,212,cs)
);
}
);
width = 560;
}
);
unicode = 1086;
},
{
glyphname = "pe-cy";
lastChange = "2026-06-13 19:09:12 +0000";
layers = (
{
layerId = m01;
shapes = (
{
closed = 1;
nodes = (
(509,429,l),
(463,429,o),
(444,420,o),
(444,321,cs),
(444,129,ls),
(444,30,o),
(463,21,o),
(509,21,c),
(509,0,l),
(291,0,l),
(291,21,l),
(337,21,o),
(356,30,o),
(356,129,cs),
(356,430,l),
(177,430,l),
(177,129,ls),
(177,30,o),
(196,21,o),
(242,21,c),
(242,0,l),
(24,0,l),
(24,21,l),
(70,21,o),
(89,30,o),
(89,129,cs),
(89,321,ls),
(89,420,o),
(70,429,o),
(24,429,c),
(24,450,l),
(509,450,l)
);
}
);
width = 539;
}
);
unicode = 1087;
},
{
glyphname = "er-cy";
lastChange = "2026-06-07 19:46:31 +0000";
layers = (
{
layerId = m01;
shapes = (
{
closed = 1;
nodes = (
(104,-114,ls),
(104,-213,o),
(85,-222,o),
(29,-222,c),
(29,-243,l),
(267,-243,l),
(267,-222,l),
(211,-222,o),
(192,-213,o),
(192,-114,cs),
(192,45,l),
(218,20,o),
(262,-11,o),
(322,-10,cs),
(434,-11,o),
(552,100,o),
(552,248,cs),
(552,385,o),
(461,464,o),
(354,465,cs),
(282,464,o),
(224,422,o),
(192,385,c),
(192,456,l),
(28,447,l),
(29,426,l),
(85,427,ls),
(99,427,o),
(104,422,o),
(104,384,cs)
);
},
{
closed = 1;
nodes = (
(193,355,l),
(236,408,o),
(285,442,o),
(330,442,cs),
(415,442,o),
(456,341,o),
(456,239,cs),
(456,103,o),
(411,12,o),
(316,12,cs),
(266,12,o),
(220,43,o),
(193,74,c)
);
}
);
width = 604;
}
);
unicode = 1088;
},
{
glyphname = "es-cy";
lastChange = "2025-11-14 11:11:23 +0000";
layers = (
{
layerId = m01;
shapes = (
{
closed = 1;
nodes = (
(341,442,o),
(385,375,o),
(348,315,c),
(359,308,o),
(370,304,o),
(381,304,cs),
(415,304,o),
(441,330,o),
(441,363,cs),
(441,443,o),
(342,465,o),
(284,465,cs),
(152,465,o),
(45,357,o),
(45,220,cs),
(45,83,o),
(146,-10,o),
(269,-10,cs),
(342,-10,o),
(403,19,o),
(447,79,c),
(431,92,l),
(391,47,o),
(344,22,o),
(290,22,cs),
(190,22,o),
(139,109,o),
(139,246,cs),
(139,366,o),
(193,442,o),
(275,442,cs)
);
}
);
width = 482;
}
);
unicode = 1089;
},
{
glyphname = "te-cy";
lastChange = "2025-11-14 11:11:23 +0000";
layers = (
{
layerId = m01;
shapes = (
{
closed = 1;
nodes = (
(24,450,l),
(24,322,l),
(47,322,l),
(58,429,o),
(103,427,o),
(192,429,c),
(192,129,ls),
(192,30,o),
(173,21,o),
(127,21,c),
(127,0,l),
(345,0,l),
(345,21,l),
(299,21,o),
(280,30,o),
(280,129,cs),
(280,429,l),
(369,427,o),
(414,429,o),
(425,322,c),
(448,322,l),
(448,450,l)
);
}
);
width = 473;
}
);
unicode = 1090;
},
{
glyphname = "u-cy";
lastChange = "2026-06-07 19:47:03 +0000";
layers = (
{
anchors = (
{
name = top;
pos = (257,500);
}
);
layerId = m01;
shapes = (
{
closed = 1;
nodes = (
(123,-253,o),
(165,-227,o),
(199,-142,cs),
(257,4,l),
(411,398,ls),
(421,423,o),
(428,429,o),
(482,429,c),
(482,450,l),
(317,450,l),
(317,429,l),
(367,429,ls),
(389,429,o),
(394,420,o),
(388,405,cs),
(262,82,l),
(144,405,ls),
(138,421,o),
(143,429,o),
(167,429,cs),
(207,429,l),
(207,450,l),
(-22,450,l),
(-22,429,l),
(32,429,o),
(44,421,o),
(53,398,cs),
(200,11,l),
(229,-4,l),
(179,-137,ls),
(156,-199,o),
(125,-232,o),
(87,-232,cs),
(51,-232,o),
(37,-178,o),
(85,-139,c),
(73,-129,o),
(62,-123,o),
(41,-123,cs),
(10,-123,o),
(-17,-149,o),
(-17,-183,cs),
(-17,-228,o),
(23,-253,o),
(71,-253,cs)
);
}
);
width = 473;
}
);
unicode = 1091;
},
{
glyphname = "ef-cy";
lastChange = "2026-06-07 19:47:37 +0000";
layers = (
{
layerId = m01;
shapes = (
{
closed = 1;
nodes = (
(316,-213,o),
(297,-222,o),
(241,-222,c),
(241,-243,l),
(479,-243,l),
(479,-222,l),
(423,-222,o),
(404,-213,o),
(404,-114,cs),
(404,-7,l),
(577,10,o),
(669,109,o),
(669,235,cs),
(669,353,o),
(574,451,o),
(404,464,c),
(404,713,l),
(240,704,l),
(241,683,l),
(297,684,ls),
(311,684,o),
(316,679,o),
(316,641,cs),
(316,463,l),
(139,447,o),
(49,349,o),
(49,222,cs),
(49,97,o),
(141,1,o),
(316,-9,c),
(316,-114,ls)
);
},
{
closed = 1;
nodes = (
(146,365,o),
(192,430,o),
(316,440,c),
(316,16,l),
(203,33,o),
(146,107,o),
(146,250,cs)
);
},
{
closed = 1;
nodes = (
(404,438,l),
(517,420,o),
(572,338,o),
(572,212,cs),
(572,89,o),
(523,23,o),
(404,13,c)
);
}
);
width = 717;
}
);
unicode = 1092;
},
{
glyphname = "ha-cy";
lastChange = "2025-11-14 11:11:23 +0000";
layers = (
{
layerId = m01;
shapes = (
{
closed = 1;
nodes = (
(94,21,o),
(88,29,o),
(96,39,cs),
(217,191,l),
(320,41,ls),
(330,27,o),
(317,21,o),
(288,21,cs),
(256,21,l),
(256,0,l),
(485,0,l),
(485,21,l),
(431,21,o),
(426,31,o),
(412,52,cs),
(275,258,l),
(387,400,ls),
(404,422,o),
(409,429,o),
(463,429,c),
(463,450,l),
(307,450,l),
(307,429,l),
(331,429,l),
(355,429,o),
(367,415,o),
(355,400,cs),
(262,280,l),
(169,413,ls),
(164,421,o),
(167,429,o),
(188,429,cs),
(236,429,l),
(236,450,l),
(3,450,l),
(3,429,l),
(57,429,o),
(66,419,o),
(80,398,cs),
(202,212,l),
(76,50,ls),
(59,28,o),
(54,21,o),
(0,21,c),
(0,0,l),
(159,0,l),
(159,21,l),
(112,21,ls)
);
}
);
width = 480;
}
);
unicode = 1093;
},
{
glyphname = "che-cy";
lastChange = "2025-11-14 11:11:23 +0000";
layers = (
{
layerId = m01;
shapes = (
{
closed = 1;
nodes = (
(321,198,l),
(300,160,o),
(260,147,o),
(213,147,cs),
(153,147,o),
(84,167,o),
(84,255,cs),
(84,321,ls),
(84,420,o),
(65,429,o),
(19,429,c),
(19,450,l),
(237,450,l),
(237,429,l),
(191,429,o),
(172,420,o),
(172,321,cs),
(172,274,ls),
(172,201,o),
(213,189,o),
(241,189,cs),
(279,189,o),
(317,206,o),
(322,260,c),
(322,321,ls),
(322,420,o),
(303,429,o),
(257,429,c),
(257,450,l),
(475,450,l),
(475,429,l),
(429,429,o),
(410,420,o),
(410,321,cs),
(410,129,ls),
(410,30,o),
(429,21,o),
(475,21,c),
(475,0,l),
(257,0,l),
(257,21,l),
(303,21,o),
(322,30,o),
(322,129,cs),
(322,198,l)
);
}
);
width = 494;
}
);
unicode = 1095;
},
{
glyphname = "tse-cy";
lastChange = "2026-06-13 19:08:59 +0000";
layers = (
{
layerId = m01;
shapes = (
{
closed = 1;
nodes = (
(24,0,l),
(24,21,l),
(70,21,o),
(89,30,o),
(89,129,cs),
(89,321,ls),
(89,420,o),
(70,429,o),
(24,429,c),
(24,450,l),
(242,450,l),
(242,429,l),
(196,429,o),
(177,420,o),
(177,321,cs),
(177,20,l),
(356,20,l),
(356,321,ls),
(356,420,o),
(337,429,o),
(291,429,c),
(291,450,l),
(509,450,l),
(509,429,l),
(463,429,o),
(444,420,o),
(444,321,cs),
(444,21,l),
(509,21,l),
(509,-106,l),
(489,-106,l),
(478,0,o),
(433,0,o),
(340,0,cs)
);
}
);
width = 539;
}
);
unicode = 1094;
},
{
glyphname = "sha-cy";
lastChange = "2026-06-13 19:09:02 +0000";
layers = (
{
layerId = m01;
shapes = (
{
closed = 1;
nodes = (
(24,0,l),
(24,21,l),
(70,21,o),
(89,30,o),
(89,129,cs),
(89,321,ls),
(89,420,o),
(70,429,o),
(24,429,c),
(24,450,l),
(242,450,l),
(242,429,l),
(196,429,o),
(177,420,o),
(177,321,cs),
(177,20,l),
(361,20,l),
(361,321,ls),
(361,420,o),
(342,429,o),
(296,429,c),
(296,450,l),
(514,450,l),
(514,429,l),
(468,429,o),
(449,420,o),
(449,321,cs),
(449,20,l),
(633,20,l),
(633,321,ls),
(633,420,o),
(614,429,o),
(568,429,c),
(568,450,l),
(786,450,l),
(786,429,l),
(740,429,o),
(721,420,o),
(721,321,cs),
(721,129,ls),
(721,30,o),
(740,21,o),
(786,21,c),
(786,0,l)
);
}
);
width = 816;
}
);
unicode = 1096;
},
{
glyphname = "shcha-cy";
lastChange = "2026-06-13 19:09:06 +0000";
layers = (
{
layerId = m01;
shapes = (
{
closed = 1;
nodes = (
(786,21,l),
(786,-106,l),
(766,-106,l),
(755,0,o),
(710,0,o),
(617,0,cs),
(24,0,l),
(24,21,l),
(70,21,o),
(89,30,o),
(89,129,cs),
(89,321,ls),
(89,420,o),
(70,429,o),
(24,429,c),
(24,450,l),
(242,450,l),
(242,429,l),
(196,429,o),
(177,420,o),
(177,321,cs),
(177,20,l),
(361,20,l),
(361,321,ls),
(361,420,o),
(342,429,o),
(296,429,c),
(296,450,l),
(514,450,l),
(514,429,l),
(468,429,o),
(449,420,o),
(449,321,cs),
(449,20,l),
(633,20,l),
(633,321,ls),
(633,420,o),
(614,429,o),
(568,429,c),
(568,450,l),
(786,450,l),
(786,429,l),
(740,429,o),
(721,420,o),
(721,321,cs),
(721,21,l)
);
}
);
width = 816;
}
);
unicode = 1097;
},
{
glyphname = "dzhe-cy";
lastChange = "2026-06-13 19:09:08 +0000";
layers = (
{
layerId = m01;
shapes = (
{
closed = 1;
nodes = (
(24,0,l),
(24,21,l),
(70,21,o),
(89,30,o),
(89,129,cs),
(89,321,ls),
(89,420,o),
(70,429,o),
(24,429,c),
(24,450,l),
(242,450,l),
(242,429,l),
(196,429,o),
(177,420,o),
(177,321,cs),
(177,20,l),
(356,20,l),
(356,321,ls),
(356,420,o),
(337,429,o),
(291,429,c),
(291,450,l),
(509,450,l),
(509,429,l),
(463,429,o),
(444,420,o),
(444,321,cs),
(444,129,ls),
(444,30,o),
(463,21,o),
(509,21,c),
(509,0,l),
(405,0,ls),
(322,0,o),
(276,-10,o),
(276,-106,c),
(256,-106,l),
(256,-10,o),
(210,0,o),
(127,0,cs)
);
}
);
width = 539;
}
);
unicode = 1119;
},
{
glyphname = "softsign-cy";
lastChange = "2025-11-14 11:11:23 +0000";
layers = (
{
layerId = m01;
shapes = (
{
closed = 1;
nodes = (
(174,321,ls),
(174,420,o),
(193,429,o),
(239,429,c),
(239,450,l),
(21,450,l),
(21,429,l),
(67,429,o),
(86,420,o),
(86,321,cs),
(86,129,ls),
(86,30,o),
(67,21,o),
(21,21,c),
(21,0,l),
(84,0,o),
(168,-1,o),
(231,-1,cs),
(323,-1,o),
(436,16,o),
(436,130,cs),
(436,239,o),
(308,247,o),
(232,247,cs),
(214,247,o),
(187,245,o),
(174,243,c)
);
},
{
closed = 1;
nodes = (
(344,56,o),
(293,21,o),
(229,21,cs),
(214,21,o),
(193,22,o),
(174,23,c),
(174,223,l),
(196,227,o),
(214,227,o),
(227,227,cs),
(283,227,o),
(344,197,o),
(344,122,c)
);
}
);
width = 453;
}
);
unicode = 1100;
},
{
glyphname = "yeru-cy";
lastChange = "2025-11-14 11:11:23 +0000";
layers = (
{
layerId = m01;
shapes = (
{
closed = 1;
nodes = (
(174,321,ls),
(174,420,o),
(193,429,o),
(239,429,c),
(239,450,l),
(21,450,l),
(21,429,l),
(67,429,o),
(86,420,o),
(86,321,cs),
(86,129,ls),
(86,30,o),
(67,21,o),
(21,21,c),
(21,0,l),
(84,0,o),
(168,-1,o),
(231,-1,cs),
(323,-1,o),
(436,16,o),
(436,130,cs),
(436,239,o),
(308,247,o),
(232,247,cs),
(214,247,o),
(187,245,o),
(174,243,c)
);
},
{
closed = 1;
nodes = (
(344,56,o),
(293,21,o),
(229,21,cs),
(214,21,o),
(193,22,o),
(174,23,c),
(174,223,l),
(196,227,o),
(214,227,o),
(227,227,cs),
(283,227,o),
(344,197,o),
(344,122,c)
);
},
{
closed = 1;
nodes = (
(495,321,ls),
(495,420,o),
(476,429,o),
(430,429,c),
(430,450,l),
(648,450,l),
(648,429,l),
(602,429,o),
(583,420,o),
(583,321,cs),
(583,129,ls),
(583,30,o),
(602,21,o),
(648,21,c),
(648,0,l),
(430,0,l),
(430,21,l),
(476,21,o),
(495,30,o),
(495,129,cs)
);
}
);
width = 668;
}
);
unicode = 1099;
},
{
glyphname = "hardsign-cy";
lastChange = "2025-11-14 11:11:23 +0000";
layers = (
{
layerId = m01;
shapes = (
{
closed = 1;
nodes = (
(24,450,l),
(24,322,l),
(47,322,l),
(58,429,o),
(103,427,o),
(192,429,c),
(192,129,ls),
(192,30,o),
(173,21,o),
(127,21,c),
(127,0,l),
(192,0,ls),
(201,0,o),
(274,-1,o),
(337,-1,cs),
(429,-1,o),
(542,16,o),
(542,130,cs),
(542,239,o),
(414,247,o),
(338,247,cs),
(320,247,o),
(293,245,o),
(280,243,c),
(280,321,ls),
(280,420,o),
(299,429,o),
(345,429,c),
(345,450,l)
);
},
{
closed = 1;
nodes = (
(280,223,l),
(302,227,o),
(320,227,o),
(333,227,cs),
(389,227,o),
(450,197,o),
(450,122,cs),
(450,56,o),
(399,21,o),
(335,21,cs),
(320,21,o),
(299,22,o),
(280,23,c)
);
}
);
width = 559;
}
);
unicode = 1098;
},
{
glyphname = "lje-cy";
lastChange = "2025-11-14 11:11:23 +0000";
layers = (
{
layerId = m01;
shapes = (
{
closed = 1;
nodes = (
(511,321,ls),
(511,420,o),
(530,429,o),
(576,429,c),
(576,450,l),
(111,450,l),
(111,429,l),
(157,429,o),
(175,420,o),
(175,321,cs),
(175,265,o),
(174,210,o),
(167,154,cs),
(156,63,o),
(147,11,o),
(107,11,cs),
(73,11,o),
(54,53,o),
(95,105,c),
(83,115,o),
(69,120,o),
(56,120,cs),
(27,120,o),
(1,97,o),
(1,63,cs),
(1,11,o),
(54,-10,o),
(103,-10,cs),
(198,-10,o),
(227,79,o),
(235,141,cs),
(243,205,o),
(244,252,o),
(244,303,cs),
(244,343,o),
(243,403,o),
(239,430,c),
(423,430,l),
(423,129,ls),
(423,30,o),
(404,21,o),
(358,21,c),
(358,0,l),
(423,0,ls),
(432,0,o),
(505,-1,o),
(568,-1,cs),
(660,-1,o),
(773,16,o),
(773,130,cs),
(773,239,o),
(645,247,o),
(569,247,cs),
(551,247,o),
(524,245,o),
(511,243,c)
);
},
{
closed = 1;
nodes = (
(511,223,l),
(533,227,o),
(551,227,o),
(564,227,cs),
(620,227,o),
(681,197,o),
(681,122,cs),
(681,56,o),
(630,21,o),
(566,21,cs),
(551,21,o),
(530,22,o),
(511,23,c)
);
}
);
width = 790;
}
);
unicode = 1113;
},
{
glyphname = "nje-cy";
lastChange = "2025-11-14 11:11:23 +0000";
layers = (
{
layerId = m01;
shapes = (
{
closed = 1;
nodes = (
(84,129,ls),
(84,30,o),
(65,21,o),
(19,21,c),
(19,0,l),
(237,0,l),
(237,21,l),
(191,21,o),
(172,30,o),
(172,129,cs),
(172,222,l),
(365,222,l),
(365,129,ls),
(365,30,o),
(346,21,o),
(300,21,c),
(300,0,l),
(510,-1,ls),
(602,-1,o),
(715,16,o),
(715,130,cs),
(715,239,o),
(587,247,o),
(511,247,cs),
(493,247,o),
(466,245,o),
(453,243,c),
(453,321,ls),
(453,420,o),
(472,429,o),
(518,429,c),
(518,450,l),
(300,450,l),
(300,429,l),
(346,429,o),
(365,420,o),
(365,321,cs),
(365,245,l),
(172,245,l),
(172,321,ls),
(172,420,o),
(191,429,o),
(237,429,c),
(237,450,l),
(19,450,l),
(19,429,l),
(65,429,o),
(84,420,o),
(84,321,cs)
);
},
{
closed = 1;
nodes = (
(453,223,l),
(475,227,o),
(493,227,o),
(506,227,cs),
(562,227,o),
(623,197,o),
(623,122,cs),
(623,56,o),
(572,21,o),
(508,21,cs),
(493,21,o),
(472,22,o),
(453,23,c)
);
}
);
width = 735;
}
);
unicode = 1114;
},
{
glyphname = "e-cy";
lastChange = "2025-11-14 11:11:23 +0000";
layers = (
{
layerId = m01;
shapes = (
{
closed = 1;
nodes = (
(203,22,o),
(145,83,o),
(139,211,c),
(340,211,l),
(340,241,l),
(139,241,l),
(142,370,o),
(195,442,o),
(275,442,cs),
(341,442,o),
(385,375,o),
(348,315,c),
(359,308,o),
(370,304,o),
(381,304,cs),
(415,304,o),
(441,330,o),
(441,363,cs),
(441,443,o),
(342,465,o),
(284,465,cs),
(152,465,o),
(45,357,o),
(45,218,cs),
(45,78,o),
(142,-10,o),
(279,-10,cs),
(370,-10,o),
(456,42,o),
(456,98,cs),
(456,118,o),
(447,130,o),
(431,130,cs),
(420,130,o),
(411,126,o),
(403,117,c),
(416,62,o),
(357,22,o),
(287,22,cs)
);
}
);
width = 504;
}
);
unicode = 1108;
},
{
glyphname = "ereversed-cy";
lastChange = "2025-11-14 11:11:23 +0000";
layers = (
{
layerId = m01;
shapes = (
{
closed = 1;
nodes = (
(360,-10,o),
(446,78,o),
(446,238,cs),
(446,386,o),
(359,465,o),
(232,465,cs),
(169,465,o),
(60,443,o),
(60,363,cs),
(60,330,o),
(86,304,o),
(120,304,cs),
(131,304,o),
(142,308,o),
(153,315,c),
(116,375,o),
(170,442,o),
(241,442,cs),
(316,442,o),
(349,380,o),
(352,241,c),
(161,241,l),
(161,211,l),
(352,211,l),
(346,83,o),
(308,13,o),
(228,13,cs),
(144,13,o),
(98,85,o),
(135,145,c),
(124,152,o),
(113,156,o),
(102,156,cs),
(68,156,o),
(42,130,o),
(42,97,cs),
(42,17,o),
(151,-10,o),
(219,-10,cs)
);
}
);
width = 494;
}
);
unicode = 1101;
},
{
glyphname = "i-cy";
lastChange = "2025-11-14 11:11:23 +0000";
layers = (
{
layerId = m01;
shapes = (
{
closed = 1;
nodes = (
(202,659,o),
(177,684,o),
(145,684,cs),
(115,684,o),
(89,657,o),
(89,627,cs),
(89,596,o),
(116,570,o),
(145,570,cs),
(177,570,o),
(202,596,o),
(202,626,cs)
);
},
{
closed = 1;
nodes = (
(104,384,ls),
(104,422,o),
(99,427,o),
(85,427,cs),
(29,426,l),
(28,447,l),
(192,456,l),
(192,129,ls),
(192,30,o),
(211,21,o),
(267,21,c),
(267,0,l),
(29,0,l),
(29,21,l),
(85,21,o),
(104,30,o),
(104,129,cs)
);
}
);
width = 295;
}
);
unicode = 1110;
},
{
glyphname = "je-cy";
lastChange = "2026-06-07 19:46:53 +0000";
layers = (
{
layerId = m01;
shapes = (
{
closed = 1;
nodes = (
(7,426,l),
(6,447,l),
(170,456,l),
(170,-74,ls),
(170,-172,o),
(128,-253,o),
(34,-253,cs),
(-17,-253,o),
(-71,-232,o),
(-71,-180,cs),
(-71,-146,o),
(-45,-123,o),
(-16,-123,cs),
(-3,-123,o),
(11,-128,o),
(23,-138,c),
(-18,-190,o),
(2,-232,o),
(38,-232,cs),
(77,-232,o),
(82,-192,o),
(82,-89,cs),
(82,384,ls),
(82,422,o),
(77,427,o),
(63,427,cs)
);
},
{
closed = 1;
nodes = (
(180,658,o),
(154,685,o),
(124,685,cs),
(93,685,o),
(67,659,o),
(67,629,cs),
(67,598,o),
(93,571,o),
(124,571,cs),
(154,571,o),
(180,597,o),
(180,628,cs)
);
}
);
width = 267;
}
);
unicode = 1112;
},
{
glyphname = "tshe-cy";
lastChange = "2025-11-14 11:11:23 +0000";
layers = (
{
layerId = m01;
shapes = (
{
closed = 1;
nodes = (
(493,30,o),
(512,21,o),
(568,21,c),
(568,0,l),
(329,0,l),
(329,21,l),
(385,21,o),
(404,30,o),
(404,129,cs),
(404,292,ls),
(404,365,o),
(378,423,o),
(314,423,cs),
(263,423,o),
(194,360,o),
(189,306,c),
(189,129,ls),
(189,30,o),
(208,21,o),
(264,21,c),
(264,0,l),
(26,0,l),
(26,21,l),
(82,21,o),
(101,30,o),
(101,129,cs),
(101,539,l),
(25,539,l),
(25,569,l),
(101,569,l),
(101,641,ls),
(101,679,o),
(96,684,o),
(82,684,cs),
(26,683,l),
(25,704,l),
(189,713,l),
(189,569,l),
(326,569,l),
(326,539,l),
(189,539,l),
(189,368,l),
(190,368,l),
(227,435,o),
(276,465,o),
(341,465,cs),
(434,465,o),
(493,411,o),
(493,311,cs),
(493,129,ls)
);
}
);
width = 593;
}
);
unicode = 1115;
},
{
glyphname = "yu-cy";
lastChange = "2025-11-14 11:11:23 +0000";
layers = (
{
layerId = m01;
shapes = (
{
closed = 1;
nodes = (
(728,361,o),
(619,465,o),
(496,465,cs),
(363,465,o),
(260,372,o),
(249,245,c),
(172,245,l),
(172,321,ls),
(172,420,o),
(191,429,o),
(237,429,c),
(237,450,l),
(19,450,l),
(19,429,l),
(65,429,o),
(84,420,o),
(84,321,cs),
(84,129,ls),
(84,30,o),
(65,21,o),
(19,21,c),
(19,0,l),
(237,0,l),
(237,21,l),
(191,21,o),
(172,30,o),
(172,129,cs),
(172,222,l),
(248,222,l),
(248,89,o),
(351,-10,o),
(478,-10,cs),
(617,-10,o),
(728,96,o),
(728,235,cs)
);
},
{
closed = 1;
nodes = (
(345,376,o),
(390,442,o),
(483,442,cs),
(570,442,o),
(631,355,o),
(631,212,cs),
(631,78,o),
(583,12,o),
(500,12,cs),
(410,12,o),
(345,86,o),
(345,250,cs)
);
}
);
width = 776;
}
);
unicode = 1102;
},
{
glyphname = "ya-cy";
lastChange = "2025-11-14 11:11:23 +0000";
layers = (
{
layerId = m01;
shapes = (
{
closed = 1;
nodes = (
(311,128,ls),
(311,29,o),
(292,20,o),
(246,20,c),
(246,-1,l),
(464,-1,l),
(464,20,l),
(418,20,o),
(399,29,o),
(399,128,cs),
(399,320,ls),
(399,419,o),
(418,428,o),
(464,428,c),
(464,449,l),
(254,450,ls),
(159,450,o),
(49,434,o),
(49,334,cs),
(49,262,o),
(113,228,o),
(188,222,c),
(131,205,o),
(98,164,o),
(80,101,cs),
(70,65,ls),
(59,26,o),
(50,14,o),
(36,14,cs),
(25,14,o),
(18,19,o),
(8,26,c),
(0,5,l),
(17,-4,o),
(33,-10,o),
(59,-10,cs),
(136,-10,o),
(160,38,o),
(172,101,cs),
(176,122,ls),
(186,175,o),
(219,206,o),
(255,217,c),
(273,217,o),
(299,219,o),
(311,221,c)
);
},
{
closed = 1;
nodes = (
(142,394,o),
(189,428,o),
(256,428,cs),
(271,428,o),
(292,427,o),
(311,426,c),
(311,241,l),
(289,237,o),
(271,237,o),
(258,237,cs),
(199,237,o),
(141,264,o),
(141,335,cs)
);
}
);
width = 489;
}
);
unicode = 1103;
},
{
glyphname = "dje-cy";
lastChange = "2025-11-14 11:11:23 +0000";
layers = (
{
layerId = m01;
shapes = (
{
closed = 1;
nodes = (
(314,-166,l),
(378,-166,o),
(404,-108,o),
(404,-35,cs),
(404,292,ls),
(404,365,o),
(378,423,o),
(314,423,cs),
(263,423,o),
(194,360,o),
(189,306,c),
(189,129,ls),
(189,30,o),
(208,21,o),
(264,21,c),
(264,0,l),
(26,0,l),
(26,21,l),
(82,21,o),
(101,30,o),
(101,129,cs),
(101,539,l),
(25,539,l),
(25,569,l),
(101,569,l),
(101,641,ls),
(101,679,o),
(96,684,o),
(82,684,cs),
(26,683,l),
(25,704,l),
(189,713,l),
(189,569,l),
(326,569,l),
(326,539,l),
(189,539,l),
(189,368,l),
(190,368,l),
(227,435,o),
(276,465,o),
(341,465,cs),
(434,465,o),
(493,411,o),
(493,311,cs),
(493,-31,ls),
(493,-154,o),
(407,-187,o),
(314,-187,c)
);
}
);
width = 600;
}
);
unicode = 1106;
},
{
glyphname = "zhedescender-cy";
lastChange = "2025-11-14 11:11:23 +0000";
layers = (
{
layerId = m01;
shapes = (
{
closed = 1;
nodes = (
(168,101,ls),
(156,38,o),
(132,-10,o),
(55,-10,cs),
(29,-10,o),
(13,-4,o),
(-4,5,c),
(4,26,l),
(14,19,o),
(21,14,o),
(32,14,cs),
(46,14,o),
(57,26,o),
(66,65,cs),
(79,121,ls),
(96,196,o),
(151,226,o),
(230,238,c),
(112,388,ls),
(85,422,o),
(80,429,o),
(26,429,c),
(26,450,l),
(182,450,l),
(182,429,l),
(158,429,ls),
(134,429,o),
(122,415,o),
(134,400,cs),
(255,242,l),
(282,245,o),
(294,243,o),
(297,243,c),
(297,321,ls),
(297,420,o),
(278,429,o),
(232,429,c),
(232,450,l),
(450,450,l),
(450,429,l),
(404,429,o),
(385,420,o),
(385,321,cs),
(385,243,l),
(388,243,o),
(400,245,o),
(427,242,c),
(548,400,ls),
(560,415,o),
(548,429,o),
(524,429,cs),
(500,429,l),
(500,450,l),
(656,450,l),
(656,429,l),
(602,429,o),
(597,422,o),
(570,388,cs),
(452,238,l),
(531,226,o),
(586,196,o),
(603,121,cs),
(616,65,ls),
(625,26,o),
(636,14,o),
(650,14,cs),
(661,14,o),
(668,19,o),
(678,26,c),
(678,-106,l),
(658,-106,l),
(651,-34,o),
(639,-18,o),
(595,-6,cs),
(541,8,o),
(523,52,o),
(514,101,cs),
(510,122,ls),
(497,188,o),
(447,221,o),
(399,221,cs),
(385,221,l),
(385,129,ls),
(385,30,o),
(404,21,o),
(450,21,c),
(450,0,l),
(232,0,l),
(232,21,l),
(278,21,o),
(297,30,o),
(297,129,cs),
(297,221,l),
(283,221,ls),
(235,221,o),
(185,188,o),
(172,122,cs)
);
}
);
width = 682;
}
);
unicode = 1175;
},
{
glyphname = "kadescender-cy";
lastChange = "2025-11-14 11:11:23 +0000";
layers = (
{
layerId = m01;
shapes = (
{
closed = 1;
nodes = (
(409,26,o),
(420,14,o),
(434,14,cs),
(445,14,o),
(452,19,o),
(462,26,c),
(462,-106,l),
(442,-106,l),
(435,-34,o),
(423,-18,o),
(379,-6,cs),
(325,8,o),
(307,52,o),
(298,101,cs),
(294,122,ls),
(281,188,o),
(234,221,o),
(186,221,cs),
(172,221,l),
(172,129,ls),
(172,30,o),
(191,21,o),
(237,21,c),
(237,0,l),
(19,0,l),
(19,21,l),
(65,21,o),
(84,30,o),
(84,129,cs),
(84,321,ls),
(84,420,o),
(65,429,o),
(19,429,c),
(19,450,l),
(237,450,l),
(237,429,l),
(191,429,o),
(172,420,o),
(172,321,cs),
(172,243,l),
(175,243,o),
(187,245,o),
(214,242,c),
(335,400,ls),
(347,415,o),
(335,429,o),
(311,429,cs),
(287,429,l),
(287,450,l),
(443,450,l),
(443,429,l),
(389,429,o),
(384,422,o),
(357,388,cs),
(239,238,l),
(318,226,o),
(370,196,o),
(387,121,cs),
(400,65,ls)
);
}
);
width = 463;
}
);
unicode = 1179;
},
{
glyphname = "endescender-cy";
lastChange = "2025-11-14 11:11:23 +0000";
layers = (
{
layerId = m01;
shapes = (
{
closed = 1;
nodes = (
(300,0,l),
(300,21,l),
(346,21,o),
(365,30,o),
(365,129,cs),
(365,222,l),
(172,222,l),
(172,129,ls),
(172,30,o),
(191,21,o),
(237,21,c),
(237,0,l),
(19,0,l),
(19,21,l),
(65,21,o),
(84,30,o),
(84,129,cs),
(84,321,ls),
(84,420,o),
(65,429,o),
(19,429,c),
(19,450,l),
(237,450,l),
(237,429,l),
(191,429,o),
(172,420,o),
(172,321,cs),
(172,245,l),
(365,245,l),
(365,321,ls),
(365,420,o),
(346,429,o),
(300,429,c),
(300,450,l),
(518,450,l),
(518,429,l),
(472,429,o),
(453,420,o),
(453,321,cs),
(453,129,ls),
(453,30,o),
(472,21,o),
(518,21,c),
(518,-106,l),
(498,-106,l),
(487,0,o),
(442,0,o),
(349,0,cs)
);
}
);
width = 538;
}
);
unicode = 1187;
},
{
glyphname = "ustraight-cy";
lastChange = "2026-06-07 19:47:28 +0000";
layers = (
{
layerId = m01;
shapes = (
{
closed = 1;
nodes = (
(190,-114,ls),
(190,-213,o),
(171,-222,o),
(115,-222,c),
(115,-243,l),
(353,-243,l),
(353,-222,l),
(297,-222,o),
(278,-213,o),
(278,-114,cs),
(278,64,l),
(413,398,ls),
(423,423,o),
(430,429,o),
(484,429,c),
(484,450,l),
(320,450,l),
(320,429,l),
(360,429,ls),
(391,429,o),
(397,423,o),
(389,402,cs),
(274,115,l),
(266,92,l),
(263,92,l),
(261,100,o),
(259,107,o),
(256,115,cs),
(147,405,ls),
(139,426,o),
(149,429,o),
(161,429,cs),
(213,429,l),
(213,450,l),
(-18,450,l),
(-18,429,l),
(36,429,o),
(48,421,o),
(57,398,cs),
(190,64,l)
);
}
);
width = 490;
}
);
unicode = 1199;
},
{
glyphname = "ustraightstroke-cy";
lastChange = "2026-06-07 19:47:21 +0000";
layers = (
{
layerId = m01;
shapes = (
{
closed = 1;
nodes = (
(84,0,l),
(190,0,l),
(190,-114,ls),
(190,-213,o),
(171,-222,o),
(115,-222,c),
(115,-243,l),
(353,-243,l),
(353,-222,l),
(297,-222,o),
(278,-213,o),
(278,-114,cs),
(278,0,l),
(385,0,l),
(385,30,l),
(278,30,l),
(278,64,l),
(413,398,ls),
(423,423,o),
(430,429,o),
(484,429,c),
(484,450,l),
(320,450,l),
(320,429,l),
(360,429,ls),
(391,429,o),
(397,423,o),
(389,402,cs),
(274,115,l),
(266,92,l),
(263,92,l),
(261,100,o),
(259,107,o),
(256,115,cs),
(147,405,ls),
(139,426,o),
(149,429,o),
(161,429,cs),
(213,429,l),
(213,450,l),
(-18,450,l),
(-18,429,l),
(36,429,o),
(48,421,o),
(57,398,cs),
(190,64,l),
(190,30,l),
(84,30,l)
);
}
);
width = 490;
}
);
unicode = 1201;
},
{
glyphname = "hadescender-cy";
lastChange = "2025-11-14 11:11:23 +0000";
layers = (
{
layerId = m01;
shapes = (
{
closed = 1;
nodes = (
(256,0,l),
(256,21,l),
(288,21,ls),
(317,21,o),
(330,27,o),
(320,41,cs),
(217,191,l),
(96,39,ls),
(88,29,o),
(94,21,o),
(112,21,cs),
(159,21,l),
(159,0,l),
(0,0,l),
(0,21,l),
(54,21,o),
(59,28,o),
(76,50,cs),
(202,212,l),
(80,398,ls),
(66,419,o),
(57,429,o),
(3,429,c),
(3,450,l),
(236,450,l),
(236,429,l),
(188,429,ls),
(167,429,o),
(164,421,o),
(169,413,cs),
(262,280,l),
(355,400,ls),
(367,415,o),
(355,429,o),
(331,429,c),
(307,429,l),
(307,450,l),
(463,450,l),
(463,429,l),
(409,429,o),
(404,422,o),
(387,400,cs),
(275,258,l),
(412,52,ls),
(426,31,o),
(431,21,o),
(485,21,c),
(485,-106,l),
(465,-106,l),
(454,0,o),
(409,0,o),
(316,0,cs)
);
}
);
width = 480;
}
);
unicode = 1203;
},
{
glyphname = "chedescender-cy";
lastChange = "2025-11-14 11:11:23 +0000";
layers = (
{
layerId = m01;
shapes = (
{
closed = 1;
nodes = (
(257,0,l),
(257,21,l),
(303,21,o),
(322,30,o),
(322,129,cs),
(322,198,l),
(321,198,l),
(300,160,o),
(260,147,o),
(213,147,cs),
(153,147,o),
(84,167,o),
(84,255,cs),
(84,321,ls),
(84,420,o),
(65,429,o),
(19,429,c),
(19,450,l),
(237,450,l),
(237,429,l),
(191,429,o),
(172,420,o),
(172,321,cs),
(172,274,ls),
(172,201,o),
(213,189,o),
(241,189,cs),
(279,189,o),
(317,206,o),
(322,260,c),
(322,321,ls),
(322,420,o),
(303,429,o),
(257,429,c),
(257,450,l),
(475,450,l),
(475,429,l),
(429,429,o),
(410,420,o),
(410,321,cs),
(410,21,l),
(475,21,l),
(475,-106,l),
(455,-106,l),
(444,0,o),
(399,0,o),
(306,0,cs)
);
}
);
width = 494;
}
);
unicode = 1207;
},
{
glyphname = "shha-cy";
lastChange = "2025-11-14 11:11:23 +0000";
layers = (
{
anchors = (
{
name = bottom;
pos = (299,0);
},
{
name = top;
pos = (325,500);
}
);
layerId = m01;
shapes = (
{
closed = 1;
nodes = (
(493,30,o),
(512,21,o),
(568,21,c),
(568,0,l),
(329,0,l),
(329,21,l),
(385,21,o),
(404,30,o),
(404,129,cs),
(404,292,ls),
(404,365,o),
(378,423,o),
(314,423,cs),
(263,423,o),
(194,360,o),
(189,306,c),
(189,129,ls),
(189,30,o),
(208,21,o),
(264,21,c),
(264,0,l),
(26,0,l),
(26,21,l),
(82,21,o),
(101,30,o),
(101,129,cs),
(101,641,ls),
(101,679,o),
(96,684,o),
(82,684,cs),
(26,683,l),
(25,704,l),
(189,713,l),
(189,368,l),
(190,368,l),
(227,435,o),
(276,465,o),
(341,465,cs),
(434,465,o),
(493,411,o),
(493,311,cs),
(493,129,ls)
);
}
);
width = 593;
}
);
unicode = 1211;
},
{
glyphname = "schwa-cy";
lastChange = "2025-11-14 11:11:23 +0000";
layers = (
{
layerId = m01;
shapes = (
{
closed = 1;
nodes = (
(45,219,l),
(45,82,o),
(101,-10,o),
(231,-10,cs),
(368,-10,o),
(445,103,o),
(445,235,cs),
(445,375,o),
(352,465,o),
(230,465,cs),
(167,465,o),
(106,436,o),
(62,376,c),
(78,363,l),
(118,408,o),
(165,433,o),
(209,433,cs),
(307,433,o),
(349,356,o),
(349,219,c)
);
},
{
closed = 1;
nodes = (
(154,194,o),
(176,195,o),
(195,195,cs),
(240,195,o),
(282,194,o),
(349,193,c),
(349,88,o),
(317,13,o),
(234,13,cs),
(151,13,o),
(139,101,o),
(139,194,c)
);
}
);
width = 490;
}
);
unicode = 1241;
},
{
glyphname = "obarred-cy";
lastChange = "2025-11-14 11:11:23 +0000";
layers = (
{
layerId = m01;
shapes = (
{
closed = 1;
nodes = (
(528,361,o),
(419,465,o),
(296,465,cs),
(155,465,o),
(48,361,o),
(48,222,cs),
(48,89,o),
(151,-10,o),
(278,-10,cs),
(417,-10,o),
(528,96,o),
(528,235,cs)
);
},
{
closed = 1;
nodes = (
(145,250,ls),
(145,376,o),
(190,442,o),
(283,442,cs),
(363,442,o),
(421,369,o),
(430,246,c),
(145,246,l)
);
},
{
closed = 1;
nodes = (
(431,216,l),
(431,212,ls),
(431,78,o),
(383,12,o),
(300,12,cs),
(216,12,o),
(154,76,o),
(146,216,c)
);
}
);
width = 576;
}
);
unicode = 1257;
},
{
glyphname = Alpha;
lastChange = "2025-09-03 17:51:50 +0000";
layers = (
{
anchors = (
{
name = bottom;
pos = (301,0);
},
{
name = ogonek;
pos = (499,0);
},
{
name = side;
pos = (637,200);
},
{
name = tonos;
pos = (93,492);
},
{
name = top;
pos = (341,760);
}
);
layerId = m01;
shapes = (
{
closed = 1;
nodes = (
(199,273,l),
(303,560,l),
(405,273,l)
);
},
{
closed = 1;
nodes = (
(489,38,o),
(479,23,o),
(408,23,c),
(408,0,l),
(676,0,l),
(676,23,l),
(610,23,o),
(600,43,o),
(557,161,cs),
(354,718,l),
(327,718,l),
(123,145,ls),
(83,34,o),
(70,23,o),
(-1,23,c),
(-1,0,l),
(199,0,l),
(199,23,l),
(128,23,o),
(112,45,o),
(154,155,cs),
(189,246,l),
(415,246,l),
(453,139,ls)
);
}
);
width = 675;
}
);
unicode = 913;
},
{
glyphname = Beta;
lastChange = "2026-06-13 18:57:40 +0000";
layers = (
{
layerId = m01;
shapes = (
{
closed = 1;
nodes = (
(443,437,o),
(405,375,o),
(294,375,cs),
(269,375,o),
(244,376,o),
(218,379,c),
(218,675,l),
(241,676,o),
(270,678,o),
(290,678,cs),
(393,678,o),
(443,643,o),
(443,528,cs)
);
},
{
closed = 1;
nodes = (
(470,76,o),
(422,19,o),
(325,19,cs),
(287,19,o),
(253,21,o),
(220,32,c),
(219,60,o),
(218,84,o),
(218,113,cs),
(218,355,l),
(257,353,o),
(300,352,o),
(345,354,c),
(415,344,o),
(470,273,o),
(470,184,cs)
);
},
{
closed = 1;
nodes = (
(101,676,o),
(120,645,o),
(120,556,cs),
(120,143,ls),
(120,54,o),
(101,23,o),
(30,23,c),
(30,0,l),
(77,0,o),
(125,1,o),
(168,1,cs),
(206,1,o),
(306,-2,o),
(343,-2,cs),
(494,-2,o),
(581,58,o),
(581,196,cs),
(581,296,o),
(506,360,o),
(395,367,c),
(485,384,o),
(555,442,o),
(555,530,cs),
(555,643,o),
(467,701,o),
(343,701,cs),
(289,701,o),
(236,698,o),
(170,698,cs),
(116,698,o),
(72,700,o),
(30,700,c),
(30,676,l)
);
}
);
width = 631;
}
);
unicode = 914;
},
{
glyphname = Gamma;
lastChange = "2026-06-17 17:17:11 +0000";
layers = (
{
layerId = m01;
shapes = (
{
closed = 1;
nodes = (
(216,677,l),
(419,671,o),
(518,693,o),
(536,507,c),
(563,507,l),
(563,700,l),
(30,700,l),
(30,676,l),
(101,676,o),
(120,645,o),
(120,556,cs),
(120,143,ls),
(120,54,o),
(101,23,o),
(30,23,c),
(30,0,l),
(306,0,l),
(306,23,l),
(235,23,o),
(216,54,o),
(216,143,cs)
);
}
);
width = 588;
}
);
unicode = 915;
},
{
glyphname = Delta;
lastChange = "2024-10-13 14:44:37 +0000";
layers = (
{
layerId = m01;
shapes = (
{
closed = 1;
nodes = (
(563,0,l),
(295,718,l),
(268,718,l),
(-1,0,l)
);
},
{
closed = 1;
nodes = (
(244,570,l),
(419,90,l),
(158,90,ls),
(122,90,o),
(85,90,o),
(64,92,c),
(81,140,o),
(97,183,o),
(117,236,cs)
);
}
);
width = 562;
}
);
unicode = 916;
},
{
glyphname = Epsilon;
lastChange = "2025-08-25 15:42:54 +0000";
layers = (
{
anchors = (
{
name = side;
pos = (597,200);
},
{
name = tonos;
pos = (-147,492);
}
);
layerId = m01;
shapes = (
{
closed = 1;
nodes = (
(30,0,l),
(577,0,l),
(577,223,l),
(551,223,l),
(544,74,o),
(473,23,o),
(313,23,cs),
(279,23,o),
(252,24,o),
(220,25,c),
(217,65,o),
(216,105,o),
(216,150,cs),
(216,346,l),
(263,346,ls),
(350,346,o),
(398,336,o),
(402,222,c),
(428,222,l),
(428,491,l),
(402,491,l),
(400,407,o),
(372,371,o),
(304,371,cs),
(216,371,l),
(216,677,l),
(416,671,o),
(510,693,o),
(527,507,c),
(553,507,l),
(552,572,o),
(552,636,o),
(552,700,c),
(30,700,l),
(30,676,l),
(101,676,o),
(120,645,o),
(120,556,cs),
(120,143,ls),
(120,54,o),
(101,23,o),
(30,23,c)
);
}
);
width = 641;
}
);
unicode = 917;
},
{
glyphname = Zeta;
lastChange = "2024-10-13 14:44:37 +0000";
layers = (
{
layerId = m01;
shapes = (
{
closed = 1;
nodes = (
(570,223,l),
(560,52,o),
(446,23,o),
(302,23,cs),
(259,23,o),
(216,22,o),
(173,23,c),
(573,700,l),
(83,700,l),
(82,506,l),
(108,506,l),
(117,619,o),
(161,672,o),
(293,675,cs),
(345,676,o),
(396,677,o),
(448,676,c),
(45,0,l),
(589,0,l),
(596,223,l)
);
}
);
width = 646;
}
);
unicode = 918;
},
{
glyphname = Eta;
lastChange = "2025-09-03 18:06:57 +0000";
layers = (
{
anchors = (
{
name = bottom;
pos = (362,0);
},
{
name = side;
pos = (677,200);
},
{
name = tonos;
pos = (-147,492);
}
);
layerId = m01;
shapes = (
{
closed = 1;
nodes = (
(216,348,l),
(512,348,l),
(512,143,ls),
(512,54,o),
(493,23,o),
(422,23,c),
(422,0,l),
(699,0,l),
(699,23,l),
(628,23,o),
(609,54,o),
(609,143,cs),
(609,556,ls),
(609,645,o),
(628,676,o),
(699,676,c),
(699,700,l),
(422,700,l),
(422,676,l),
(493,676,o),
(512,645,o),
(512,556,cs),
(512,374,l),
(216,374,l),
(216,556,l),
(216,645,o),
(235,676,o),
(306,676,c),
(306,700,l),
(30,700,l),
(30,676,l),
(101,676,o),
(120,645,o),
(120,556,cs),
(120,143,ls),
(120,54,o),
(101,23,o),
(30,23,c),
(30,0,l),
(306,0,l),
(306,23,l),
(235,23,o),
(216,54,o),
(216,143,cs)
);
}
);
width = 729;
}
);
unicode = 919;
},
{
glyphname = Theta;
lastChange = "2026-06-13 18:58:37 +0000";
layers = (
{
layerId = m01;
shapes = (
{
closed = 1;
nodes = (
(762,556,o),
(605,714,o),
(423,714,cs),
(214,714,o),
(50,556,o),
(50,343,cs),
(50,138,o),
(207,-13,o),
(396,-13,cs),
(602,-13,o),
(762,149,o),
(762,363,cs)
);
},
{
closed = 1;
nodes = (
(647,114,o),
(571,12,o),
(430,12,cs),
(278,12,o),
(165,128,o),
(165,386,cs),
(165,586,o),
(245,690,o),
(403,690,cs),
(550,690,o),
(647,553,o),
(647,327,cs)
);
},
{
closed = 1;
nodes = (
(365,316,ls),
(318,316,o),
(270,318,o),
(266,224,c),
(240,224,l),
(243,312,o),
(244,393,o),
(240,485,c),
(266,485,l),
(268,404,o),
(296,397,o),
(364,397,cs),
(448,397,ls),
(516,397,o),
(544,404,o),
(546,485,c),
(572,485,l),
(568,393,o),
(569,312,o),
(572,224,c),
(546,224,l),
(542,318,o),
(494,316,o),
(447,316,cs)
);
}
);
width = 812;
}
);
unicode = 920;
},
{
glyphname = Iota;
lastChange = "2025-08-25 17:03:23 +0000";
layers = (
{
anchors = (
{
name = tonos;
pos = (-147,492);
},
{
name = top;
pos = (179,760);
}
);
layerId = m01;
shapes = (
{
closed = 1;
nodes = (
(104,676,o),
(123,645,o),
(123,556,cs),
(123,143,ls),
(123,54,o),
(104,23,o),
(33,23,c),
(33,0,l),
(314,0,l),
(314,23,l),
(243,23,o),
(224,54,o),
(224,143,cs),
(224,556,ls),
(224,645,o),
(243,676,o),
(314,676,c),
(314,700,l),
(33,700,l),
(33,676,l)
);
}
);
width = 347;
}
);
unicode = 921;
},
{
glyphname = Kappa;
lastChange = "2025-09-02 18:04:53 +0000";
layers = (
{
layerId = m01;
shapes = (
{
closed = 1;
nodes = (
(217,271,l),
(301,368,l),
(483,71,ls),
(501,42,o),
(489,23,o),
(430,23,c),
(430,0,l),
(714,0,l),
(714,23,l),
(638,23,o),
(621,43,o),
(595,84,cs),
(572,121,ls),
(504,230,o),
(438,341,o),
(371,451,c),
(485,584,l),
(551,667,o),
(567,676,o),
(647,676,c),
(647,700,l),
(429,700,l),
(429,676,l),
(495,676,o),
(507,649,o),
(469,604,cs),
(218,312,l),
(218,556,ls),
(218,645,o),
(236,676,o),
(307,676,c),
(307,700,l),
(30,700,l),
(30,676,l),
(101,676,o),
(119,645,o),
(119,556,cs),
(119,143,ls),
(119,54,o),
(101,23,o),
(30,23,c),
(30,0,l),
(306,0,l),
(306,23,l),
(235,23,o),
(217,54,o),
(217,143,cs)
);
}
);
width = 707;
}
);
unicode = 922;
},
{
glyphname = Lambda;
lastChange = "2025-08-25 16:53:37 +0000";
layers = (
{
layerId = m01;
shapes = (
{
closed = 1;
nodes = (
(298,569,l),
(444,139,ls),
(479,37,o),
(470,23,o),
(399,23,c),
(399,0,l),
(667,0,l),
(667,23,l),
(601,23,o),
(590,43,o),
(548,161,cs),
(349,718,l),
(322,718,l),
(123,145,ls),
(84,34,o),
(70,23,o),
(-1,23,c),
(-1,0,l),
(199,0,l),
(199,23,l),
(128,23,o),
(115,44,o),
(154,155,cs)
);
}
);
width = 665;
}
);
unicode = 923;
},
{
glyphname = Mu;
lastChange = "2025-08-25 16:04:37 +0000";
layers = (
{
layerId = m01;
shapes = (
{
closed = 1;
nodes = (
(118,143,ls),
(118,54,o),
(97,23,o),
(26,23,c),
(26,0,l),
(234,0,l),
(234,23,l),
(163,23,o),
(143,54,o),
(143,143,cs),
(143,624,l),
(366,3,l),
(382,3,l),
(611,644,l),
(611,143,ls),
(611,54,o),
(592,23,o),
(521,23,c),
(521,0,l),
(798,0,l),
(798,23,l),
(727,23,o),
(708,54,o),
(708,143,cs),
(708,556,ls),
(708,645,o),
(727,676,o),
(799,676,c),
(799,700,l),
(606,700,l),
(413,170,l),
(222,700,l),
(29,700,l),
(29,676,l),
(101,676,o),
(118,645,o),
(118,556,cs)
);
}
);
width = 825;
}
);
unicode = 924;
},
{
glyphname = Nu;
lastChange = "2025-08-25 16:51:15 +0000";
layers = (
{
layerId = m01;
shapes = (
{
closed = 1;
nodes = (
(550,180,l),
(213,700,l),
(25,700,l),
(25,676,l),
(97,676,o),
(113,645,o),
(113,556,cs),
(113,143,ls),
(113,54,o),
(92,23,o),
(21,23,c),
(21,0,l),
(229,0,l),
(229,23,l),
(158,23,o),
(138,54,o),
(138,143,cs),
(138,635,l),
(554,-12,l),
(575,-12,l),
(575,557,ls),
(575,646,o),
(595,677,o),
(666,677,c),
(666,700,l),
(458,700,l),
(458,677,l),
(529,677,o),
(550,646,o),
(550,557,cs)
);
}
);
width = 688;
}
);
unicode = 925;
},
{
glyphname = Xi;
lastChange = "2024-10-13 14:44:37 +0000";
layers = (
{
layerId = m01;
shapes = (
{
closed = 1;
nodes = (
(268,314,ls),
(221,314,o),
(173,314,o),
(169,220,c),
(143,220,l),
(146,308,o),
(147,397,o),
(143,489,c),
(169,489,l),
(171,408,o),
(199,399,o),
(267,399,cs),
(355,399,ls),
(423,399,o),
(451,408,o),
(453,489,c),
(479,489,l),
(475,397,o),
(476,308,o),
(479,220,c),
(453,220,l),
(449,314,o),
(401,314,o),
(354,314,cs)
);
},
{
closed = 1;
nodes = (
(521,94,o),
(558,104,o),
(565,223,c),
(591,223,l),
(584,0,l),
(37,0,l),
(30,223,l),
(56,223,l),
(63,104,o),
(100,94,o),
(251,94,cs),
(370,94,ls)
);
},
{
closed = 1;
nodes = (
(509,606,o),
(542,603,o),
(553,507,c),
(579,507,l),
(572,700,l),
(50,700,l),
(43,507,l),
(69,507,l),
(80,603,o),
(113,606,o),
(264,606,c),
(358,606,ls)
);
}
);
width = 655;
}
);
unicode = 926;
},
{
glyphname = Omicron;
lastChange = "2026-06-13 18:54:15 +0000";
layers = (
{
anchors = (
{
name = side;
pos = (772,200);
},
{
name = tonos;
pos = (-12,492);
}
);
layerId = m01;
shapes = (
{
closed = 1;
nodes = (
(765,556,o),
(608,714,o),
(426,714,cs),
(217,714,o),
(53,556,o),
(53,343,cs),
(53,138,o),
(210,-13,o),
(399,-13,cs),
(605,-13,o),
(765,149,o),
(765,363,cs)
);
},
{
closed = 1;
nodes = (
(650,114,o),
(574,12,o),
(433,12,cs),
(281,12,o),
(168,128,o),
(168,386,cs),
(168,586,o),
(248,690,o),
(406,690,cs),
(553,690,o),
(650,553,o),
(650,327,cs)
);
}
);
width = 818;
}
);
unicode = 927;
},
{
glyphname = Pi;
lastChange = "2025-08-25 16:06:11 +0000";
layers = (
{
layerId = m01;
shapes = (
{
closed = 1;
nodes = (
(217,674,l),
(492,674,l),
(492,143,ls),
(492,54,o),
(473,23,o),
(402,23,c),
(402,0,l),
(679,0,l),
(679,23,l),
(608,23,o),
(589,54,o),
(589,143,cs),
(589,556,ls),
(589,645,o),
(608,676,o),
(679,676,c),
(679,700,l),
(30,700,l),
(30,676,l),
(101,676,o),
(120,645,o),
(120,556,cs),
(120,143,ls),
(120,54,o),
(101,23,o),
(30,23,c),
(30,0,l),
(306,0,l),
(306,23,l),
(235,23,o),
(217,54,o),
(217,143,cs)
);
}
);
width = 709;
}
);
unicode = 928;
},
{
glyphname = Rho;
lastChange = "2026-06-13 18:56:50 +0000";
layers = (
{
layerId = m01;
shapes = (
{
closed = 1;
nodes = (
(451,397,o),
(402,333,o),
(294,333,cs),
(268,333,o),
(246,334,o),
(217,337,c),
(217,676,l),
(237,677,o),
(257,678,o),
(278,678,cs),
(410,678,o),
(449,628,o),
(451,501,cs)
);
},
{
closed = 1;
nodes = (
(217,313,l),
(243,311,o),
(267,310,o),
(292,310,cs),
(448,310,o),
(559,378,o),
(559,508,cs),
(559,630,o),
(464,701,o),
(317,701,cs),
(265,701,o),
(220,700,o),
(173,700,cs),
(30,700,l),
(30,676,l),
(101,676,o),
(120,645,o),
(120,556,cs),
(120,143,ls),
(120,54,o),
(101,23,o),
(30,23,c),
(30,0,l),
(307,0,l),
(307,23,l),
(236,23,o),
(217,54,o),
(217,143,cs)
);
}
);
width = 599;
}
);
unicode = 929;
},
{
glyphname = Sigma;
lastChange = "2024-10-13 14:44:37 +0000";
layers = (
{
layerId = m01;
shapes = (
{
closed = 1;
nodes = (
(45,0,l),
(589,0,l),
(596,223,l),
(570,223,l),
(562,82,o),
(446,94,o),
(302,94,cs),
(259,94,o),
(182,94,o),
(139,94,c),
(330,405,l),
(183,676,l),
(235,677,o),
(326,676,o),
(378,675,cs),
(490,672,o),
(540,619,o),
(549,506,c),
(575,506,l),
(568,700,l),
(58,700,l),
(249,336,l)
);
}
);
width = 646;
}
);
unicode = 931;
},
{
glyphname = Tau;
lastChange = "2024-10-13 14:44:37 +0000";
layers = (
{
layerId = m01;
shapes = (
{
closed = 1;
nodes = (
(379,677,l),
(433,675,ls),
(538,671,o),
(584,628,o),
(596,504,c),
(621,504,l),
(620,700,l),
(39,700,l),
(38,504,l),
(63,504,l),
(75,628,o),
(121,671,o),
(226,675,cs),
(280,677,l),
(280,105,ls),
(280,76,o),
(280,49,o),
(278,24,c),
(251,24,o),
(223,23,o),
(191,23,c),
(191,0,l),
(468,0,l),
(468,23,l),
(436,23,o),
(407,24,o),
(380,24,c),
(378,49,o),
(378,76,o),
(378,105,cs),
(378,677,l)
);
}
);
width = 659;
}
);
unicode = 932;
},
{
glyphname = Upsilon;
lastChange = "2025-08-25 16:56:36 +0000";
layers = (
{
anchors = (
{
name = tonos;
pos = (-177,492);
},
{
name = top;
pos = (334,760);
}
);
layerId = m01;
shapes = (
{
closed = 1;
nodes = (
(361,314,l),
(226,592,ls),
(196,655,o),
(200,677,o),
(265,677,c),
(265,700,l),
(-2,700,l),
(-2,677,l),
(68,677,o),
(77,666,o),
(142,543,cs),
(278,288,l),
(278,143,ls),
(278,54,o),
(260,23,o),
(189,23,c),
(189,0,l),
(468,0,l),
(468,23,l),
(397,23,o),
(377,54,o),
(377,143,cs),
(377,296,l),
(520,592,l),
(553,660,o),
(559,676,o),
(639,676,c),
(639,700,l),
(436,700,l),
(436,676,l),
(502,676,o),
(529,666,o),
(501,608,cs)
);
}
);
width = 637;
}
);
unicode = 933;
},
{
glyphname = Phi;
lastChange = "2026-06-13 18:57:05 +0000";
layers = (
{
layerId = m01;
shapes = (
{
closed = 1;
nodes = (
(463,18,o),
(453,23,o),
(453,64,c),
(635,84,o),
(762,192,o),
(762,360,cs),
(762,523,o),
(628,627,o),
(453,639,c),
(453,680,o),
(463,682,o),
(542,682,c),
(542,705,l),
(261,705,l),
(261,682,l),
(340,682,o),
(351,677,o),
(351,636,c),
(170,616,o),
(40,514,o),
(40,345,cs),
(40,177,o),
(173,76,o),
(351,62,c),
(351,21,o),
(340,18,o),
(261,18,c),
(261,-5,l),
(542,-5,l),
(542,18,l)
);
},
{
closed = 1;
nodes = (
(155,539,o),
(226,601,o),
(351,613,c),
(351,600,l),
(351,100,l),
(351,92,l),
(232,113,o),
(155,194,o),
(155,379,cs)
);
},
{
closed = 1;
nodes = (
(453,100,l),
(453,600,l),
(453,611,l),
(575,592,o),
(647,506,o),
(647,331,cs),
(647,158,o),
(572,95,o),
(453,87,c)
);
},
{
closed = 0;
nodes = (
(542,618,l)
);
}
);
width = 802;
}
);
unicode = 934;
},
{
glyphname = Chi;
lastChange = "2025-08-25 17:02:49 +0000";
layers = (
{
layerId = m01;
shapes = (
{
closed = 1;
nodes = (
(328,336,l),
(198,539,ls),
(132,641,o),
(118,677,o),
(40,677,c),
(40,700,l),
(315,700,l),
(315,677,l),
(244,677,o),
(234,666,o),
(297,574,c),
(394,419,l),
(480,544,ls),
(540,631,o),
(574,676,o),
(471,676,c),
(471,700,l),
(683,700,l),
(683,676,l),
(603,676,o),
(586,649,o),
(526,563,cs),
(410,397,l),
(563,161,ls),
(629,59,o),
(643,23,o),
(721,23,c),
(721,0,l),
(446,0,l),
(446,23,l),
(517,23,o),
(525,32,o),
(464,126,cs),
(342,314,l),
(234,156,ls),
(174,69,o),
(140,24,o),
(243,24,c),
(243,0,l),
(31,0,l),
(31,24,l),
(111,24,o),
(128,51,o),
(188,137,cs)
);
}
);
width = 749;
}
);
unicode = 935;
},
